{"glyphs":{"0":{"ha":742,"x_min":65,"x_max":676,"o":"m 371 -12 q 227 23 286 -12 q 133 120 168 58 q 81 264 97 182 q 65 441 65 346 q 81 620 65 537 q 133 765 97 703 q 227 862 168 827 q 371 897 286 897 q 515 863 456 897 q 609 765 574 828 q 660 620 644 703 q 676 442 676 538 q 660 264 676 347 q 609 120 644 182 q 515 23 574 58 q 371 -12 456 -12 m 371 87 q 463 117 427 87 q 519 199 499 148 q 547 314 539 250 q 555 442 555 377 q 547 571 555 508 q 519 686 539 635 q 463 768 499 737 q 371 798 427 798 q 278 768 315 798 q 222 686 242 737 q 194 571 201 635 q 186 442 186 508 q 194 314 186 377 q 222 199 201 250 q 278 117 242 148 q 371 87 315 87 z "},"1":{"ha":742,"x_min":130,"x_max":484,"o":"m 365 0 l 365 743 q 313 695 347 718 q 233 653 279 671 q 130 627 187 635 l 130 734 q 235 768 186 743 q 320 826 283 793 q 378 888 357 859 l 484 888 l 484 0 l 365 0 z "},"2":{"ha":742,"x_min":63,"x_max":675,"o":"m 63 0 l 63 90 l 377 376 q 495 511 458 450 q 532 637 532 571 q 495 751 532 707 q 374 795 458 795 q 238 746 279 795 q 197 623 197 697 l 83 623 q 116 767 83 705 q 213 863 148 829 q 374 897 277 897 q 524 865 462 897 q 617 777 585 833 q 650 642 650 720 q 623 516 650 573 q 551 409 596 459 q 450 309 505 359 l 218 100 l 675 100 l 675 0 l 63 0 z "},"3":{"ha":742,"x_min":66,"x_max":677,"o":"m 377 -12 q 151 60 236 -12 q 66 266 66 132 l 180 266 q 232 134 180 183 q 376 85 283 85 q 510 126 461 85 q 559 254 559 168 q 505 377 559 338 q 357 416 451 416 l 304 416 l 304 513 l 359 513 q 489 555 444 513 q 534 667 534 597 q 490 766 534 733 q 374 799 446 799 q 248 755 292 799 q 203 642 203 712 l 90 642 q 125 778 90 720 q 225 866 161 835 q 372 897 288 897 q 511 872 448 897 q 610 797 573 846 q 647 672 647 747 q 603 542 647 593 q 487 470 559 490 q 623 399 569 455 q 677 250 677 344 q 639 107 677 165 q 534 18 602 49 q 377 -12 467 -12 z "},"4":{"ha":742,"x_min":38,"x_max":700,"o":"m 465 0 l 465 179 l 38 179 l 38 281 l 463 890 l 578 890 l 578 279 l 700 279 l 700 179 l 578 179 l 578 0 l 465 0 m 149 279 l 467 279 l 467 736 l 149 279 z "},"5":{"ha":742,"x_min":64,"x_max":677,"o":"m 371 -12 q 215 18 285 -12 q 105 105 146 48 q 64 241 64 161 l 180 241 q 234 127 180 169 q 371 85 287 85 q 509 136 460 85 q 559 286 559 186 q 509 432 559 385 q 374 479 459 479 q 270 461 311 479 q 202 411 229 443 l 100 411 l 138 885 l 616 885 l 616 784 l 229 784 l 205 504 q 275 553 231 532 q 390 574 319 574 q 534 544 469 574 q 638 450 599 513 q 677 286 677 386 q 637 123 677 189 q 529 22 598 56 q 371 -12 460 -12 z "},"6":{"ha":742,"x_min":65,"x_max":685,"o":"m 392 -12 q 224 33 298 -12 q 107 177 150 78 q 65 437 65 276 q 106 696 65 594 q 220 847 146 798 q 392 897 294 897 q 574 841 500 897 q 669 672 648 785 l 555 672 q 499 767 541 735 q 392 799 458 799 q 238 712 294 799 q 181 437 181 625 l 181 401 q 211 215 181 285 q 288 115 240 146 q 393 85 336 85 q 524 140 481 85 q 567 276 567 195 q 525 406 567 358 q 407 453 483 453 q 252 412 319 453 q 152 316 186 370 l 139 403 q 210 478 168 444 q 305 531 252 511 q 422 551 358 551 q 557 520 498 551 q 650 429 616 489 q 685 280 685 368 q 651 129 685 195 q 551 25 616 62 q 392 -12 486 -12 z "},"7":{"ha":742,"x_min":64,"x_max":676,"o":"m 175 0 l 561 781 l 64 781 l 64 885 l 676 885 l 676 786 l 298 0 l 175 0 z "},"8":{"ha":742,"x_min":68,"x_max":673,"o":"m 371 -12 q 256 3 311 -12 q 159 51 201 19 q 92 132 117 83 q 68 248 68 180 q 118 390 68 332 q 243 467 168 448 q 141 541 179 488 q 104 669 104 593 q 143 799 104 748 q 243 873 182 850 q 370 897 304 897 q 498 873 437 897 q 598 799 559 849 q 637 669 637 748 q 595 538 637 591 q 494 467 553 486 q 623 391 572 448 q 673 248 673 334 q 649 132 673 180 q 583 51 625 83 q 486 3 541 19 q 371 -12 432 -12 m 371 84 q 464 102 422 84 q 532 157 507 120 q 557 252 557 195 q 532 345 557 307 q 463 401 506 382 q 371 418 420 420 q 282 401 324 420 q 212 346 239 383 q 185 252 185 309 q 240 126 185 168 q 371 84 295 84 m 371 513 q 447 528 412 511 q 504 579 482 545 q 526 662 526 612 q 481 769 526 735 q 371 803 435 803 q 296 788 332 803 q 238 742 260 773 q 216 662 216 711 q 238 579 216 613 q 296 529 260 546 q 371 513 332 511 z "},"9":{"ha":742,"x_min":63,"x_max":684,"o":"m 346 -12 q 211 14 270 -12 q 114 90 151 40 q 66 212 76 140 l 180 212 q 233 120 191 155 q 346 85 275 85 q 507 169 448 85 q 566 438 566 253 l 566 477 q 538 668 566 597 q 465 770 511 739 q 365 800 419 800 q 226 745 271 800 q 181 608 181 690 q 224 478 181 526 q 346 431 268 431 q 453 450 408 431 q 532 499 498 469 q 591 563 566 530 l 603 479 q 537 409 576 442 q 448 355 499 376 q 332 334 397 334 q 192 365 253 334 q 97 457 132 397 q 63 604 63 518 q 99 755 63 689 q 203 859 136 821 q 363 897 271 897 q 528 852 456 897 q 642 708 600 807 q 684 448 684 609 q 642 189 684 290 q 524 37 600 87 q 346 -12 448 -12 z "},"A":{"ha":819,"x_min":5,"x_max":813,"o":"m 5 0 l 347 913 l 476 913 l 813 0 l 687 0 l 600 256 l 222 256 l 131 0 l 5 0 m 255 358 l 566 358 l 411 791 l 255 358 z "},"Á":{"ha":819,"x_min":5,"x_max":813,"o":"m 5 0 l 347 913 l 476 913 l 813 0 l 687 0 l 600 256 l 222 256 l 131 0 l 5 0 m 255 358 l 566 358 l 411 791 l 255 358 m 351 991 l 483 1174 l 614 1174 l 439 991 l 351 991 z "},"Ă":{"ha":819,"x_min":5,"x_max":813,"o":"m 5 0 l 347 913 l 476 913 l 813 0 l 687 0 l 600 256 l 222 256 l 131 0 l 5 0 m 255 358 l 566 358 l 411 791 l 255 358 m 407 1004 q 311 1025 353 1004 q 244 1083 269 1045 q 216 1174 220 1120 l 288 1174 q 308 1117 290 1139 q 352 1084 326 1095 q 407 1074 378 1074 q 462 1085 436 1074 q 507 1118 488 1096 q 530 1174 525 1141 l 602 1174 q 571 1083 596 1122 q 504 1025 545 1045 q 407 1004 462 1004 z "},"Ắ":{"ha":819,"x_min":5,"x_max":813,"o":"m 5 0 l 347 913 l 476 913 l 813 0 l 687 0 l 600 256 l 222 256 l 131 0 l 5 0 m 255 358 l 566 358 l 411 791 l 255 358 m 414 998 q 281 1043 330 998 q 222 1169 233 1089 l 295 1169 q 317 1112 300 1134 q 360 1081 335 1090 q 414 1071 386 1071 q 470 1081 444 1071 q 514 1114 496 1092 q 537 1169 532 1135 l 608 1169 q 548 1044 598 1090 q 414 998 498 998 m 370 1169 l 459 1350 l 574 1350 l 437 1169 l 370 1169 z "},"Ặ":{"ha":819,"x_min":5,"x_max":813,"o":"m 5 0 l 347 913 l 476 913 l 813 0 l 687 0 l 600 256 l 222 256 l 131 0 l 5 0 m 255 358 l 566 358 l 411 791 l 255 358 m 410 -197 q 358 -179 378 -197 q 338 -132 338 -160 q 358 -84 338 -103 q 410 -66 378 -66 q 461 -84 441 -66 q 481 -132 481 -103 q 461 -179 481 -160 q 410 -197 441 -197 m 407 1004 q 311 1025 353 1004 q 244 1083 269 1045 q 216 1174 220 1120 l 288 1174 q 308 1117 290 1139 q 352 1084 326 1095 q 407 1074 378 1074 q 462 1085 436 1074 q 507 1118 488 1096 q 530 1174 525 1141 l 602 1174 q 571 1083 596 1122 q 504 1025 545 1045 q 407 1004 462 1004 z "},"Ằ":{"ha":819,"x_min":5,"x_max":813,"o":"m 5 0 l 347 913 l 476 913 l 813 0 l 687 0 l 600 256 l 222 256 l 131 0 l 5 0 m 255 358 l 566 358 l 411 791 l 255 358 m 414 998 q 281 1043 330 998 q 222 1169 233 1089 l 291 1169 q 314 1112 296 1134 q 358 1081 332 1090 q 414 1071 385 1071 q 471 1081 444 1071 q 517 1114 498 1092 q 541 1169 536 1135 l 608 1169 q 548 1044 598 1090 q 414 998 498 998 m 454 1169 l 387 1169 l 251 1350 l 365 1350 l 454 1169 z "},"Ẳ":{"ha":819,"x_min":5,"x_max":813,"o":"m 5 0 l 347 913 l 476 913 l 813 0 l 687 0 l 600 256 l 222 256 l 131 0 l 5 0 m 255 358 l 566 358 l 411 791 l 255 358 m 414 998 q 281 1043 330 998 q 222 1169 233 1089 l 291 1169 q 314 1112 296 1134 q 358 1081 332 1090 q 414 1071 385 1071 q 471 1081 444 1071 q 517 1114 498 1092 q 541 1169 536 1135 l 608 1169 q 548 1044 598 1090 q 414 998 498 998 m 390 1162 l 361 1203 q 404 1226 385 1210 q 424 1267 424 1242 q 406 1300 424 1292 q 355 1308 389 1308 l 347 1308 l 347 1377 l 370 1377 q 476 1353 440 1377 q 512 1281 512 1329 q 478 1200 512 1231 q 390 1162 444 1170 z "},"Ẵ":{"ha":819,"x_min":5,"x_max":813,"o":"m 5 0 l 347 913 l 476 913 l 813 0 l 687 0 l 600 256 l 222 256 l 131 0 l 5 0 m 255 358 l 566 358 l 411 791 l 255 358 m 414 998 q 281 1042 330 998 q 222 1166 233 1087 l 291 1166 q 314 1111 296 1132 q 358 1080 332 1090 q 414 1071 385 1071 q 471 1081 444 1071 q 517 1112 498 1091 q 541 1166 536 1133 l 608 1166 q 548 1043 598 1088 q 414 998 498 998 m 209 1219 q 245 1315 216 1279 q 332 1352 275 1352 q 386 1342 359 1352 q 437 1321 412 1333 q 478 1305 460 1312 q 511 1299 496 1299 q 547 1313 533 1299 q 565 1355 562 1326 l 631 1355 q 597 1261 625 1296 q 513 1226 570 1226 q 457 1236 484 1226 q 407 1255 431 1245 q 366 1272 383 1265 q 333 1278 348 1278 q 294 1264 309 1278 q 275 1219 279 1250 l 209 1219 z "},"Â":{"ha":819,"x_min":5,"x_max":813,"o":"m 5 0 l 347 913 l 476 913 l 813 0 l 687 0 l 600 256 l 222 256 l 131 0 l 5 0 m 255 358 l 566 358 l 411 791 l 255 358 m 207 991 l 352 1175 l 465 1175 l 610 991 l 516 991 l 409 1109 l 300 991 l 207 991 z "},"Ấ":{"ha":819,"x_min":5,"x_max":813,"o":"m 5 0 l 347 913 l 476 913 l 813 0 l 687 0 l 600 256 l 222 256 l 131 0 l 5 0 m 255 358 l 566 358 l 411 791 l 255 358 m 203 991 l 348 1175 l 461 1175 l 606 991 l 513 991 l 406 1109 l 297 991 l 203 991 m 536 1105 l 646 1288 l 770 1288 l 617 1105 l 536 1105 z "},"Ậ":{"ha":819,"x_min":5,"x_max":813,"o":"m 5 0 l 347 913 l 476 913 l 813 0 l 687 0 l 600 256 l 222 256 l 131 0 l 5 0 m 255 358 l 566 358 l 411 791 l 255 358 m 410 -197 q 358 -179 378 -197 q 338 -132 338 -160 q 358 -84 338 -103 q 410 -66 378 -66 q 461 -84 441 -66 q 481 -132 481 -103 q 461 -179 481 -160 q 410 -197 441 -197 m 207 991 l 352 1175 l 465 1175 l 610 991 l 516 991 l 409 1109 l 300 991 l 207 991 z "},"Ầ":{"ha":819,"x_min":5,"x_max":813,"o":"m 5 0 l 347 913 l 476 913 l 813 0 l 687 0 l 600 256 l 222 256 l 131 0 l 5 0 m 255 358 l 566 358 l 411 791 l 255 358 m 203 991 l 348 1175 l 461 1175 l 606 991 l 513 991 l 406 1109 l 297 991 l 203 991 m 271 1105 l 191 1105 l 37 1288 l 162 1288 l 271 1105 z "},"Ẩ":{"ha":819,"x_min":5,"x_max":813,"o":"m 5 0 l 347 913 l 476 913 l 813 0 l 687 0 l 600 256 l 222 256 l 131 0 l 5 0 m 255 358 l 566 358 l 411 791 l 255 358 m 203 991 l 348 1175 l 461 1175 l 606 991 l 513 991 l 406 1109 l 297 991 l 203 991 m 567 1103 l 538 1145 q 582 1168 562 1152 q 601 1208 601 1184 q 583 1242 601 1234 q 533 1250 566 1250 l 524 1250 l 524 1318 l 547 1318 q 653 1295 617 1318 q 689 1223 689 1271 q 655 1142 689 1173 q 567 1103 621 1112 z "},"Ẫ":{"ha":819,"x_min":5,"x_max":813,"o":"m 5 0 l 347 913 l 476 913 l 813 0 l 687 0 l 600 256 l 222 256 l 131 0 l 5 0 m 255 358 l 566 358 l 411 791 l 255 358 m 203 991 l 348 1173 l 461 1173 l 606 991 l 513 991 l 406 1107 l 297 991 l 203 991 m 195 1217 q 232 1314 203 1278 q 318 1350 260 1350 q 369 1341 343 1350 q 423 1320 395 1332 q 465 1304 447 1310 q 497 1298 482 1298 q 533 1312 519 1298 q 551 1353 547 1325 l 618 1353 q 583 1260 610 1295 q 499 1225 555 1225 q 443 1234 470 1225 q 393 1253 416 1243 q 351 1270 368 1264 q 319 1276 334 1276 q 281 1262 296 1276 q 262 1217 266 1249 l 195 1217 z "},"Ä":{"ha":819,"x_min":5,"x_max":813,"o":"m 5 0 l 347 913 l 476 913 l 813 0 l 687 0 l 600 256 l 222 256 l 131 0 l 5 0 m 255 358 l 566 358 l 411 791 l 255 358 m 528 1024 q 483 1041 501 1024 q 465 1085 465 1058 q 483 1129 465 1112 q 528 1147 501 1147 q 574 1129 555 1147 q 592 1085 592 1112 q 574 1041 592 1058 q 528 1024 555 1024 m 290 1024 q 244 1041 263 1024 q 226 1085 226 1058 q 244 1129 226 1112 q 290 1147 263 1147 q 335 1129 317 1147 q 353 1085 353 1112 q 335 1041 353 1058 q 290 1024 317 1024 z "},"Ạ":{"ha":819,"x_min":5,"x_max":813,"o":"m 5 0 l 347 913 l 476 913 l 813 0 l 687 0 l 600 256 l 222 256 l 131 0 l 5 0 m 255 358 l 566 358 l 411 791 l 255 358 m 410 -197 q 358 -179 378 -197 q 338 -132 338 -160 q 358 -84 338 -103 q 410 -66 378 -66 q 461 -84 441 -66 q 481 -132 481 -103 q 461 -179 481 -160 q 410 -197 441 -197 z "},"À":{"ha":819,"x_min":5,"x_max":813,"o":"m 5 0 l 347 913 l 476 913 l 813 0 l 687 0 l 600 256 l 222 256 l 131 0 l 5 0 m 255 358 l 566 358 l 411 791 l 255 358 m 378 991 l 204 1174 l 335 1174 l 467 991 l 378 991 z "},"Ả":{"ha":819,"x_min":5,"x_max":813,"o":"m 5 0 l 347 913 l 476 913 l 813 0 l 687 0 l 600 256 l 222 256 l 131 0 l 5 0 m 255 358 l 566 358 l 411 791 l 255 358 m 384 1021 l 355 1074 q 398 1093 378 1080 q 417 1126 417 1105 q 400 1160 417 1152 q 349 1168 382 1168 l 340 1168 l 340 1237 l 363 1237 q 483 1213 443 1237 q 523 1137 523 1188 q 484 1059 523 1089 q 384 1021 445 1029 m 355 1074 l 431 1065 l 431 991 l 355 991 l 355 1074 z "},"Ā":{"ha":819,"x_min":5,"x_max":813,"o":"m 5 0 l 347 913 l 476 913 l 813 0 l 687 0 l 600 256 l 222 256 l 131 0 l 5 0 m 255 358 l 566 358 l 411 791 l 255 358 m 224 1034 l 224 1117 l 594 1117 l 594 1034 l 224 1034 z "},"Ą":{"ha":819,"x_min":5,"x_max":813,"o":"m 5 0 l 347 913 l 476 913 l 813 0 l 687 0 l 600 256 l 222 256 l 131 0 l 5 0 m 255 358 l 566 358 l 411 791 l 255 358 m 707 -254 q 620 -225 656 -254 q 583 -144 583 -196 q 605 -76 583 -110 q 662 -15 626 -42 q 743 23 699 12 l 785 11 q 703 -63 726 -28 q 680 -127 680 -99 q 693 -164 680 -151 q 728 -176 707 -176 q 771 -171 751 -176 q 813 -155 791 -165 l 813 -231 q 770 -248 793 -241 q 707 -254 747 -254 z "},"Å":{"ha":819,"x_min":5,"x_max":813,"o":"m 5 0 l 347 913 l 476 913 l 813 0 l 687 0 l 600 256 l 222 256 l 131 0 l 5 0 m 255 358 l 566 358 l 411 791 l 255 358 m 409 934 q 307 972 347 934 q 268 1072 268 1010 q 307 1170 268 1133 q 409 1208 347 1208 q 511 1170 471 1208 q 550 1072 550 1133 q 511 972 550 1010 q 409 934 471 934 m 409 998 q 460 1019 441 998 q 480 1072 480 1040 q 460 1124 480 1103 q 409 1145 441 1145 q 358 1124 378 1145 q 338 1072 338 1103 q 358 1019 338 1040 q 409 998 378 998 z "},"Ǻ":{"ha":819,"x_min":5,"x_max":813,"o":"m 5 0 l 347 913 l 476 913 l 813 0 l 687 0 l 600 256 l 222 256 l 131 0 l 5 0 m 255 358 l 566 358 l 411 791 l 255 358 m 409 849 q 307 887 347 849 q 268 987 268 925 q 307 1085 268 1048 q 409 1123 347 1123 q 511 1085 471 1123 q 550 987 550 1048 q 511 887 550 925 q 409 849 471 849 m 409 913 q 460 934 441 913 q 480 987 480 955 q 460 1039 480 1019 q 409 1060 441 1060 q 358 1039 378 1060 q 338 987 338 1019 q 358 934 338 955 q 409 913 378 913 m 336 1147 l 468 1329 l 599 1329 l 425 1147 l 336 1147 z "},"Ã":{"ha":819,"x_min":5,"x_max":813,"o":"m 5 0 l 347 913 l 476 913 l 813 0 l 687 0 l 600 256 l 222 256 l 131 0 l 5 0 m 255 358 l 566 358 l 411 791 l 255 358 m 212 1006 q 244 1105 218 1069 q 320 1142 269 1142 q 375 1133 348 1142 q 427 1112 401 1123 q 467 1096 449 1102 q 500 1090 485 1090 q 527 1103 516 1090 q 541 1145 538 1117 l 607 1145 q 576 1049 600 1085 q 502 1014 552 1014 q 446 1023 472 1014 q 395 1042 419 1032 q 355 1059 372 1053 q 321 1065 337 1065 q 292 1051 303 1065 q 278 1006 281 1037 l 212 1006 z "},"Æ":{"ha":1296,"x_min":-22,"x_max":1225,"o":"m -22 0 l 568 913 l 667 913 l 669 794 l 614 794 l 311 315 l 311 308 l 117 0 l -22 0 m 257 256 l 257 358 l 704 358 l 704 256 l 257 256 m 642 0 l 642 913 l 1225 913 l 1225 811 l 764 811 l 764 520 l 1189 520 l 1189 420 l 764 420 l 764 102 l 1225 102 l 1225 0 l 642 0 z "},"Ǽ":{"ha":1296,"x_min":-22,"x_max":1225,"o":"m -22 0 l 568 913 l 667 913 l 669 794 l 614 794 l 311 315 l 311 308 l 117 0 l -22 0 m 257 256 l 257 358 l 704 358 l 704 256 l 257 256 m 642 0 l 642 913 l 1225 913 l 1225 811 l 764 811 l 764 520 l 1189 520 l 1189 420 l 764 420 l 764 102 l 1225 102 l 1225 0 l 642 0 m 711 991 l 842 1174 l 973 1174 l 799 991 l 711 991 z "},"B":{"ha":839,"x_min":119,"x_max":775,"o":"m 119 0 l 119 913 l 412 913 q 632 857 550 913 q 715 688 715 802 q 674 559 715 616 q 568 486 634 503 q 719 411 663 471 q 775 262 775 351 q 739 121 775 180 q 628 31 702 62 q 441 0 554 0 l 119 0 m 241 102 l 439 102 q 546 116 497 102 q 624 168 595 131 q 653 270 653 205 q 596 387 653 349 q 439 426 539 426 l 241 426 l 241 102 m 241 525 l 412 525 q 546 565 500 525 q 593 674 593 606 q 572 751 593 720 q 510 797 551 782 q 412 812 470 812 l 241 812 l 241 525 z "},"Ɓ":{"ha":963,"x_min":12,"x_max":899,"o":"m 244 0 l 244 812 q 152 785 184 811 q 119 704 119 760 l 119 656 l 12 656 l 12 711 q 77 865 12 818 q 244 913 142 913 l 537 913 q 756 857 674 913 q 839 688 839 802 q 799 559 839 616 q 691 486 758 503 q 843 411 786 471 q 899 262 899 351 q 862 121 899 180 q 751 31 825 62 q 566 0 677 0 l 244 0 m 366 102 l 563 102 q 670 116 622 102 q 748 168 719 131 q 777 270 777 205 q 720 387 777 349 q 563 426 663 426 l 366 426 l 366 102 m 366 525 l 536 525 q 670 565 623 525 q 717 674 717 606 q 696 751 717 720 q 634 797 675 782 q 536 812 594 812 l 366 812 l 366 525 z "},"C":{"ha":962,"x_min":73,"x_max":892,"o":"m 509 -12 q 270 47 367 -12 q 123 212 173 107 q 73 456 73 317 q 123 700 73 594 q 270 865 173 806 q 509 925 367 925 q 685 892 602 925 q 824 793 768 860 q 888 625 879 726 l 766 625 q 720 738 758 693 q 627 804 682 782 q 509 825 572 825 q 331 775 399 825 q 231 642 262 725 q 200 456 200 558 q 231 271 200 354 q 331 138 262 187 q 509 89 399 89 q 689 144 620 89 q 769 308 758 199 l 892 308 q 829 129 882 200 q 694 23 777 58 q 509 -12 612 -12 z "},"Ć":{"ha":962,"x_min":73,"x_max":892,"o":"m 509 -12 q 270 47 367 -12 q 123 212 173 107 q 73 456 73 317 q 123 700 73 594 q 270 865 173 806 q 509 925 367 925 q 685 892 602 925 q 824 793 768 860 q 888 625 879 726 l 766 625 q 720 738 758 693 q 627 804 682 782 q 509 825 572 825 q 331 775 399 825 q 231 642 262 725 q 200 456 200 558 q 231 271 200 354 q 331 138 262 187 q 509 89 399 89 q 689 144 620 89 q 769 308 758 199 l 892 308 q 829 129 882 200 q 694 23 777 58 q 509 -12 612 -12 m 448 991 l 580 1174 l 711 1174 l 536 991 l 448 991 z "},"Č":{"ha":962,"x_min":73,"x_max":892,"o":"m 509 -12 q 270 47 367 -12 q 123 212 173 107 q 73 456 73 317 q 123 700 73 594 q 270 865 173 806 q 509 925 367 925 q 685 892 602 925 q 824 793 768 860 q 888 625 879 726 l 766 625 q 720 738 758 693 q 627 804 682 782 q 509 825 572 825 q 331 775 399 825 q 231 642 262 725 q 200 456 200 558 q 231 271 200 354 q 331 138 262 187 q 509 89 399 89 q 689 144 620 89 q 769 308 758 199 l 892 308 q 829 129 882 200 q 694 23 777 58 q 509 -12 612 -12 m 449 991 l 304 1175 l 397 1175 l 505 1058 l 613 1175 l 707 1175 l 562 991 l 449 991 z "},"Ç":{"ha":962,"x_min":73,"x_max":892,"o":"m 509 -12 q 270 47 367 -12 q 123 212 173 107 q 73 456 73 317 q 123 700 73 594 q 270 865 173 806 q 509 925 367 925 q 685 892 602 925 q 824 793 768 860 q 888 625 879 726 l 766 625 q 720 738 758 693 q 627 804 682 782 q 509 825 572 825 q 331 775 399 825 q 231 642 262 725 q 200 456 200 558 q 231 271 200 354 q 331 138 262 187 q 509 89 399 89 q 689 144 620 89 q 769 308 758 199 l 892 308 q 829 129 882 200 q 694 23 777 58 q 509 -12 612 -12 m 490 -259 q 422 -253 452 -259 q 368 -236 393 -246 l 386 -173 q 431 -187 404 -181 q 486 -193 458 -193 q 528 -181 511 -193 q 545 -149 545 -170 q 523 -113 545 -125 q 448 -95 501 -101 l 418 -92 l 507 28 l 562 3 l 516 -60 l 496 -44 q 594 -73 559 -47 q 629 -146 629 -98 q 611 -209 629 -184 q 562 -247 593 -234 q 490 -259 530 -259 z "},"Ĉ":{"ha":962,"x_min":73,"x_max":892,"o":"m 509 -12 q 270 47 367 -12 q 123 212 173 107 q 73 456 73 317 q 123 700 73 594 q 270 865 173 806 q 509 925 367 925 q 685 892 602 925 q 824 793 768 860 q 888 625 879 726 l 766 625 q 720 738 758 693 q 627 804 682 782 q 509 825 572 825 q 331 775 399 825 q 231 642 262 725 q 200 456 200 558 q 231 271 200 354 q 331 138 262 187 q 509 89 399 89 q 689 144 620 89 q 769 308 758 199 l 892 308 q 829 129 882 200 q 694 23 777 58 q 509 -12 612 -12 m 304 991 l 449 1175 l 562 1175 l 707 991 l 613 991 l 506 1109 l 397 991 l 304 991 z "},"Ċ":{"ha":962,"x_min":73,"x_max":892,"o":"m 509 -12 q 270 47 367 -12 q 123 212 173 107 q 73 456 73 317 q 123 700 73 594 q 270 865 173 806 q 509 925 367 925 q 685 892 602 925 q 824 793 768 860 q 888 625 879 726 l 766 625 q 720 738 758 693 q 627 804 682 782 q 509 825 572 825 q 331 775 399 825 q 231 642 262 725 q 200 456 200 558 q 231 271 200 354 q 331 138 262 187 q 509 89 399 89 q 689 144 620 89 q 769 308 758 199 l 892 308 q 829 129 882 200 q 694 23 777 58 q 509 -12 612 -12 m 506 1019 q 454 1038 474 1019 q 435 1085 435 1057 q 454 1132 435 1114 q 506 1151 474 1151 q 557 1132 538 1151 q 577 1085 577 1114 q 557 1038 577 1057 q 506 1019 538 1019 z "},"D":{"ha":953,"x_min":119,"x_max":878,"o":"m 119 0 l 119 913 l 427 913 q 671 859 570 913 q 825 703 772 805 q 878 456 878 600 q 824 210 878 312 q 670 54 771 107 q 427 0 569 0 l 119 0 m 241 102 l 399 102 q 597 141 519 102 q 714 258 675 179 q 752 457 752 337 q 713 655 752 576 q 596 772 674 733 q 399 810 517 810 l 241 810 l 241 102 z "},"Ɖ":{"ha":953,"x_min":0,"x_max":878,"o":"m 0 416 l 0 513 l 484 513 l 484 416 l 0 416 m 119 0 l 119 913 l 427 913 q 671 859 570 913 q 825 703 772 805 q 878 456 878 600 q 824 210 878 312 q 670 54 771 107 q 427 0 569 0 l 119 0 m 241 102 l 399 102 q 597 141 519 102 q 714 258 675 179 q 752 457 752 337 q 713 655 752 576 q 596 772 674 733 q 399 810 517 810 l 241 810 l 241 102 z "},"Ð":{"ha":953,"x_min":0,"x_max":878,"o":"m 0 416 l 0 513 l 484 513 l 484 416 l 0 416 m 119 0 l 119 913 l 427 913 q 671 859 570 913 q 825 703 772 805 q 878 456 878 600 q 824 210 878 312 q 670 54 771 107 q 427 0 569 0 l 119 0 m 241 102 l 399 102 q 597 141 519 102 q 714 258 675 179 q 752 457 752 337 q 713 655 752 576 q 596 772 674 733 q 399 810 517 810 l 241 810 l 241 102 z "},"Ď":{"ha":953,"x_min":119,"x_max":878,"o":"m 119 0 l 119 913 l 427 913 q 671 859 570 913 q 825 703 772 805 q 878 456 878 600 q 824 210 878 312 q 670 54 771 107 q 427 0 569 0 l 119 0 m 241 102 l 399 102 q 597 141 519 102 q 714 258 675 179 q 752 457 752 337 q 713 655 752 576 q 596 772 674 733 q 399 810 517 810 l 241 810 l 241 102 m 420 991 l 275 1175 l 368 1175 l 475 1058 l 584 1175 l 678 1175 l 533 991 l 420 991 z "},"Đ":{"ha":953,"x_min":0,"x_max":878,"o":"m 0 416 l 0 513 l 484 513 l 484 416 l 0 416 m 119 0 l 119 913 l 427 913 q 671 859 570 913 q 825 703 772 805 q 878 456 878 600 q 824 210 878 312 q 670 54 771 107 q 427 0 569 0 l 119 0 m 241 102 l 399 102 q 597 141 519 102 q 714 258 675 179 q 752 457 752 337 q 713 655 752 576 q 596 772 674 733 q 399 810 517 810 l 241 810 l 241 102 z "},"Ɗ":{"ha":1076,"x_min":12,"x_max":1002,"o":"m 244 0 l 244 812 q 152 785 184 811 q 119 704 119 760 l 119 656 l 12 656 l 12 711 q 77 865 12 818 q 244 913 142 913 l 551 913 q 795 859 694 913 q 949 703 896 805 q 1002 456 1002 600 q 948 210 1002 312 q 794 54 895 107 q 551 0 694 0 l 244 0 m 366 102 l 524 102 q 790 190 703 102 q 876 457 876 277 q 788 723 876 636 q 524 810 701 810 l 366 810 l 366 102 z "},"E":{"ha":772,"x_min":119,"x_max":702,"o":"m 119 0 l 119 913 l 702 913 l 702 811 l 241 811 l 241 520 l 665 520 l 665 420 l 241 420 l 241 102 l 702 102 l 702 0 l 119 0 z "},"É":{"ha":772,"x_min":119,"x_max":702,"o":"m 119 0 l 119 913 l 702 913 l 702 811 l 241 811 l 241 520 l 665 520 l 665 420 l 241 420 l 241 102 l 702 102 l 702 0 l 119 0 m 353 991 l 484 1174 l 615 1174 l 441 991 l 353 991 z "},"Ĕ":{"ha":772,"x_min":119,"x_max":702,"o":"m 119 0 l 119 913 l 702 913 l 702 811 l 241 811 l 241 520 l 665 520 l 665 420 l 241 420 l 241 102 l 702 102 l 702 0 l 119 0 m 408 1004 q 312 1025 354 1004 q 245 1083 270 1045 q 218 1174 221 1120 l 289 1174 q 310 1117 292 1139 q 354 1084 328 1095 q 408 1074 380 1074 q 464 1085 437 1074 q 508 1118 490 1096 q 531 1174 526 1141 l 604 1174 q 572 1083 597 1122 q 505 1025 547 1045 q 408 1004 463 1004 z "},"Ě":{"ha":772,"x_min":119,"x_max":702,"o":"m 119 0 l 119 913 l 702 913 l 702 811 l 241 811 l 241 520 l 665 520 l 665 420 l 241 420 l 241 102 l 702 102 l 702 0 l 119 0 m 353 991 l 208 1175 l 302 1175 l 409 1058 l 517 1175 l 612 1175 l 467 991 l 353 991 z "},"Ê":{"ha":772,"x_min":119,"x_max":702,"o":"m 119 0 l 119 913 l 702 913 l 702 811 l 241 811 l 241 520 l 665 520 l 665 420 l 241 420 l 241 102 l 702 102 l 702 0 l 119 0 m 208 991 l 353 1175 l 467 1175 l 612 991 l 517 991 l 410 1109 l 302 991 l 208 991 z "},"Ế":{"ha":772,"x_min":119,"x_max":772,"o":"m 119 0 l 119 913 l 702 913 l 702 811 l 241 811 l 241 520 l 665 520 l 665 420 l 241 420 l 241 102 l 702 102 l 702 0 l 119 0 m 204 991 l 349 1175 l 463 1175 l 608 991 l 514 991 l 407 1109 l 298 991 l 204 991 m 537 1105 l 648 1288 l 772 1288 l 618 1105 l 537 1105 z "},"Ệ":{"ha":772,"x_min":119,"x_max":702,"o":"m 119 0 l 119 913 l 702 913 l 702 811 l 241 811 l 241 520 l 665 520 l 665 420 l 241 420 l 241 102 l 702 102 l 702 0 l 119 0 m 419 -197 q 368 -179 387 -197 q 348 -132 348 -160 q 368 -84 348 -103 q 419 -66 387 -66 q 471 -84 451 -66 q 490 -132 490 -103 q 471 -179 490 -160 q 419 -197 451 -197 m 208 991 l 353 1175 l 467 1175 l 612 991 l 517 991 l 410 1109 l 302 991 l 208 991 z "},"Ề":{"ha":772,"x_min":39,"x_max":702,"o":"m 119 0 l 119 913 l 702 913 l 702 811 l 241 811 l 241 520 l 665 520 l 665 420 l 241 420 l 241 102 l 702 102 l 702 0 l 119 0 m 204 991 l 349 1175 l 463 1175 l 608 991 l 514 991 l 407 1109 l 298 991 l 204 991 m 273 1105 l 192 1105 l 38 1288 l 163 1288 l 273 1105 z "},"Ể":{"ha":772,"x_min":119,"x_max":702,"o":"m 119 0 l 119 913 l 702 913 l 702 811 l 241 811 l 241 520 l 665 520 l 665 420 l 241 420 l 241 102 l 702 102 l 702 0 l 119 0 m 204 991 l 349 1175 l 463 1175 l 608 991 l 514 991 l 407 1109 l 298 991 l 204 991 m 568 1103 l 540 1145 q 583 1168 564 1152 q 602 1208 602 1184 q 585 1242 602 1234 q 534 1250 567 1250 l 526 1250 l 526 1318 l 548 1318 q 654 1295 618 1318 q 690 1223 690 1271 q 656 1142 690 1173 q 568 1103 623 1112 z "},"Ễ":{"ha":772,"x_min":119,"x_max":702,"o":"m 119 0 l 119 913 l 702 913 l 702 811 l 241 811 l 241 520 l 665 520 l 665 420 l 241 420 l 241 102 l 702 102 l 702 0 l 119 0 m 204 991 l 349 1173 l 463 1173 l 608 991 l 514 991 l 407 1107 l 298 991 l 204 991 m 197 1217 q 233 1314 204 1278 q 319 1350 262 1350 q 371 1341 345 1350 q 425 1320 397 1332 q 466 1304 448 1310 q 498 1298 484 1298 q 535 1312 521 1298 q 553 1353 549 1325 l 619 1353 q 584 1260 612 1295 q 500 1225 557 1225 q 444 1234 471 1225 q 395 1253 417 1243 q 353 1270 370 1264 q 321 1276 336 1276 q 282 1262 297 1276 q 263 1217 267 1249 l 197 1217 z "},"Ë":{"ha":772,"x_min":119,"x_max":702,"o":"m 119 0 l 119 913 l 702 913 l 702 811 l 241 811 l 241 520 l 665 520 l 665 420 l 241 420 l 241 102 l 702 102 l 702 0 l 119 0 m 530 1024 q 485 1041 503 1024 q 467 1085 467 1058 q 485 1129 467 1112 q 530 1147 503 1147 q 575 1129 557 1147 q 593 1085 593 1112 q 575 1041 593 1058 q 530 1024 557 1024 m 291 1024 q 246 1041 264 1024 q 227 1085 227 1058 q 246 1129 227 1112 q 291 1147 264 1147 q 336 1129 318 1147 q 355 1085 355 1112 q 336 1041 355 1058 q 291 1024 318 1024 z "},"Ė":{"ha":772,"x_min":119,"x_max":702,"o":"m 119 0 l 119 913 l 702 913 l 702 811 l 241 811 l 241 520 l 665 520 l 665 420 l 241 420 l 241 102 l 702 102 l 702 0 l 119 0 m 410 1019 q 359 1038 378 1019 q 339 1085 339 1057 q 359 1132 339 1114 q 410 1151 378 1151 q 462 1132 442 1151 q 481 1085 481 1114 q 462 1038 481 1057 q 410 1019 442 1019 z "},"Ẹ":{"ha":772,"x_min":119,"x_max":702,"o":"m 119 0 l 119 913 l 702 913 l 702 811 l 241 811 l 241 520 l 665 520 l 665 420 l 241 420 l 241 102 l 702 102 l 702 0 l 119 0 m 419 -197 q 368 -179 387 -197 q 348 -132 348 -160 q 368 -84 348 -103 q 419 -66 387 -66 q 471 -84 451 -66 q 490 -132 490 -103 q 471 -179 490 -160 q 419 -197 451 -197 z "},"È":{"ha":772,"x_min":119,"x_max":702,"o":"m 119 0 l 119 913 l 702 913 l 702 811 l 241 811 l 241 520 l 665 520 l 665 420 l 241 420 l 241 102 l 702 102 l 702 0 l 119 0 m 380 991 l 205 1174 l 336 1174 l 468 991 l 380 991 z "},"Ẻ":{"ha":772,"x_min":119,"x_max":702,"o":"m 119 0 l 119 913 l 702 913 l 702 811 l 241 811 l 241 520 l 665 520 l 665 420 l 241 420 l 241 102 l 702 102 l 702 0 l 119 0 m 385 1021 l 356 1074 q 399 1093 380 1080 q 418 1126 418 1105 q 401 1160 418 1152 q 350 1168 384 1168 l 341 1168 l 341 1237 l 364 1237 q 484 1213 444 1237 q 524 1137 524 1188 q 485 1059 524 1089 q 385 1021 446 1029 m 356 1074 l 432 1065 l 432 991 l 356 991 l 356 1074 z "},"Ē":{"ha":772,"x_min":119,"x_max":702,"o":"m 119 0 l 119 913 l 702 913 l 702 811 l 241 811 l 241 520 l 665 520 l 665 420 l 241 420 l 241 102 l 702 102 l 702 0 l 119 0 m 226 1034 l 226 1117 l 595 1117 l 595 1034 l 226 1034 z "},"Ę":{"ha":772,"x_min":119,"x_max":702,"o":"m 119 0 l 119 913 l 702 913 l 702 811 l 241 811 l 241 520 l 665 520 l 665 420 l 241 420 l 241 102 l 702 102 l 702 0 l 119 0 m 560 -254 q 472 -225 509 -254 q 436 -144 436 -196 q 457 -76 436 -110 q 515 -15 479 -42 q 595 23 551 12 l 638 11 q 555 -63 578 -28 q 532 -127 532 -99 q 546 -164 532 -151 q 581 -176 560 -176 q 624 -171 604 -176 q 666 -155 644 -165 l 666 -231 q 623 -248 646 -241 q 560 -254 600 -254 z "},"Ɛ":{"ha":793,"x_min":64,"x_max":737,"o":"m 399 -12 q 224 19 300 -12 q 106 112 149 51 q 64 260 64 172 q 124 412 64 354 q 275 487 184 470 q 141 560 192 507 q 90 694 90 613 q 131 822 90 770 q 242 900 172 873 q 396 926 312 926 q 562 894 491 926 q 672 802 632 861 q 711 663 711 743 l 591 663 q 541 783 593 737 q 395 829 489 829 q 261 793 313 829 q 210 687 210 758 q 260 572 210 615 q 405 530 311 530 l 486 530 l 486 432 l 408 432 q 248 391 306 432 q 189 264 189 350 q 245 129 189 172 q 401 85 302 85 q 559 137 503 85 q 616 274 616 188 l 737 274 q 695 117 737 181 q 577 21 653 54 q 399 -12 501 -12 z "},"Ǝ":{"ha":773,"x_min":71,"x_max":653,"o":"m 71 0 l 71 102 l 531 102 l 531 420 l 108 420 l 108 520 l 531 520 l 531 811 l 71 811 l 71 913 l 653 913 l 653 0 l 71 0 z "},"Ẽ":{"ha":772,"x_min":119,"x_max":702,"o":"m 119 0 l 119 913 l 702 913 l 702 811 l 241 811 l 241 520 l 665 520 l 665 420 l 241 420 l 241 102 l 702 102 l 702 0 l 119 0 m 213 1006 q 245 1105 220 1069 q 321 1142 271 1142 q 376 1133 349 1142 q 428 1112 403 1123 q 468 1096 450 1102 q 501 1090 486 1090 q 528 1103 517 1090 q 542 1145 539 1117 l 608 1145 q 577 1049 602 1085 q 503 1014 553 1014 q 447 1023 473 1014 q 397 1042 420 1032 q 356 1059 374 1053 q 323 1065 338 1065 q 294 1051 304 1065 q 279 1006 283 1037 l 213 1006 z "},"Ə":{"ha":986,"x_min":73,"x_max":911,"o":"m 493 -12 q 333 12 408 -12 q 202 92 258 37 q 112 239 145 147 q 73 467 78 331 l 207 382 q 254 209 213 273 q 358 116 295 144 q 493 87 421 87 q 661 136 597 87 q 755 268 725 184 q 785 457 785 351 q 755 645 785 562 q 661 775 725 728 q 493 823 597 823 q 290 772 366 823 q 200 614 214 720 l 77 614 q 148 788 90 720 q 295 891 205 857 q 496 925 385 925 q 724 866 631 925 q 863 701 816 806 q 911 457 911 596 q 863 213 911 319 q 722 47 815 107 q 493 -12 629 -12 m 129 368 l 73 467 l 839 467 l 839 368 l 129 368 z "},"Ʒ":{"ha":782,"x_min":56,"x_max":718,"o":"m 389 -12 q 213 21 288 -12 q 97 117 138 54 q 56 274 56 181 l 176 274 q 232 137 176 188 q 388 85 288 85 q 538 132 484 85 q 593 277 593 178 q 524 415 593 371 q 336 460 456 460 l 251 460 l 251 551 l 362 549 q 546 519 465 549 q 672 429 626 489 q 718 276 718 368 q 677 119 718 184 q 562 21 635 55 q 389 -12 488 -12 m 341 511 l 251 551 l 526 810 l 109 810 l 109 913 l 669 913 l 669 817 l 341 511 z "},"F":{"ha":728,"x_min":119,"x_max":688,"o":"m 119 0 l 119 913 l 688 913 l 688 811 l 241 811 l 241 519 l 646 519 l 646 420 l 241 420 l 241 0 l 119 0 z "},"Ƒ":{"ha":728,"x_min":1,"x_max":688,"o":"m 1 -243 l 1 -139 l 37 -139 q 102 -109 85 -139 q 119 -22 119 -79 l 119 913 l 688 913 l 688 811 l 241 811 l 241 519 l 646 519 l 646 420 l 241 420 l 241 -25 q 196 -190 241 -136 q 46 -243 151 -243 l 1 -243 z "},"G":{"ha":984,"x_min":73,"x_max":909,"o":"m 510 -12 q 270 47 368 -12 q 123 211 173 106 q 73 456 73 317 q 123 701 73 595 q 270 866 173 807 q 510 925 368 925 q 645 907 581 925 q 762 853 709 889 q 847 762 814 817 q 888 632 881 707 l 766 632 q 727 728 760 684 q 640 799 695 772 q 509 825 585 825 q 330 775 399 825 q 229 642 260 726 q 197 456 197 559 q 229 270 197 353 q 330 138 261 187 q 510 90 399 90 q 667 124 606 90 q 759 219 728 158 q 790 361 789 281 l 524 361 l 524 462 l 909 462 l 909 391 q 865 181 909 272 q 732 39 821 90 q 510 -12 644 -12 z "},"Ğ":{"ha":984,"x_min":73,"x_max":909,"o":"m 510 -12 q 270 47 368 -12 q 123 211 173 106 q 73 456 73 317 q 123 701 73 595 q 270 866 173 807 q 510 925 368 925 q 645 907 581 925 q 762 853 709 889 q 847 762 814 817 q 888 632 881 707 l 766 632 q 727 728 760 684 q 640 799 695 772 q 509 825 585 825 q 330 775 399 825 q 229 642 260 726 q 197 456 197 559 q 229 270 197 353 q 330 138 261 187 q 510 90 399 90 q 667 124 606 90 q 759 219 728 158 q 790 361 789 281 l 524 361 l 524 462 l 909 462 l 909 391 q 865 181 909 272 q 732 39 821 90 q 510 -12 644 -12 m 507 1004 q 410 1025 452 1004 q 344 1083 368 1045 q 316 1174 319 1120 l 387 1174 q 408 1117 390 1139 q 452 1084 426 1095 q 507 1074 478 1074 q 562 1085 536 1074 q 606 1118 588 1096 q 629 1174 625 1141 l 702 1174 q 670 1083 696 1122 q 603 1025 645 1045 q 507 1004 562 1004 z "},"Ǧ":{"ha":984,"x_min":73,"x_max":909,"o":"m 510 -12 q 270 47 368 -12 q 123 211 173 106 q 73 456 73 317 q 123 701 73 595 q 270 866 173 807 q 510 925 368 925 q 645 907 581 925 q 762 853 709 889 q 847 762 814 817 q 888 632 881 707 l 766 632 q 727 728 760 684 q 640 799 695 772 q 509 825 585 825 q 330 775 399 825 q 229 642 260 726 q 197 456 197 559 q 229 270 197 353 q 330 138 261 187 q 510 90 399 90 q 667 124 606 90 q 759 219 728 158 q 790 361 789 281 l 524 361 l 524 462 l 909 462 l 909 391 q 865 181 909 272 q 732 39 821 90 q 510 -12 644 -12 m 452 991 l 307 1175 l 400 1175 l 507 1058 l 616 1175 l 710 1175 l 565 991 l 452 991 z "},"Ĝ":{"ha":984,"x_min":73,"x_max":909,"o":"m 510 -12 q 270 47 368 -12 q 123 211 173 106 q 73 456 73 317 q 123 701 73 595 q 270 866 173 807 q 510 925 368 925 q 645 907 581 925 q 762 853 709 889 q 847 762 814 817 q 888 632 881 707 l 766 632 q 727 728 760 684 q 640 799 695 772 q 509 825 585 825 q 330 775 399 825 q 229 642 260 726 q 197 456 197 559 q 229 270 197 353 q 330 138 261 187 q 510 90 399 90 q 667 124 606 90 q 759 219 728 158 q 790 361 789 281 l 524 361 l 524 462 l 909 462 l 909 391 q 865 181 909 272 q 732 39 821 90 q 510 -12 644 -12 m 307 991 l 452 1175 l 565 1175 l 710 991 l 616 991 l 509 1109 l 400 991 l 307 991 z "},"Ģ":{"ha":984,"x_min":73,"x_max":909,"o":"m 510 -12 q 270 47 368 -12 q 123 211 173 106 q 73 456 73 317 q 123 701 73 595 q 270 866 173 807 q 510 925 368 925 q 645 907 581 925 q 762 853 709 889 q 847 762 814 817 q 888 632 881 707 l 766 632 q 727 728 760 684 q 640 799 695 772 q 509 825 585 825 q 330 775 399 825 q 229 642 260 726 q 197 456 197 559 q 229 270 197 353 q 330 138 261 187 q 510 90 399 90 q 667 124 606 90 q 759 219 728 158 q 790 361 789 281 l 524 361 l 524 462 l 909 462 l 909 391 q 865 181 909 272 q 732 39 821 90 q 510 -12 644 -12 m 449 -259 l 435 -215 q 478 -192 458 -206 q 504 -157 498 -178 q 462 -137 478 -154 q 446 -98 446 -121 q 464 -57 446 -73 q 513 -40 481 -40 q 563 -59 543 -40 q 584 -113 584 -77 q 544 -208 584 -168 q 449 -259 504 -247 z "},"Ġ":{"ha":984,"x_min":73,"x_max":909,"o":"m 510 -12 q 270 47 368 -12 q 123 211 173 106 q 73 456 73 317 q 123 701 73 595 q 270 866 173 807 q 510 925 368 925 q 645 907 581 925 q 762 853 709 889 q 847 762 814 817 q 888 632 881 707 l 766 632 q 727 728 760 684 q 640 799 695 772 q 509 825 585 825 q 330 775 399 825 q 229 642 260 726 q 197 456 197 559 q 229 270 197 353 q 330 138 261 187 q 510 90 399 90 q 667 124 606 90 q 759 219 728 158 q 790 361 789 281 l 524 361 l 524 462 l 909 462 l 909 391 q 865 181 909 272 q 732 39 821 90 q 510 -12 644 -12 m 509 1019 q 457 1038 477 1019 q 437 1085 437 1057 q 457 1132 437 1114 q 509 1151 477 1151 q 560 1132 541 1151 q 580 1085 580 1114 q 560 1038 580 1057 q 509 1019 541 1019 z "},"H":{"ha":982,"x_min":119,"x_max":861,"o":"m 119 0 l 119 913 l 241 913 l 241 530 l 741 530 l 741 913 l 861 913 l 861 0 l 741 0 l 741 424 l 241 424 l 241 0 l 119 0 z "},"Ħ":{"ha":982,"x_min":12,"x_max":968,"o":"m 12 677 l 12 755 l 968 755 l 968 677 l 12 677 m 119 0 l 119 913 l 241 913 l 241 530 l 741 530 l 741 913 l 861 913 l 861 0 l 741 0 l 741 424 l 241 424 l 241 0 l 119 0 z "},"Ĥ":{"ha":982,"x_min":119,"x_max":861,"o":"m 119 0 l 119 913 l 241 913 l 241 530 l 741 530 l 741 913 l 861 913 l 861 0 l 741 0 l 741 424 l 241 424 l 241 0 l 119 0 m 290 991 l 435 1175 l 548 1175 l 693 991 l 599 991 l 492 1109 l 383 991 l 290 991 z "},"I":{"ha":361,"x_min":119,"x_max":241,"o":"m 119 0 l 119 913 l 241 913 l 241 0 l 119 0 z "},"Ĳ":{"ha":822,"x_min":119,"x_max":713,"o":"m 119 0 l 119 913 l 241 913 l 241 0 l 119 0 m 387 -7 l 387 97 l 435 97 q 559 139 526 97 q 593 274 593 180 l 593 913 l 713 913 l 713 272 q 686 113 713 175 q 600 22 659 52 q 444 -7 541 -7 l 387 -7 z "},"Í":{"ha":361,"x_min":119,"x_max":385,"o":"m 119 0 l 119 913 l 241 913 l 241 0 l 119 0 m 123 991 l 254 1174 l 385 1174 l 211 991 l 123 991 z "},"Ĭ":{"ha":361,"x_min":-12,"x_max":373,"o":"m 119 0 l 119 913 l 241 913 l 241 0 l 119 0 m 178 1004 q 82 1025 124 1004 q 16 1083 40 1045 q -12 1174 -9 1120 l 59 1174 q 80 1117 62 1139 q 124 1084 98 1095 q 178 1074 150 1074 q 234 1085 208 1074 q 278 1118 260 1096 q 301 1174 296 1141 l 374 1174 q 342 1083 368 1122 q 275 1025 317 1045 q 178 1004 233 1004 z "},"Î":{"ha":361,"x_min":-22,"x_max":382,"o":"m 119 0 l 119 913 l 241 913 l 241 0 l 119 0 m -22 991 l 123 1175 l 237 1175 l 382 991 l 288 991 l 180 1109 l 72 991 l -22 991 z "},"Ï":{"ha":361,"x_min":-3,"x_max":363,"o":"m 119 0 l 119 913 l 241 913 l 241 0 l 119 0 m 300 1024 q 255 1041 273 1024 q 237 1085 237 1058 q 255 1129 237 1112 q 300 1147 273 1147 q 345 1129 327 1147 q 363 1085 363 1112 q 345 1041 363 1058 q 300 1024 327 1024 m 61 1024 q 16 1041 35 1024 q -3 1085 -3 1058 q 16 1129 -3 1112 q 61 1147 35 1147 q 106 1129 88 1147 q 125 1085 125 1112 q 106 1041 125 1058 q 61 1024 88 1024 z "},"İ":{"ha":361,"x_min":109,"x_max":251,"o":"m 119 0 l 119 913 l 241 913 l 241 0 l 119 0 m 180 1019 q 129 1038 149 1019 q 109 1085 109 1057 q 129 1132 109 1114 q 180 1151 149 1151 q 232 1132 212 1151 q 252 1085 252 1114 q 232 1038 252 1057 q 180 1019 212 1019 z "},"Ị":{"ha":361,"x_min":109,"x_max":251,"o":"m 119 0 l 119 913 l 241 913 l 241 0 l 119 0 m 180 -197 q 129 -179 149 -197 q 109 -132 109 -160 q 129 -84 109 -103 q 180 -66 149 -66 q 232 -84 212 -66 q 252 -132 252 -103 q 232 -179 252 -160 q 180 -197 212 -197 z "},"Ì":{"ha":361,"x_min":-24,"x_max":241,"o":"m 119 0 l 119 913 l 241 913 l 241 0 l 119 0 m 150 991 l -24 1174 l 106 1174 l 238 991 l 150 991 z "},"Ỉ":{"ha":361,"x_min":111,"x_max":294,"o":"m 119 0 l 119 913 l 241 913 l 241 0 l 119 0 m 155 1021 l 126 1074 q 169 1093 150 1080 q 189 1126 189 1105 q 171 1160 189 1152 q 120 1168 154 1168 l 111 1168 l 111 1237 l 134 1237 q 254 1213 214 1237 q 294 1137 294 1188 q 255 1059 294 1089 q 155 1021 216 1029 m 126 1074 l 202 1065 l 202 991 l 126 991 l 126 1074 z "},"Ī":{"ha":361,"x_min":-5,"x_max":366,"o":"m 119 0 l 119 913 l 241 913 l 241 0 l 119 0 m -4 1034 l -4 1117 l 366 1117 l 366 1034 l -4 1034 z "},"Į":{"ha":361,"x_min":31,"x_max":260,"o":"m 119 0 l 119 913 l 241 913 l 241 0 l 119 0 m 155 -254 q 67 -225 103 -254 q 31 -144 31 -196 q 52 -76 31 -110 q 110 -15 73 -42 q 190 23 146 12 l 233 11 q 150 -63 173 -28 q 127 -127 127 -99 q 141 -164 127 -151 q 176 -176 155 -176 q 219 -171 199 -176 q 260 -155 239 -165 l 260 -231 q 217 -248 241 -241 q 155 -254 194 -254 z "},"Ĩ":{"ha":361,"x_min":-17,"x_max":378,"o":"m 119 0 l 119 913 l 241 913 l 241 0 l 119 0 m -17 1006 q 15 1105 -10 1069 q 92 1142 41 1142 q 146 1133 119 1142 q 198 1112 173 1123 q 238 1096 220 1102 q 271 1090 256 1090 q 298 1103 288 1090 q 312 1145 309 1117 l 378 1145 q 348 1049 372 1085 q 273 1014 323 1014 q 217 1023 243 1014 q 167 1042 191 1032 q 126 1059 144 1053 q 93 1065 109 1065 q 64 1051 75 1065 q 50 1006 53 1037 l -17 1006 z "},"J":{"ha":460,"x_min":25,"x_max":352,"o":"m 25 -7 l 25 97 l 73 97 q 198 139 164 97 q 232 274 232 180 l 232 913 l 352 913 l 352 272 q 325 113 352 175 q 238 22 298 52 q 83 -7 179 -7 l 25 -7 z "},"Ĵ":{"ha":460,"x_min":25,"x_max":495,"o":"m 25 -7 l 25 97 l 73 97 q 198 139 164 97 q 232 274 232 180 l 232 913 l 352 913 l 352 272 q 325 113 352 175 q 238 22 298 52 q 83 -7 179 -7 l 25 -7 m 92 991 l 237 1175 l 350 1175 l 495 991 l 401 991 l 294 1109 l 185 991 l 92 991 z "},"K":{"ha":789,"x_min":119,"x_max":788,"o":"m 119 0 l 119 913 l 241 913 l 241 474 l 616 913 l 756 913 l 377 482 l 788 0 l 638 0 l 241 469 l 241 0 l 119 0 z "},"Ķ":{"ha":789,"x_min":119,"x_max":788,"o":"m 119 0 l 119 913 l 241 913 l 241 474 l 616 913 l 756 913 l 377 482 l 788 0 l 638 0 l 241 469 l 241 0 l 119 0 m 384 -259 l 370 -215 q 413 -192 393 -206 q 439 -157 433 -178 q 397 -137 413 -154 q 380 -98 380 -121 q 398 -57 380 -73 q 448 -40 416 -40 q 498 -59 477 -40 q 519 -113 519 -77 q 479 -208 519 -168 q 384 -259 439 -247 z "},"Ƙ":{"ha":789,"x_min":119,"x_max":788,"o":"m 119 0 l 119 913 l 241 913 l 241 474 l 373 481 l 788 0 l 646 0 l 241 469 l 241 0 l 119 0 m 760 913 l 760 808 l 728 808 q 659 796 690 808 q 595 753 628 784 q 518 665 563 722 l 373 481 l 241 474 l 431 719 q 529 834 488 791 q 612 895 570 876 q 713 913 654 913 l 760 913 z "},"L":{"ha":694,"x_min":119,"x_max":668,"o":"m 119 0 l 119 913 l 241 913 l 241 105 l 668 105 l 668 0 l 119 0 z "},"Ĺ":{"ha":694,"x_min":119,"x_max":668,"o":"m 119 0 l 119 913 l 241 913 l 241 105 l 668 105 l 668 0 l 119 0 m 123 991 l 254 1174 l 385 1174 l 211 991 l 123 991 z "},"Ľ":{"ha":694,"x_min":119,"x_max":668,"o":"m 119 0 l 119 913 l 241 913 l 241 105 l 668 105 l 668 0 l 119 0 m 424 697 l 469 913 l 581 913 l 500 697 l 424 697 z "},"Ļ":{"ha":694,"x_min":119,"x_max":668,"o":"m 119 0 l 119 913 l 241 913 l 241 105 l 668 105 l 668 0 l 119 0 m 347 -259 l 334 -215 q 376 -192 356 -206 q 402 -157 396 -178 q 360 -137 376 -154 q 344 -98 344 -121 q 362 -57 344 -73 q 411 -40 380 -40 q 461 -59 441 -40 q 482 -113 482 -77 q 442 -208 482 -168 q 347 -259 402 -247 z "},"Ŀ":{"ha":694,"x_min":119,"x_max":668,"o":"m 119 0 l 119 913 l 241 913 l 241 105 l 668 105 l 668 0 l 119 0 m 522 427 q 459 451 484 427 q 434 512 434 476 q 459 573 434 549 q 522 597 484 597 q 584 573 559 597 q 608 512 608 549 q 584 451 608 476 q 522 427 559 427 z "},"Ł":{"ha":694,"x_min":0,"x_max":668,"o":"m 0 260 l 0 359 l 427 614 l 427 516 l 0 260 m 119 0 l 119 913 l 241 913 l 241 105 l 668 105 l 668 0 l 119 0 z "},"M":{"ha":1097,"x_min":119,"x_max":977,"o":"m 119 0 l 119 913 l 253 913 l 578 375 l 528 375 l 847 913 l 977 913 l 977 0 l 857 0 l 857 811 l 899 811 l 589 287 l 509 287 l 195 811 l 237 811 l 237 0 l 119 0 z "},"N":{"ha":981,"x_min":119,"x_max":861,"o":"m 119 0 l 119 913 l 244 913 l 745 186 l 745 913 l 861 913 l 861 0 l 736 0 l 235 728 l 235 0 l 119 0 z "},"Ń":{"ha":981,"x_min":119,"x_max":861,"o":"m 119 0 l 119 913 l 244 913 l 745 186 l 745 913 l 861 913 l 861 0 l 736 0 l 235 728 l 235 0 l 119 0 m 448 991 l 579 1174 l 710 1174 l 536 991 l 448 991 z "},"Ň":{"ha":981,"x_min":119,"x_max":861,"o":"m 119 0 l 119 913 l 244 913 l 745 186 l 745 913 l 861 913 l 861 0 l 736 0 l 235 728 l 235 0 l 119 0 m 448 991 l 303 1175 l 397 1175 l 504 1058 l 612 1175 l 707 1175 l 562 991 l 448 991 z "},"Ņ":{"ha":981,"x_min":119,"x_max":861,"o":"m 119 0 l 119 913 l 244 913 l 745 186 l 745 913 l 861 913 l 861 0 l 736 0 l 235 728 l 235 0 l 119 0 m 426 -259 l 412 -215 q 455 -192 435 -206 q 481 -157 475 -178 q 439 -137 455 -154 q 422 -98 422 -121 q 440 -57 422 -73 q 490 -40 458 -40 q 540 -59 519 -40 q 561 -113 561 -77 q 521 -208 561 -168 q 426 -259 481 -247 z "},"Ǹ":{"ha":981,"x_min":119,"x_max":861,"o":"m 119 0 l 119 913 l 244 913 l 745 186 l 745 913 l 861 913 l 861 0 l 736 0 l 235 728 l 235 0 l 119 0 m 475 991 l 300 1174 l 431 1174 l 563 991 l 475 991 z "},"Ñ":{"ha":981,"x_min":119,"x_max":861,"o":"m 119 0 l 119 913 l 244 913 l 745 186 l 745 913 l 861 913 l 861 0 l 736 0 l 235 728 l 235 0 l 119 0 m 308 1006 q 340 1105 315 1069 q 416 1142 366 1142 q 471 1133 444 1142 q 523 1112 498 1123 q 563 1096 545 1102 q 596 1090 581 1090 q 623 1103 612 1090 q 637 1145 634 1117 l 703 1145 q 672 1049 696 1085 q 598 1014 648 1014 q 542 1023 568 1014 q 492 1042 515 1032 q 451 1059 469 1053 q 418 1065 433 1065 q 389 1051 399 1065 q 374 1006 378 1037 l 308 1006 z "},"Ŋ":{"ha":981,"x_min":119,"x_max":861,"o":"m 119 0 l 119 913 l 244 913 l 745 209 l 745 913 l 861 913 l 861 38 l 740 17 l 235 728 l 235 0 l 119 0 m 533 -243 l 533 -139 l 581 -139 q 706 -97 672 -139 q 739 41 739 -55 l 861 38 q 798 -176 861 -109 q 591 -243 734 -243 l 533 -243 z "},"O":{"ha":1017,"x_min":73,"x_max":943,"o":"m 509 -12 q 269 47 366 -12 q 122 212 172 107 q 73 456 73 317 q 122 700 73 594 q 269 865 172 806 q 509 925 366 925 q 748 865 652 925 q 893 700 844 806 q 943 456 943 594 q 893 212 943 317 q 748 47 844 107 q 509 -12 652 -12 m 509 87 q 686 137 618 87 q 786 270 754 186 q 817 456 817 354 q 786 642 817 558 q 686 775 754 726 q 509 825 618 825 q 331 775 399 825 q 231 642 262 726 q 200 456 200 558 q 231 270 200 354 q 331 137 262 186 q 509 87 399 87 z "},"Ó":{"ha":1017,"x_min":73,"x_max":943,"o":"m 509 -12 q 269 47 366 -12 q 122 212 172 107 q 73 456 73 317 q 122 700 73 594 q 269 865 172 806 q 509 925 366 925 q 748 865 652 925 q 893 700 844 806 q 943 456 943 594 q 893 212 943 317 q 748 47 844 107 q 509 -12 652 -12 m 509 87 q 686 137 618 87 q 786 270 754 186 q 817 456 817 354 q 786 642 817 558 q 686 775 754 726 q 509 825 618 825 q 331 775 399 825 q 231 642 262 726 q 200 456 200 558 q 231 270 200 354 q 331 137 262 186 q 509 87 399 87 m 451 991 l 583 1174 l 713 1174 l 539 991 l 451 991 z "},"Ŏ":{"ha":1017,"x_min":73,"x_max":943,"o":"m 509 -12 q 269 47 366 -12 q 122 212 172 107 q 73 456 73 317 q 122 700 73 594 q 269 865 172 806 q 509 925 366 925 q 748 865 652 925 q 893 700 844 806 q 943 456 943 594 q 893 212 943 317 q 748 47 844 107 q 509 -12 652 -12 m 509 87 q 686 137 618 87 q 786 270 754 186 q 817 456 817 354 q 786 642 817 558 q 686 775 754 726 q 509 825 618 825 q 331 775 399 825 q 231 642 262 726 q 200 456 200 558 q 231 270 200 354 q 331 137 262 186 q 509 87 399 87 m 507 1004 q 410 1025 452 1004 q 344 1083 368 1045 q 316 1174 319 1120 l 387 1174 q 408 1117 390 1139 q 452 1084 426 1095 q 507 1074 478 1074 q 562 1085 536 1074 q 606 1118 588 1096 q 629 1174 625 1141 l 702 1174 q 670 1083 696 1122 q 603 1025 645 1045 q 507 1004 562 1004 z "},"Ô":{"ha":1017,"x_min":73,"x_max":943,"o":"m 509 -12 q 269 47 366 -12 q 122 212 172 107 q 73 456 73 317 q 122 700 73 594 q 269 865 172 806 q 509 925 366 925 q 748 865 652 925 q 893 700 844 806 q 943 456 943 594 q 893 212 943 317 q 748 47 844 107 q 509 -12 652 -12 m 509 87 q 686 137 618 87 q 786 270 754 186 q 817 456 817 354 q 786 642 817 558 q 686 775 754 726 q 509 825 618 825 q 331 775 399 825 q 231 642 262 726 q 200 456 200 558 q 231 270 200 354 q 331 137 262 186 q 509 87 399 87 m 307 991 l 452 1175 l 565 1175 l 710 991 l 616 991 l 509 1109 l 400 991 l 307 991 z "},"Ố":{"ha":1017,"x_min":73,"x_max":943,"o":"m 509 -12 q 269 47 366 -12 q 122 212 172 107 q 73 456 73 317 q 122 700 73 594 q 269 865 172 806 q 509 925 366 925 q 748 865 652 925 q 893 700 844 806 q 943 456 943 594 q 893 212 943 317 q 748 47 844 107 q 509 -12 652 -12 m 509 87 q 686 137 618 87 q 786 270 754 186 q 817 456 817 354 q 786 642 817 558 q 686 775 754 726 q 509 825 618 825 q 331 775 399 825 q 231 642 262 726 q 200 456 200 558 q 231 270 200 354 q 331 137 262 186 q 509 87 399 87 m 303 991 l 448 1175 l 562 1175 l 707 991 l 613 991 l 506 1109 l 397 991 l 303 991 m 636 1105 l 747 1288 l 871 1288 l 718 1105 l 636 1105 z "},"Ộ":{"ha":1017,"x_min":73,"x_max":943,"o":"m 509 -12 q 269 47 366 -12 q 122 212 172 107 q 73 456 73 317 q 122 700 73 594 q 269 865 172 806 q 509 925 366 925 q 748 865 652 925 q 893 700 844 806 q 943 456 943 594 q 893 212 943 317 q 748 47 844 107 q 509 -12 652 -12 m 509 87 q 686 137 618 87 q 786 270 754 186 q 817 456 817 354 q 786 642 817 558 q 686 775 754 726 q 509 825 618 825 q 331 775 399 825 q 231 642 262 726 q 200 456 200 558 q 231 270 200 354 q 331 137 262 186 q 509 87 399 87 m 509 -197 q 457 -179 477 -197 q 437 -132 437 -160 q 457 -84 437 -103 q 509 -66 477 -66 q 560 -84 541 -66 q 580 -132 580 -103 q 560 -179 580 -160 q 509 -197 541 -197 m 307 991 l 452 1175 l 565 1175 l 710 991 l 616 991 l 509 1109 l 400 991 l 307 991 z "},"Ồ":{"ha":1017,"x_min":73,"x_max":943,"o":"m 509 -12 q 269 47 366 -12 q 122 212 172 107 q 73 456 73 317 q 122 700 73 594 q 269 865 172 806 q 509 925 366 925 q 748 865 652 925 q 893 700 844 806 q 943 456 943 594 q 893 212 943 317 q 748 47 844 107 q 509 -12 652 -12 m 509 87 q 686 137 618 87 q 786 270 754 186 q 817 456 817 354 q 786 642 817 558 q 686 775 754 726 q 509 825 618 825 q 331 775 399 825 q 231 642 262 726 q 200 456 200 558 q 231 270 200 354 q 331 137 262 186 q 509 87 399 87 m 303 991 l 448 1175 l 562 1175 l 707 991 l 613 991 l 506 1109 l 397 991 l 303 991 m 372 1105 l 291 1105 l 137 1288 l 262 1288 l 372 1105 z "},"Ổ":{"ha":1017,"x_min":73,"x_max":943,"o":"m 509 -12 q 269 47 366 -12 q 122 212 172 107 q 73 456 73 317 q 122 700 73 594 q 269 865 172 806 q 509 925 366 925 q 748 865 652 925 q 893 700 844 806 q 943 456 943 594 q 893 212 943 317 q 748 47 844 107 q 509 -12 652 -12 m 509 87 q 686 137 618 87 q 786 270 754 186 q 817 456 817 354 q 786 642 817 558 q 686 775 754 726 q 509 825 618 825 q 331 775 399 825 q 231 642 262 726 q 200 456 200 558 q 231 270 200 354 q 331 137 262 186 q 509 87 399 87 m 303 991 l 448 1175 l 562 1175 l 707 991 l 613 991 l 506 1109 l 397 991 l 303 991 m 667 1103 l 639 1145 q 682 1168 663 1152 q 701 1208 701 1184 q 684 1242 701 1234 q 633 1250 666 1250 l 625 1250 l 625 1318 l 647 1318 q 753 1295 718 1318 q 789 1223 789 1271 q 755 1142 789 1173 q 667 1103 722 1112 z "},"Ỗ":{"ha":1017,"x_min":73,"x_max":943,"o":"m 509 -12 q 269 47 366 -12 q 122 212 172 107 q 73 456 73 317 q 122 700 73 594 q 269 865 172 806 q 509 925 366 925 q 748 865 652 925 q 893 700 844 806 q 943 456 943 594 q 893 212 943 317 q 748 47 844 107 q 509 -12 652 -12 m 509 87 q 686 137 618 87 q 786 270 754 186 q 817 456 817 354 q 786 642 817 558 q 686 775 754 726 q 509 825 618 825 q 331 775 399 825 q 231 642 262 726 q 200 456 200 558 q 231 270 200 354 q 331 137 262 186 q 509 87 399 87 m 303 991 l 448 1173 l 562 1173 l 707 991 l 613 991 l 506 1107 l 397 991 l 303 991 m 296 1217 q 332 1314 303 1278 q 418 1350 361 1350 q 470 1341 444 1350 q 524 1320 496 1332 q 565 1304 547 1310 q 597 1298 583 1298 q 634 1312 620 1298 q 652 1353 648 1325 l 718 1353 q 683 1260 711 1295 q 600 1225 656 1225 q 543 1234 570 1225 q 494 1253 516 1243 q 452 1270 469 1264 q 420 1276 435 1276 q 381 1262 396 1276 q 362 1217 366 1249 l 296 1217 z "},"Ö":{"ha":1017,"x_min":73,"x_max":943,"o":"m 509 -12 q 269 47 366 -12 q 122 212 172 107 q 73 456 73 317 q 122 700 73 594 q 269 865 172 806 q 509 925 366 925 q 748 865 652 925 q 893 700 844 806 q 943 456 943 594 q 893 212 943 317 q 748 47 844 107 q 509 -12 652 -12 m 509 87 q 686 137 618 87 q 786 270 754 186 q 817 456 817 354 q 786 642 817 558 q 686 775 754 726 q 509 825 618 825 q 331 775 399 825 q 231 642 262 726 q 200 456 200 558 q 231 270 200 354 q 331 137 262 186 q 509 87 399 87 m 628 1024 q 583 1041 601 1024 q 565 1085 565 1058 q 583 1129 565 1112 q 628 1147 601 1147 q 673 1129 655 1147 q 692 1085 692 1112 q 673 1041 692 1058 q 628 1024 655 1024 m 389 1024 q 344 1041 363 1024 q 326 1085 326 1058 q 344 1129 326 1112 q 389 1147 363 1147 q 435 1129 416 1147 q 453 1085 453 1112 q 435 1041 453 1058 q 389 1024 416 1024 z "},"Ọ":{"ha":1017,"x_min":73,"x_max":943,"o":"m 509 -12 q 269 47 366 -12 q 122 212 172 107 q 73 456 73 317 q 122 700 73 594 q 269 865 172 806 q 509 925 366 925 q 748 865 652 925 q 893 700 844 806 q 943 456 943 594 q 893 212 943 317 q 748 47 844 107 q 509 -12 652 -12 m 509 87 q 686 137 618 87 q 786 270 754 186 q 817 456 817 354 q 786 642 817 558 q 686 775 754 726 q 509 825 618 825 q 331 775 399 825 q 231 642 262 726 q 200 456 200 558 q 231 270 200 354 q 331 137 262 186 q 509 87 399 87 m 509 -197 q 457 -179 477 -197 q 437 -132 437 -160 q 457 -84 437 -103 q 509 -66 477 -66 q 560 -84 541 -66 q 580 -132 580 -103 q 560 -179 580 -160 q 509 -197 541 -197 z "},"Ò":{"ha":1017,"x_min":73,"x_max":943,"o":"m 509 -12 q 269 47 366 -12 q 122 212 172 107 q 73 456 73 317 q 122 700 73 594 q 269 865 172 806 q 509 925 366 925 q 748 865 652 925 q 893 700 844 806 q 943 456 943 594 q 893 212 943 317 q 748 47 844 107 q 509 -12 652 -12 m 509 87 q 686 137 618 87 q 786 270 754 186 q 817 456 817 354 q 786 642 817 558 q 686 775 754 726 q 509 825 618 825 q 331 775 399 825 q 231 642 262 726 q 200 456 200 558 q 231 270 200 354 q 331 137 262 186 q 509 87 399 87 m 478 991 l 304 1174 l 435 1174 l 566 991 l 478 991 z "},"Ỏ":{"ha":1017,"x_min":73,"x_max":943,"o":"m 509 -12 q 269 47 366 -12 q 122 212 172 107 q 73 456 73 317 q 122 700 73 594 q 269 865 172 806 q 509 925 366 925 q 748 865 652 925 q 893 700 844 806 q 943 456 943 594 q 893 212 943 317 q 748 47 844 107 q 509 -12 652 -12 m 509 87 q 686 137 618 87 q 786 270 754 186 q 817 456 817 354 q 786 642 817 558 q 686 775 754 726 q 509 825 618 825 q 331 775 399 825 q 231 642 262 726 q 200 456 200 558 q 231 270 200 354 q 331 137 262 186 q 509 87 399 87 m 484 1021 l 454 1074 q 497 1093 478 1080 q 517 1126 517 1105 q 499 1160 517 1152 q 448 1168 482 1168 l 439 1168 l 439 1237 l 463 1237 q 583 1213 543 1237 q 623 1137 623 1188 q 584 1059 623 1089 q 484 1021 545 1029 m 454 1074 l 530 1065 l 530 991 l 454 991 l 454 1074 z "},"Ơ":{"ha":1065,"x_min":73,"x_max":1090,"o":"m 894 676 l 868 730 q 956 781 921 751 q 995 854 990 812 l 1002 848 q 944 870 967 848 q 921 925 921 892 q 944 982 921 961 q 1004 1004 967 1004 q 1066 979 1042 1004 q 1090 903 1090 954 q 1075 825 1090 861 q 1033 760 1060 789 q 971 710 1006 731 q 894 676 935 689 m 509 -12 q 269 47 366 -12 q 122 212 172 107 q 73 456 73 317 q 122 700 73 594 q 269 865 172 806 q 509 925 366 925 q 748 865 652 925 q 893 700 844 806 q 943 456 943 594 q 893 212 943 317 q 748 47 844 107 q 509 -12 652 -12 m 509 87 q 686 137 618 87 q 786 270 754 186 q 817 456 817 354 q 786 642 817 558 q 686 775 754 726 q 509 825 618 825 q 331 775 399 825 q 231 642 262 726 q 200 456 200 558 q 231 270 200 354 q 331 137 262 186 q 509 87 399 87 z "},"Ớ":{"ha":1065,"x_min":73,"x_max":1090,"o":"m 894 676 l 868 730 q 956 781 921 751 q 995 854 990 812 l 1002 848 q 944 870 967 848 q 921 925 921 892 q 944 982 921 961 q 1004 1004 967 1004 q 1066 979 1042 1004 q 1090 903 1090 954 q 1075 825 1090 861 q 1033 760 1060 789 q 971 710 1006 731 q 894 676 935 689 m 509 -12 q 269 47 366 -12 q 122 212 172 107 q 73 456 73 317 q 122 700 73 594 q 269 865 172 806 q 509 925 366 925 q 748 865 652 925 q 893 700 844 806 q 943 456 943 594 q 893 212 943 317 q 748 47 844 107 q 509 -12 652 -12 m 509 87 q 686 137 618 87 q 786 270 754 186 q 817 456 817 354 q 786 642 817 558 q 686 775 754 726 q 509 825 618 825 q 331 775 399 825 q 231 642 262 726 q 200 456 200 558 q 231 270 200 354 q 331 137 262 186 q 509 87 399 87 m 451 991 l 583 1174 l 713 1174 l 539 991 l 451 991 z "},"Ợ":{"ha":1065,"x_min":73,"x_max":1090,"o":"m 894 676 l 868 730 q 956 781 921 751 q 995 854 990 812 l 1002 848 q 944 870 967 848 q 921 925 921 892 q 944 982 921 961 q 1004 1004 967 1004 q 1066 979 1042 1004 q 1090 903 1090 954 q 1075 825 1090 861 q 1033 760 1060 789 q 971 710 1006 731 q 894 676 935 689 m 509 -12 q 269 47 366 -12 q 122 212 172 107 q 73 456 73 317 q 122 700 73 594 q 269 865 172 806 q 509 925 366 925 q 748 865 652 925 q 893 700 844 806 q 943 456 943 594 q 893 212 943 317 q 748 47 844 107 q 509 -12 652 -12 m 509 87 q 686 137 618 87 q 786 270 754 186 q 817 456 817 354 q 786 642 817 558 q 686 775 754 726 q 509 825 618 825 q 331 775 399 825 q 231 642 262 726 q 200 456 200 558 q 231 270 200 354 q 331 137 262 186 q 509 87 399 87 m 509 -197 q 457 -179 477 -197 q 437 -132 437 -160 q 457 -84 437 -103 q 509 -66 477 -66 q 560 -84 541 -66 q 580 -132 580 -103 q 560 -179 580 -160 q 509 -197 541 -197 z "},"Ờ":{"ha":1065,"x_min":73,"x_max":1090,"o":"m 894 676 l 868 730 q 956 781 921 751 q 995 854 990 812 l 1002 848 q 944 870 967 848 q 921 925 921 892 q 944 982 921 961 q 1004 1004 967 1004 q 1066 979 1042 1004 q 1090 903 1090 954 q 1075 825 1090 861 q 1033 760 1060 789 q 971 710 1006 731 q 894 676 935 689 m 509 -12 q 269 47 366 -12 q 122 212 172 107 q 73 456 73 317 q 122 700 73 594 q 269 865 172 806 q 509 925 366 925 q 748 865 652 925 q 893 700 844 806 q 943 456 943 594 q 893 212 943 317 q 748 47 844 107 q 509 -12 652 -12 m 509 87 q 686 137 618 87 q 786 270 754 186 q 817 456 817 354 q 786 642 817 558 q 686 775 754 726 q 509 825 618 825 q 331 775 399 825 q 231 642 262 726 q 200 456 200 558 q 231 270 200 354 q 331 137 262 186 q 509 87 399 87 m 478 991 l 304 1174 l 435 1174 l 566 991 l 478 991 z "},"Ở":{"ha":1065,"x_min":73,"x_max":1090,"o":"m 894 676 l 868 730 q 956 781 921 751 q 995 854 990 812 l 1002 848 q 944 870 967 848 q 921 925 921 892 q 944 982 921 961 q 1004 1004 967 1004 q 1066 979 1042 1004 q 1090 903 1090 954 q 1075 825 1090 861 q 1033 760 1060 789 q 971 710 1006 731 q 894 676 935 689 m 509 -12 q 269 47 366 -12 q 122 212 172 107 q 73 456 73 317 q 122 700 73 594 q 269 865 172 806 q 509 925 366 925 q 748 865 652 925 q 893 700 844 806 q 943 456 943 594 q 893 212 943 317 q 748 47 844 107 q 509 -12 652 -12 m 509 87 q 686 137 618 87 q 786 270 754 186 q 817 456 817 354 q 786 642 817 558 q 686 775 754 726 q 509 825 618 825 q 331 775 399 825 q 231 642 262 726 q 200 456 200 558 q 231 270 200 354 q 331 137 262 186 q 509 87 399 87 m 484 1021 l 454 1074 q 497 1093 478 1080 q 517 1126 517 1105 q 499 1160 517 1152 q 448 1168 482 1168 l 439 1168 l 439 1237 l 463 1237 q 583 1213 543 1237 q 623 1137 623 1188 q 584 1059 623 1089 q 484 1021 545 1029 m 454 1074 l 530 1065 l 530 991 l 454 991 l 454 1074 z "},"Ỡ":{"ha":1065,"x_min":73,"x_max":1090,"o":"m 894 676 l 868 730 q 956 781 921 751 q 995 854 990 812 l 1002 848 q 944 870 967 848 q 921 925 921 892 q 944 982 921 961 q 1004 1004 967 1004 q 1066 979 1042 1004 q 1090 903 1090 954 q 1075 825 1090 861 q 1033 760 1060 789 q 971 710 1006 731 q 894 676 935 689 m 509 -12 q 269 47 366 -12 q 122 212 172 107 q 73 456 73 317 q 122 700 73 594 q 269 865 172 806 q 509 925 366 925 q 748 865 652 925 q 893 700 844 806 q 943 456 943 594 q 893 212 943 317 q 748 47 844 107 q 509 -12 652 -12 m 509 87 q 686 137 618 87 q 786 270 754 186 q 817 456 817 354 q 786 642 817 558 q 686 775 754 726 q 509 825 618 825 q 331 775 399 825 q 231 642 262 726 q 200 456 200 558 q 231 270 200 354 q 331 137 262 186 q 509 87 399 87 m 311 1006 q 343 1105 318 1069 q 420 1142 369 1142 q 474 1133 448 1142 q 526 1112 501 1123 q 567 1096 549 1102 q 600 1090 585 1090 q 627 1103 616 1090 q 640 1145 637 1117 l 707 1145 q 676 1049 700 1085 q 602 1014 652 1014 q 545 1023 572 1014 q 495 1042 519 1032 q 454 1059 472 1053 q 421 1065 437 1065 q 392 1051 403 1065 q 378 1006 381 1037 l 311 1006 z "},"Ő":{"ha":1017,"x_min":73,"x_max":943,"o":"m 509 -12 q 269 47 366 -12 q 122 212 172 107 q 73 456 73 317 q 122 700 73 594 q 269 865 172 806 q 509 925 366 925 q 748 865 652 925 q 893 700 844 806 q 943 456 943 594 q 893 212 943 317 q 748 47 844 107 q 509 -12 652 -12 m 509 87 q 686 137 618 87 q 786 270 754 186 q 817 456 817 354 q 786 642 817 558 q 686 775 754 726 q 509 825 618 825 q 331 775 399 825 q 231 642 262 726 q 200 456 200 558 q 231 270 200 354 q 331 137 262 186 q 509 87 399 87 m 536 991 l 654 1175 l 771 1175 l 617 991 l 536 991 m 342 991 l 460 1175 l 576 1175 l 422 991 l 342 991 z "},"Ō":{"ha":1017,"x_min":73,"x_max":943,"o":"m 509 -12 q 269 47 366 -12 q 122 212 172 107 q 73 456 73 317 q 122 700 73 594 q 269 865 172 806 q 509 925 366 925 q 748 865 652 925 q 893 700 844 806 q 943 456 943 594 q 893 212 943 317 q 748 47 844 107 q 509 -12 652 -12 m 509 87 q 686 137 618 87 q 786 270 754 186 q 817 456 817 354 q 786 642 817 558 q 686 775 754 726 q 509 825 618 825 q 331 775 399 825 q 231 642 262 726 q 200 456 200 558 q 231 270 200 354 q 331 137 262 186 q 509 87 399 87 m 324 1034 l 324 1117 l 694 1117 l 694 1034 l 324 1034 z "},"Ǫ":{"ha":1017,"x_min":73,"x_max":943,"o":"m 509 -12 q 269 47 366 -12 q 122 212 172 107 q 73 456 73 317 q 122 700 73 594 q 269 865 172 806 q 509 925 366 925 q 748 865 652 925 q 893 700 844 806 q 943 456 943 594 q 893 212 943 317 q 748 47 844 107 q 509 -12 652 -12 m 509 87 q 686 137 618 87 q 786 270 754 186 q 817 456 817 354 q 786 642 817 558 q 686 775 754 726 q 509 825 618 825 q 331 775 399 825 q 231 642 262 726 q 200 456 200 558 q 231 270 200 354 q 331 137 262 186 q 509 87 399 87 m 591 -254 q 504 -225 540 -254 q 467 -144 467 -196 q 489 -76 467 -110 q 546 -15 510 -42 q 627 23 583 12 l 669 11 q 587 -63 610 -28 q 564 -127 564 -99 q 577 -164 564 -151 q 612 -176 591 -176 q 655 -171 635 -176 q 697 -155 675 -165 l 697 -231 q 654 -248 677 -241 q 591 -254 631 -254 z "},"Ɔ":{"ha":962,"x_min":69,"x_max":888,"o":"m 453 -12 q 268 23 351 -12 q 133 129 185 58 q 69 308 81 200 l 193 308 q 273 144 204 199 q 453 89 342 89 q 632 138 564 89 q 731 271 700 187 q 762 456 762 354 q 731 642 762 558 q 632 775 700 725 q 453 825 564 825 q 335 804 391 825 q 242 738 279 782 q 196 625 205 693 l 74 625 q 139 793 83 726 q 277 892 194 860 q 453 925 359 925 q 692 865 595 925 q 839 700 789 806 q 888 456 888 594 q 839 212 888 317 q 692 47 789 107 q 453 -12 595 -12 z "},"Ø":{"ha":1017,"x_min":73,"x_max":943,"o":"m 138 -44 l 73 11 l 880 956 l 943 901 l 138 -44 m 509 -12 q 269 47 366 -12 q 122 212 172 107 q 73 456 73 317 q 122 700 73 594 q 269 865 172 806 q 509 925 366 925 q 748 865 652 925 q 893 700 844 806 q 943 456 943 594 q 893 212 943 317 q 748 47 844 107 q 509 -12 652 -12 m 509 86 q 687 136 619 86 q 787 270 755 186 q 818 456 818 353 q 787 643 818 559 q 687 776 755 726 q 509 826 619 826 q 330 776 398 826 q 230 643 261 726 q 199 456 199 559 q 230 270 199 353 q 330 136 261 186 q 509 86 398 86 z "},"Ǿ":{"ha":1017,"x_min":73,"x_max":943,"o":"m 138 -44 l 73 11 l 880 956 l 943 901 l 138 -44 m 509 -12 q 269 47 366 -12 q 122 212 172 107 q 73 456 73 317 q 122 700 73 594 q 269 865 172 806 q 509 925 366 925 q 748 865 652 925 q 893 700 844 806 q 943 456 943 594 q 893 212 943 317 q 748 47 844 107 q 509 -12 652 -12 m 509 86 q 687 136 619 86 q 787 270 755 186 q 818 456 818 353 q 787 643 818 559 q 687 776 755 726 q 509 826 619 826 q 330 776 398 826 q 230 643 261 726 q 199 456 199 559 q 230 270 199 353 q 330 136 261 186 q 509 86 398 86 m 451 991 l 583 1174 l 713 1174 l 539 991 l 451 991 z "},"Õ":{"ha":1017,"x_min":73,"x_max":943,"o":"m 509 -12 q 269 47 366 -12 q 122 212 172 107 q 73 456 73 317 q 122 700 73 594 q 269 865 172 806 q 509 925 366 925 q 748 865 652 925 q 893 700 844 806 q 943 456 943 594 q 893 212 943 317 q 748 47 844 107 q 509 -12 652 -12 m 509 87 q 686 137 618 87 q 786 270 754 186 q 817 456 817 354 q 786 642 817 558 q 686 775 754 726 q 509 825 618 825 q 331 775 399 825 q 231 642 262 726 q 200 456 200 558 q 231 270 200 354 q 331 137 262 186 q 509 87 399 87 m 311 1006 q 343 1105 318 1069 q 420 1142 369 1142 q 474 1133 448 1142 q 526 1112 501 1123 q 567 1096 549 1102 q 600 1090 585 1090 q 627 1103 616 1090 q 640 1145 637 1117 l 707 1145 q 676 1049 700 1085 q 602 1014 652 1014 q 545 1023 572 1014 q 495 1042 519 1032 q 454 1059 472 1053 q 421 1065 437 1065 q 392 1051 403 1065 q 378 1006 381 1037 l 311 1006 z "},"Œ":{"ha":1472,"x_min":73,"x_max":1402,"o":"m 503 -12 q 267 47 363 -12 q 122 212 171 106 q 73 456 73 317 q 122 700 73 594 q 267 865 171 806 q 503 925 363 925 q 685 891 610 925 q 807 794 760 857 q 876 646 854 732 q 898 456 898 559 q 876 267 898 353 q 807 118 854 180 q 685 22 760 56 q 503 -12 610 -12 m 511 87 q 689 137 621 87 q 788 270 756 186 q 819 456 819 354 q 788 642 819 558 q 689 775 756 726 q 511 825 621 825 q 332 775 401 825 q 233 642 264 726 q 201 456 201 558 q 233 270 201 354 q 332 137 264 186 q 511 87 401 87 m 820 0 l 820 913 l 1402 913 l 1402 811 l 941 811 l 941 520 l 1365 520 l 1365 420 l 941 420 l 941 102 l 1402 102 l 1402 0 l 820 0 z "},"P":{"ha":802,"x_min":119,"x_max":748,"o":"m 119 0 l 119 913 l 449 913 q 602 881 534 913 q 709 786 669 848 q 748 632 748 723 q 709 483 748 543 q 602 391 669 422 q 449 360 534 360 l 241 360 l 241 0 l 119 0 m 241 461 l 439 461 q 573 504 522 461 q 625 632 625 546 q 573 768 625 724 q 439 812 522 812 l 241 812 l 241 461 z "},"Þ":{"ha":802,"x_min":119,"x_max":748,"o":"m 119 180 l 119 281 l 439 281 q 573 323 522 281 q 625 452 625 366 q 573 587 625 543 q 439 631 522 631 l 119 631 l 119 732 l 449 732 q 602 700 534 732 q 709 606 669 668 q 748 452 748 543 q 709 303 748 363 q 602 212 669 243 q 449 180 534 180 l 119 180 m 119 0 l 119 913 l 241 913 l 241 0 l 119 0 z "},"Q":{"ha":1017,"x_min":73,"x_max":943,"o":"m 854 -199 q 714 -183 770 -199 q 622 -138 658 -167 q 562 -68 586 -109 q 517 20 538 -28 l 610 47 q 649 -16 631 10 q 693 -59 667 -42 q 759 -83 718 -75 q 863 -91 799 -91 l 900 -91 l 900 -199 l 854 -199 m 509 -12 q 269 47 366 -12 q 122 212 172 107 q 73 456 73 317 q 122 700 73 594 q 269 865 172 806 q 509 925 366 925 q 748 865 652 925 q 893 700 844 806 q 943 456 943 594 q 893 212 943 317 q 748 47 844 107 q 509 -12 652 -12 m 509 87 q 686 137 618 87 q 786 270 754 186 q 817 456 817 354 q 786 642 817 558 q 686 775 754 726 q 509 825 618 825 q 331 775 399 825 q 231 642 262 726 q 200 456 200 558 q 231 270 200 354 q 331 137 262 186 q 509 87 399 87 z "},"R":{"ha":842,"x_min":119,"x_max":798,"o":"m 119 0 l 119 913 l 465 913 q 609 888 544 913 q 712 809 673 863 q 751 670 751 755 q 702 522 751 583 q 560 439 654 461 q 645 406 612 432 q 700 337 678 380 q 739 229 722 293 l 798 0 l 673 0 l 621 210 q 589 306 608 266 q 539 366 570 345 q 456 387 508 387 l 241 387 l 241 0 l 119 0 m 241 488 l 449 488 q 540 507 499 488 q 605 562 581 526 q 629 649 629 598 q 584 768 629 726 q 452 811 538 811 l 241 811 l 241 488 z "},"Ŕ":{"ha":842,"x_min":119,"x_max":798,"o":"m 119 0 l 119 913 l 465 913 q 609 888 544 913 q 712 809 673 863 q 751 670 751 755 q 702 522 751 583 q 560 439 654 461 q 645 406 612 432 q 700 337 678 380 q 739 229 722 293 l 798 0 l 673 0 l 621 210 q 589 306 608 266 q 539 366 570 345 q 456 387 508 387 l 241 387 l 241 0 l 119 0 m 241 488 l 449 488 q 540 507 499 488 q 605 562 581 526 q 629 649 629 598 q 584 768 629 726 q 452 811 538 811 l 241 811 l 241 488 m 363 991 l 494 1174 l 625 1174 l 451 991 l 363 991 z "},"Ř":{"ha":842,"x_min":119,"x_max":798,"o":"m 119 0 l 119 913 l 465 913 q 609 888 544 913 q 712 809 673 863 q 751 670 751 755 q 702 522 751 583 q 560 439 654 461 q 645 406 612 432 q 700 337 678 380 q 739 229 722 293 l 798 0 l 673 0 l 621 210 q 589 306 608 266 q 539 366 570 345 q 456 387 508 387 l 241 387 l 241 0 l 119 0 m 241 488 l 449 488 q 540 507 499 488 q 605 562 581 526 q 629 649 629 598 q 584 768 629 726 q 452 811 538 811 l 241 811 l 241 488 m 363 991 l 218 1175 l 312 1175 l 419 1058 l 528 1175 l 622 1175 l 477 991 l 363 991 z "},"Ŗ":{"ha":842,"x_min":119,"x_max":798,"o":"m 119 0 l 119 913 l 465 913 q 609 888 544 913 q 712 809 673 863 q 751 670 751 755 q 702 522 751 583 q 560 439 654 461 q 645 406 612 432 q 700 337 678 380 q 739 229 722 293 l 798 0 l 673 0 l 621 210 q 589 306 608 266 q 539 366 570 345 q 456 387 508 387 l 241 387 l 241 0 l 119 0 m 241 488 l 449 488 q 540 507 499 488 q 605 562 581 526 q 629 649 629 598 q 584 768 629 726 q 452 811 538 811 l 241 811 l 241 488 m 399 -259 l 386 -215 q 428 -192 408 -206 q 454 -157 448 -178 q 412 -137 429 -154 q 396 -98 396 -121 q 414 -57 396 -73 q 463 -40 432 -40 q 514 -59 493 -40 q 534 -113 534 -77 q 494 -208 534 -168 q 399 -259 454 -247 z "},"S":{"ha":786,"x_min":52,"x_max":735,"o":"m 399 -12 q 223 18 302 -12 q 98 111 144 47 q 52 277 52 175 l 174 277 q 206 163 174 204 q 290 104 237 121 q 404 87 342 87 q 510 105 462 87 q 586 157 557 122 q 614 247 614 192 q 592 325 614 294 q 518 378 570 355 q 378 423 466 401 q 209 483 275 450 q 110 563 142 515 q 78 685 78 611 q 115 816 78 763 q 220 897 151 869 q 382 925 288 925 q 544 897 471 925 q 661 811 617 868 q 705 669 705 754 l 583 669 q 526 786 583 747 q 383 826 468 826 q 247 791 296 826 q 199 689 199 756 q 220 622 199 649 q 292 574 241 595 q 435 528 343 552 q 607 467 541 500 q 704 384 673 435 q 735 250 735 333 q 691 104 735 162 q 571 17 647 46 q 399 -12 495 -12 z "},"Ś":{"ha":786,"x_min":52,"x_max":735,"o":"m 399 -12 q 223 18 302 -12 q 98 111 144 47 q 52 277 52 175 l 174 277 q 206 163 174 204 q 290 104 237 121 q 404 87 342 87 q 510 105 462 87 q 586 157 557 122 q 614 247 614 192 q 592 325 614 294 q 518 378 570 355 q 378 423 466 401 q 209 483 275 450 q 110 563 142 515 q 78 685 78 611 q 115 816 78 763 q 220 897 151 869 q 382 925 288 925 q 544 897 471 925 q 661 811 617 868 q 705 669 705 754 l 583 669 q 526 786 583 747 q 383 826 468 826 q 247 791 296 826 q 199 689 199 756 q 220 622 199 649 q 292 574 241 595 q 435 528 343 552 q 607 467 541 500 q 704 384 673 435 q 735 250 735 333 q 691 104 735 162 q 571 17 647 46 q 399 -12 495 -12 m 336 991 l 467 1174 l 598 1174 l 424 991 l 336 991 z "},"Š":{"ha":786,"x_min":52,"x_max":735,"o":"m 399 -12 q 223 18 302 -12 q 98 111 144 47 q 52 277 52 175 l 174 277 q 206 163 174 204 q 290 104 237 121 q 404 87 342 87 q 510 105 462 87 q 586 157 557 122 q 614 247 614 192 q 592 325 614 294 q 518 378 570 355 q 378 423 466 401 q 209 483 275 450 q 110 563 142 515 q 78 685 78 611 q 115 816 78 763 q 220 897 151 869 q 382 925 288 925 q 544 897 471 925 q 661 811 617 868 q 705 669 705 754 l 583 669 q 526 786 583 747 q 383 826 468 826 q 247 791 296 826 q 199 689 199 756 q 220 622 199 649 q 292 574 241 595 q 435 528 343 552 q 607 467 541 500 q 704 384 673 435 q 735 250 735 333 q 691 104 735 162 q 571 17 647 46 q 399 -12 495 -12 m 336 991 l 191 1175 l 285 1175 l 392 1058 l 500 1175 l 595 1175 l 450 991 l 336 991 z "},"Ş":{"ha":786,"x_min":52,"x_max":735,"o":"m 399 -12 q 223 18 302 -12 q 98 111 144 47 q 52 277 52 175 l 174 277 q 206 163 174 204 q 290 104 237 121 q 404 87 342 87 q 510 105 462 87 q 586 157 557 122 q 614 247 614 192 q 592 325 614 294 q 518 378 570 355 q 378 423 466 401 q 209 483 275 450 q 110 563 142 515 q 78 685 78 611 q 115 816 78 763 q 220 897 151 869 q 382 925 288 925 q 544 897 471 925 q 661 811 617 868 q 705 669 705 754 l 583 669 q 526 786 583 747 q 383 826 468 826 q 247 791 296 826 q 199 689 199 756 q 220 622 199 649 q 292 574 241 595 q 435 528 343 552 q 607 467 541 500 q 704 384 673 435 q 735 250 735 333 q 691 104 735 162 q 571 17 647 46 q 399 -12 495 -12 m 402 -259 q 334 -253 363 -259 q 279 -236 305 -246 l 298 -173 q 343 -187 315 -181 q 398 -193 370 -193 q 439 -181 422 -193 q 456 -149 456 -170 q 435 -113 456 -125 q 359 -95 413 -101 l 330 -92 l 419 28 l 474 3 l 428 -60 l 408 -44 q 506 -73 471 -47 q 541 -146 541 -98 q 523 -209 541 -184 q 473 -247 505 -234 q 402 -259 442 -259 z "},"Ŝ":{"ha":786,"x_min":52,"x_max":735,"o":"m 399 -12 q 223 18 302 -12 q 98 111 144 47 q 52 277 52 175 l 174 277 q 206 163 174 204 q 290 104 237 121 q 404 87 342 87 q 510 105 462 87 q 586 157 557 122 q 614 247 614 192 q 592 325 614 294 q 518 378 570 355 q 378 423 466 401 q 209 483 275 450 q 110 563 142 515 q 78 685 78 611 q 115 816 78 763 q 220 897 151 869 q 382 925 288 925 q 544 897 471 925 q 661 811 617 868 q 705 669 705 754 l 583 669 q 526 786 583 747 q 383 826 468 826 q 247 791 296 826 q 199 689 199 756 q 220 622 199 649 q 292 574 241 595 q 435 528 343 552 q 607 467 541 500 q 704 384 673 435 q 735 250 735 333 q 691 104 735 162 q 571 17 647 46 q 399 -12 495 -12 m 191 991 l 336 1175 l 450 1175 l 595 991 l 500 991 l 393 1109 l 285 991 l 191 991 z "},"Ș":{"ha":786,"x_min":52,"x_max":735,"o":"m 399 -12 q 223 18 302 -12 q 98 111 144 47 q 52 277 52 175 l 174 277 q 206 163 174 204 q 290 104 237 121 q 404 87 342 87 q 510 105 462 87 q 586 157 557 122 q 614 247 614 192 q 592 325 614 294 q 518 378 570 355 q 378 423 466 401 q 209 483 275 450 q 110 563 142 515 q 78 685 78 611 q 115 816 78 763 q 220 897 151 869 q 382 925 288 925 q 544 897 471 925 q 661 811 617 868 q 705 669 705 754 l 583 669 q 526 786 583 747 q 383 826 468 826 q 247 791 296 826 q 199 689 199 756 q 220 622 199 649 q 292 574 241 595 q 435 528 343 552 q 607 467 541 500 q 704 384 673 435 q 735 250 735 333 q 691 104 735 162 q 571 17 647 46 q 399 -12 495 -12 m 336 -259 l 322 -215 q 365 -192 345 -206 q 391 -157 385 -178 q 349 -137 365 -154 q 332 -98 332 -121 q 350 -57 332 -73 q 399 -40 368 -40 q 450 -59 429 -40 q 471 -113 471 -77 q 431 -208 471 -168 q 336 -259 391 -247 z "},"Ṣ":{"ha":786,"x_min":52,"x_max":735,"o":"m 399 -12 q 223 18 302 -12 q 98 111 144 47 q 52 277 52 175 l 174 277 q 206 163 174 204 q 290 104 237 121 q 404 87 342 87 q 510 105 462 87 q 586 157 557 122 q 614 247 614 192 q 592 325 614 294 q 518 378 570 355 q 378 423 466 401 q 209 483 275 450 q 110 563 142 515 q 78 685 78 611 q 115 816 78 763 q 220 897 151 869 q 382 925 288 925 q 544 897 471 925 q 661 811 617 868 q 705 669 705 754 l 583 669 q 526 786 583 747 q 383 826 468 826 q 247 791 296 826 q 199 689 199 756 q 220 622 199 649 q 292 574 241 595 q 435 528 343 552 q 607 467 541 500 q 704 384 673 435 q 735 250 735 333 q 691 104 735 162 q 571 17 647 46 q 399 -12 495 -12 m 395 -197 q 344 -179 363 -197 q 324 -132 324 -160 q 344 -84 324 -103 q 395 -66 363 -66 q 447 -84 427 -66 q 467 -132 467 -103 q 447 -179 467 -160 q 395 -197 427 -197 z "},"ẞ":{"ha":929,"x_min":119,"x_max":878,"o":"m 119 0 l 119 913 l 768 913 l 769 811 l 241 811 l 241 0 l 119 0 m 602 -9 q 463 13 525 -9 q 364 81 400 34 q 327 203 328 128 l 446 203 q 468 136 447 160 q 526 101 490 111 q 606 90 562 90 q 684 105 648 90 q 741 151 720 120 q 762 231 762 182 q 733 320 762 286 q 639 383 703 355 q 471 445 575 411 l 419 461 l 419 555 l 688 864 l 769 811 l 517 515 l 492 547 q 708 470 622 510 q 836 375 793 431 q 878 232 878 319 q 842 100 878 154 q 744 19 806 46 q 602 -9 682 -9 z "},"T":{"ha":665,"x_min":12,"x_max":652,"o":"m 272 0 l 272 810 l 12 810 l 12 913 l 652 913 l 652 810 l 393 810 l 393 0 l 272 0 z "},"Ŧ":{"ha":665,"x_min":12,"x_max":652,"o":"m 121 399 l 121 494 l 544 494 l 544 399 l 121 399 m 272 0 l 272 810 l 12 810 l 12 913 l 652 913 l 652 810 l 393 810 l 393 0 l 272 0 z "},"Ť":{"ha":665,"x_min":12,"x_max":652,"o":"m 272 0 l 272 810 l 12 810 l 12 913 l 652 913 l 652 810 l 393 810 l 393 0 l 272 0 m 276 991 l 131 1175 l 224 1175 l 332 1058 l 440 1175 l 534 1175 l 389 991 l 276 991 z "},"Ţ":{"ha":665,"x_min":12,"x_max":652,"o":"m 272 0 l 272 810 l 12 810 l 12 913 l 652 913 l 652 810 l 393 810 l 393 0 l 272 0 m 311 -259 q 243 -253 273 -259 q 189 -236 214 -246 l 207 -173 q 252 -187 224 -181 q 307 -193 279 -193 q 349 -181 332 -193 q 366 -149 366 -170 q 344 -113 366 -125 q 269 -95 322 -101 l 239 -92 l 328 28 l 383 3 l 337 -60 l 317 -44 q 415 -73 380 -47 q 450 -146 450 -98 q 432 -209 450 -184 q 382 -247 414 -234 q 311 -259 351 -259 z "},"Ț":{"ha":665,"x_min":12,"x_max":652,"o":"m 272 0 l 272 810 l 12 810 l 12 913 l 652 913 l 652 810 l 393 810 l 393 0 l 272 0 m 273 -259 l 260 -215 q 302 -192 282 -206 q 328 -157 322 -178 q 286 -137 302 -154 q 270 -98 270 -121 q 288 -57 270 -73 q 337 -40 306 -40 q 388 -59 367 -40 q 408 -113 408 -77 q 368 -208 408 -168 q 273 -259 328 -247 z "},"U":{"ha":946,"x_min":108,"x_max":838,"o":"m 472 -12 q 263 33 344 -12 q 145 158 182 78 q 108 339 108 237 l 108 913 l 231 913 l 231 354 q 293 151 231 212 q 473 90 355 90 q 652 151 591 90 q 714 354 714 212 l 714 913 l 838 913 l 838 339 q 800 158 838 237 q 683 33 763 78 q 472 -12 602 -12 z "},"Ú":{"ha":946,"x_min":108,"x_max":838,"o":"m 472 -12 q 263 33 344 -12 q 145 158 182 78 q 108 339 108 237 l 108 913 l 231 913 l 231 354 q 293 151 231 212 q 473 90 355 90 q 652 151 591 90 q 714 354 714 212 l 714 913 l 838 913 l 838 339 q 800 158 838 237 q 683 33 763 78 q 472 -12 602 -12 m 416 991 l 547 1174 l 678 1174 l 504 991 l 416 991 z "},"Ŭ":{"ha":946,"x_min":108,"x_max":838,"o":"m 472 -12 q 263 33 344 -12 q 145 158 182 78 q 108 339 108 237 l 108 913 l 231 913 l 231 354 q 293 151 231 212 q 473 90 355 90 q 652 151 591 90 q 714 354 714 212 l 714 913 l 838 913 l 838 339 q 800 158 838 237 q 683 33 763 78 q 472 -12 602 -12 m 471 1004 q 375 1025 417 1004 q 309 1083 333 1045 q 281 1174 284 1120 l 352 1174 q 373 1117 355 1139 q 417 1084 391 1095 q 471 1074 443 1074 q 527 1085 500 1074 q 571 1118 553 1096 q 594 1174 589 1141 l 667 1174 q 635 1083 661 1122 q 568 1025 610 1045 q 471 1004 526 1004 z "},"Û":{"ha":946,"x_min":108,"x_max":838,"o":"m 472 -12 q 263 33 344 -12 q 145 158 182 78 q 108 339 108 237 l 108 913 l 231 913 l 231 354 q 293 151 231 212 q 473 90 355 90 q 652 151 591 90 q 714 354 714 212 l 714 913 l 838 913 l 838 339 q 800 158 838 237 q 683 33 763 78 q 472 -12 602 -12 m 271 991 l 416 1175 l 530 1175 l 675 991 l 581 991 l 473 1109 l 365 991 l 271 991 z "},"Ü":{"ha":946,"x_min":108,"x_max":838,"o":"m 472 -12 q 263 33 344 -12 q 145 158 182 78 q 108 339 108 237 l 108 913 l 231 913 l 231 354 q 293 151 231 212 q 473 90 355 90 q 652 151 591 90 q 714 354 714 212 l 714 913 l 838 913 l 838 339 q 800 158 838 237 q 683 33 763 78 q 472 -12 602 -12 m 593 1024 q 548 1041 566 1024 q 530 1085 530 1058 q 548 1129 530 1112 q 593 1147 566 1147 q 638 1129 620 1147 q 656 1085 656 1112 q 638 1041 656 1058 q 593 1024 620 1024 m 354 1024 q 309 1041 328 1024 q 290 1085 290 1058 q 309 1129 290 1112 q 354 1147 328 1147 q 399 1129 381 1147 q 418 1085 418 1112 q 399 1041 418 1058 q 354 1024 381 1024 z "},"Ụ":{"ha":946,"x_min":108,"x_max":838,"o":"m 472 -12 q 263 33 344 -12 q 145 158 182 78 q 108 339 108 237 l 108 913 l 231 913 l 231 354 q 293 151 231 212 q 473 90 355 90 q 652 151 591 90 q 714 354 714 212 l 714 913 l 838 913 l 838 339 q 800 158 838 237 q 683 33 763 78 q 472 -12 602 -12 m 473 -197 q 422 -179 441 -197 q 402 -132 402 -160 q 422 -84 402 -103 q 473 -66 441 -66 q 525 -84 505 -66 q 545 -132 545 -103 q 525 -179 545 -160 q 473 -197 505 -197 z "},"Ù":{"ha":946,"x_min":108,"x_max":838,"o":"m 472 -12 q 263 33 344 -12 q 145 158 182 78 q 108 339 108 237 l 108 913 l 231 913 l 231 354 q 293 151 231 212 q 473 90 355 90 q 652 151 591 90 q 714 354 714 212 l 714 913 l 838 913 l 838 339 q 800 158 838 237 q 683 33 763 78 q 472 -12 602 -12 m 443 991 l 269 1174 l 399 1174 l 531 991 l 443 991 z "},"Ủ":{"ha":946,"x_min":108,"x_max":838,"o":"m 472 -12 q 263 33 344 -12 q 145 158 182 78 q 108 339 108 237 l 108 913 l 231 913 l 231 354 q 293 151 231 212 q 473 90 355 90 q 652 151 591 90 q 714 354 714 212 l 714 913 l 838 913 l 838 339 q 800 158 838 237 q 683 33 763 78 q 472 -12 602 -12 m 448 1021 l 419 1074 q 462 1093 443 1080 q 481 1126 481 1105 q 464 1160 481 1152 q 413 1168 447 1168 l 404 1168 l 404 1237 l 427 1237 q 547 1213 507 1237 q 587 1137 587 1188 q 548 1059 587 1089 q 448 1021 509 1029 m 419 1074 l 495 1065 l 495 991 l 419 991 l 419 1074 z "},"Ư":{"ha":1047,"x_min":108,"x_max":1075,"o":"m 830 676 l 805 730 q 925 781 878 751 q 981 854 973 812 l 987 848 q 930 870 953 848 q 907 925 907 892 q 930 982 907 961 q 989 1004 953 1004 q 1052 979 1028 1004 q 1075 903 1075 954 q 1057 825 1075 861 q 1006 760 1039 789 q 928 710 972 731 q 830 676 883 689 m 472 -12 q 263 33 344 -12 q 145 158 182 78 q 108 339 108 237 l 108 913 l 231 913 l 231 354 q 293 151 231 212 q 473 90 355 90 q 652 151 591 90 q 714 354 714 212 l 714 913 l 838 913 l 838 339 q 800 158 838 237 q 683 33 763 78 q 472 -12 602 -12 z "},"Ứ":{"ha":1047,"x_min":108,"x_max":1075,"o":"m 830 676 l 805 730 q 925 781 878 751 q 981 854 973 812 l 987 848 q 930 870 953 848 q 907 925 907 892 q 930 982 907 961 q 989 1004 953 1004 q 1052 979 1028 1004 q 1075 903 1075 954 q 1057 825 1075 861 q 1006 760 1039 789 q 928 710 972 731 q 830 676 883 689 m 472 -12 q 263 33 344 -12 q 145 158 182 78 q 108 339 108 237 l 108 913 l 231 913 l 231 354 q 293 151 231 212 q 473 90 355 90 q 652 151 591 90 q 714 354 714 212 l 714 913 l 838 913 l 838 339 q 800 158 838 237 q 683 33 763 78 q 472 -12 602 -12 m 419 991 l 551 1174 l 682 1174 l 507 991 l 419 991 z "},"Ự":{"ha":1047,"x_min":108,"x_max":1075,"o":"m 830 676 l 805 730 q 925 781 878 751 q 981 854 973 812 l 987 848 q 930 870 953 848 q 907 925 907 892 q 930 982 907 961 q 989 1004 953 1004 q 1052 979 1028 1004 q 1075 903 1075 954 q 1057 825 1075 861 q 1006 760 1039 789 q 928 710 972 731 q 830 676 883 689 m 472 -12 q 263 33 344 -12 q 145 158 182 78 q 108 339 108 237 l 108 913 l 231 913 l 231 354 q 293 151 231 212 q 473 90 355 90 q 652 151 591 90 q 714 354 714 212 l 714 913 l 838 913 l 838 339 q 800 158 838 237 q 683 33 763 78 q 472 -12 602 -12 m 521 -197 q 469 -179 489 -197 q 450 -132 450 -160 q 469 -84 450 -103 q 521 -66 489 -66 q 572 -84 553 -66 q 592 -132 592 -103 q 572 -179 592 -160 q 521 -197 553 -197 z "},"Ừ":{"ha":1047,"x_min":108,"x_max":1075,"o":"m 830 676 l 805 730 q 925 781 878 751 q 981 854 973 812 l 987 848 q 930 870 953 848 q 907 925 907 892 q 930 982 907 961 q 989 1004 953 1004 q 1052 979 1028 1004 q 1075 903 1075 954 q 1057 825 1075 861 q 1006 760 1039 789 q 928 710 972 731 q 830 676 883 689 m 472 -12 q 263 33 344 -12 q 145 158 182 78 q 108 339 108 237 l 108 913 l 231 913 l 231 354 q 293 151 231 212 q 473 90 355 90 q 652 151 591 90 q 714 354 714 212 l 714 913 l 838 913 l 838 339 q 800 158 838 237 q 683 33 763 78 q 472 -12 602 -12 m 446 991 l 272 1174 l 403 1174 l 534 991 l 446 991 z "},"Ử":{"ha":1047,"x_min":108,"x_max":1075,"o":"m 830 676 l 805 730 q 925 781 878 751 q 981 854 973 812 l 987 848 q 930 870 953 848 q 907 925 907 892 q 930 982 907 961 q 989 1004 953 1004 q 1052 979 1028 1004 q 1075 903 1075 954 q 1057 825 1075 861 q 1006 760 1039 789 q 928 710 972 731 q 830 676 883 689 m 472 -12 q 263 33 344 -12 q 145 158 182 78 q 108 339 108 237 l 108 913 l 231 913 l 231 354 q 293 151 231 212 q 473 90 355 90 q 652 151 591 90 q 714 354 714 212 l 714 913 l 838 913 l 838 339 q 800 158 838 237 q 683 33 763 78 q 472 -12 602 -12 m 452 1020 l 422 1073 q 466 1092 446 1080 q 485 1125 485 1105 q 468 1159 485 1151 q 416 1167 450 1167 l 408 1167 l 408 1236 l 431 1236 q 551 1212 511 1236 q 591 1137 591 1187 q 552 1059 591 1088 q 452 1020 513 1029 m 422 1073 l 498 1065 l 498 990 l 422 990 l 422 1073 z "},"Ữ":{"ha":1047,"x_min":108,"x_max":1075,"o":"m 830 676 l 805 730 q 925 781 878 751 q 981 854 973 812 l 987 848 q 930 870 953 848 q 907 925 907 892 q 930 982 907 961 q 989 1004 953 1004 q 1052 979 1028 1004 q 1075 903 1075 954 q 1057 825 1075 861 q 1006 760 1039 789 q 928 710 972 731 q 830 676 883 689 m 472 -12 q 263 33 344 -12 q 145 158 182 78 q 108 339 108 237 l 108 913 l 231 913 l 231 354 q 293 151 231 212 q 473 90 355 90 q 652 151 591 90 q 714 354 714 212 l 714 913 l 838 913 l 838 339 q 800 158 838 237 q 683 33 763 78 q 472 -12 602 -12 m 279 1006 q 312 1105 286 1069 q 388 1142 337 1142 q 443 1133 416 1142 q 494 1112 469 1123 q 535 1096 517 1102 q 568 1090 553 1090 q 595 1103 584 1090 q 608 1145 606 1117 l 675 1145 q 644 1049 668 1085 q 570 1014 620 1014 q 513 1023 540 1014 q 463 1042 487 1032 q 422 1059 440 1053 q 389 1065 405 1065 q 360 1051 371 1065 q 346 1006 349 1037 l 279 1006 z "},"Ű":{"ha":946,"x_min":108,"x_max":838,"o":"m 472 -12 q 263 33 344 -12 q 145 158 182 78 q 108 339 108 237 l 108 913 l 231 913 l 231 354 q 293 151 231 212 q 473 90 355 90 q 652 151 591 90 q 714 354 714 212 l 714 913 l 838 913 l 838 339 q 800 158 838 237 q 683 33 763 78 q 472 -12 602 -12 m 500 991 l 619 1175 l 736 1175 l 582 991 l 500 991 m 307 991 l 425 1175 l 541 1175 l 387 991 l 307 991 z "},"Ū":{"ha":946,"x_min":108,"x_max":838,"o":"m 472 -12 q 263 33 344 -12 q 145 158 182 78 q 108 339 108 237 l 108 913 l 231 913 l 231 354 q 293 151 231 212 q 473 90 355 90 q 652 151 591 90 q 714 354 714 212 l 714 913 l 838 913 l 838 339 q 800 158 838 237 q 683 33 763 78 q 472 -12 602 -12 m 289 1034 l 289 1117 l 659 1117 l 659 1034 l 289 1034 z "},"Ų":{"ha":946,"x_min":108,"x_max":838,"o":"m 472 -12 q 263 33 344 -12 q 145 158 182 78 q 108 339 108 237 l 108 913 l 231 913 l 231 354 q 293 151 231 212 q 473 90 355 90 q 652 151 591 90 q 714 354 714 212 l 714 913 l 838 913 l 838 339 q 800 158 838 237 q 683 33 763 78 q 472 -12 602 -12 m 568 -254 q 480 -225 517 -254 q 444 -144 444 -196 q 466 -76 444 -110 q 523 -15 487 -42 q 604 23 559 12 l 646 11 q 564 -63 587 -28 q 541 -127 541 -99 q 554 -164 541 -151 q 589 -176 568 -176 q 632 -171 612 -176 q 674 -155 652 -165 l 674 -231 q 631 -248 654 -241 q 568 -254 608 -254 z "},"Ů":{"ha":946,"x_min":108,"x_max":838,"o":"m 472 -12 q 263 33 344 -12 q 145 158 182 78 q 108 339 108 237 l 108 913 l 231 913 l 231 354 q 293 151 231 212 q 473 90 355 90 q 652 151 591 90 q 714 354 714 212 l 714 913 l 838 913 l 838 339 q 800 158 838 237 q 683 33 763 78 q 472 -12 602 -12 m 473 934 q 372 972 411 934 q 332 1072 332 1010 q 372 1170 332 1133 q 473 1208 411 1208 q 575 1170 536 1208 q 614 1072 614 1133 q 575 972 614 1010 q 473 934 536 934 m 473 998 q 525 1019 505 998 q 545 1072 545 1040 q 525 1124 545 1103 q 473 1145 505 1145 q 422 1124 442 1145 q 403 1072 403 1103 q 422 1019 403 1040 q 473 998 442 998 z "},"Ũ":{"ha":946,"x_min":108,"x_max":838,"o":"m 472 -12 q 263 33 344 -12 q 145 158 182 78 q 108 339 108 237 l 108 913 l 231 913 l 231 354 q 293 151 231 212 q 473 90 355 90 q 652 151 591 90 q 714 354 714 212 l 714 913 l 838 913 l 838 339 q 800 158 838 237 q 683 33 763 78 q 472 -12 602 -12 m 276 1006 q 308 1105 283 1069 q 385 1142 334 1142 q 439 1133 412 1142 q 491 1112 466 1123 q 531 1096 513 1102 q 564 1090 549 1090 q 591 1103 581 1090 q 605 1145 602 1117 l 671 1145 q 641 1049 665 1085 q 566 1014 616 1014 q 510 1023 536 1014 q 460 1042 484 1032 q 419 1059 437 1053 q 386 1065 401 1065 q 357 1051 368 1065 q 342 1006 346 1037 l 276 1006 z "},"V":{"ha":813,"x_min":5,"x_max":808,"o":"m 334 0 l 5 913 l 135 913 l 406 129 l 679 913 l 808 913 l 476 0 l 334 0 z "},"Ɣ":{"ha":724,"x_min":5,"x_max":719,"o":"m 364 -11 q 276 8 314 -11 q 217 62 238 26 q 196 151 196 98 q 212 239 196 195 q 256 334 228 284 q 322 443 285 384 l 345 481 l 352 486 l 587 913 l 719 913 l 401 373 q 356 294 378 334 q 320 219 334 255 q 307 153 307 183 q 322 97 307 117 q 364 77 337 77 q 404 97 389 77 q 420 153 420 118 q 389 255 420 198 q 321 376 359 311 l 5 913 l 142 913 l 372 488 l 380 482 l 406 441 q 472 331 444 380 q 515 238 500 282 q 530 151 530 195 q 511 63 530 100 q 454 8 491 27 q 364 -11 416 -11 z "},"Ʋ":{"ha":946,"x_min":108,"x_max":838,"o":"m 472 -12 q 263 34 344 -12 q 145 159 182 80 q 108 339 108 239 l 108 913 l 231 913 l 231 354 q 293 153 231 215 q 473 90 355 90 q 652 153 591 90 q 714 354 714 215 l 714 632 l 838 635 l 838 339 q 800 159 838 239 q 683 34 763 80 q 472 -12 602 -12 m 714 632 q 681 769 714 728 q 559 811 648 811 l 521 811 l 521 916 l 568 916 q 775 849 712 916 q 838 635 838 782 l 714 632 z "},"W":{"ha":1239,"x_min":1,"x_max":1238,"o":"m 269 0 l 1 913 l 130 913 l 336 151 l 553 913 l 690 913 l 908 151 l 1116 913 l 1238 913 l 971 0 l 844 0 l 619 772 l 398 0 l 269 0 z "},"Ẃ":{"ha":1239,"x_min":1,"x_max":1238,"o":"m 269 0 l 1 913 l 130 913 l 336 151 l 553 913 l 690 913 l 908 151 l 1116 913 l 1238 913 l 971 0 l 844 0 l 619 772 l 398 0 l 269 0 m 564 991 l 696 1174 l 827 1174 l 652 991 l 564 991 z "},"Ŵ":{"ha":1239,"x_min":1,"x_max":1238,"o":"m 269 0 l 1 913 l 130 913 l 336 151 l 553 913 l 690 913 l 908 151 l 1116 913 l 1238 913 l 971 0 l 844 0 l 619 772 l 398 0 l 269 0 m 420 991 l 565 1175 l 678 1175 l 823 991 l 729 991 l 622 1109 l 513 991 l 420 991 z "},"Ẅ":{"ha":1239,"x_min":1,"x_max":1238,"o":"m 269 0 l 1 913 l 130 913 l 336 151 l 553 913 l 690 913 l 908 151 l 1116 913 l 1238 913 l 971 0 l 844 0 l 619 772 l 398 0 l 269 0 m 741 1024 q 696 1041 714 1024 q 678 1085 678 1058 q 696 1129 678 1112 q 741 1147 714 1147 q 787 1129 768 1147 q 805 1085 805 1112 q 787 1041 805 1058 q 741 1024 768 1024 m 503 1024 q 457 1041 476 1024 q 439 1085 439 1058 q 457 1129 439 1112 q 503 1147 476 1147 q 548 1129 530 1147 q 566 1085 566 1112 q 548 1041 566 1058 q 503 1024 530 1024 z "},"Ẁ":{"ha":1239,"x_min":1,"x_max":1238,"o":"m 269 0 l 1 913 l 130 913 l 336 151 l 553 913 l 690 913 l 908 151 l 1116 913 l 1238 913 l 971 0 l 844 0 l 619 772 l 398 0 l 269 0 m 591 991 l 417 1174 l 548 1174 l 680 991 l 591 991 z "},"X":{"ha":768,"x_min":9,"x_max":759,"o":"m 9 0 l 314 473 l 31 913 l 169 913 l 383 555 l 606 913 l 738 913 l 454 471 l 759 0 l 616 0 l 383 378 l 143 0 l 9 0 z "},"Y":{"ha":749,"x_min":0,"x_max":749,"o":"m 313 0 l 313 363 l 0 913 l 134 913 l 375 472 l 614 913 l 749 913 l 436 363 l 436 0 l 313 0 z "},"Ý":{"ha":749,"x_min":0,"x_max":749,"o":"m 313 0 l 313 363 l 0 913 l 134 913 l 375 472 l 614 913 l 749 913 l 436 363 l 436 0 l 313 0 m 317 991 l 449 1174 l 580 1174 l 406 991 l 317 991 z "},"Ŷ":{"ha":749,"x_min":0,"x_max":749,"o":"m 313 0 l 313 363 l 0 913 l 134 913 l 375 472 l 614 913 l 749 913 l 436 363 l 436 0 l 313 0 m 173 991 l 318 1175 l 431 1175 l 576 991 l 482 991 l 375 1109 l 267 991 l 173 991 z "},"Ÿ":{"ha":749,"x_min":0,"x_max":749,"o":"m 313 0 l 313 363 l 0 913 l 134 913 l 375 472 l 614 913 l 749 913 l 436 363 l 436 0 l 313 0 m 494 1024 q 449 1041 467 1024 q 431 1085 431 1058 q 449 1129 431 1112 q 494 1147 467 1147 q 540 1129 522 1147 q 558 1085 558 1112 q 540 1041 558 1058 q 494 1024 522 1024 m 256 1024 q 211 1041 229 1024 q 192 1085 192 1058 q 211 1129 192 1112 q 256 1147 229 1147 q 301 1129 283 1147 q 319 1085 319 1112 q 301 1041 319 1058 q 256 1024 283 1024 z "},"Ỵ":{"ha":749,"x_min":0,"x_max":749,"o":"m 313 0 l 313 363 l 0 913 l 134 913 l 375 472 l 614 913 l 749 913 l 436 363 l 436 0 l 313 0 m 375 -197 q 323 -179 343 -197 q 304 -132 304 -160 q 323 -84 304 -103 q 375 -66 343 -66 q 427 -84 407 -66 q 446 -132 446 -103 q 427 -179 446 -160 q 375 -197 407 -197 z "},"Ỳ":{"ha":749,"x_min":0,"x_max":749,"o":"m 313 0 l 313 363 l 0 913 l 134 913 l 375 472 l 614 913 l 749 913 l 436 363 l 436 0 l 313 0 m 345 991 l 170 1174 l 301 1174 l 433 991 l 345 991 z "},"Ƴ":{"ha":773,"x_min":0,"x_max":761,"o":"m 313 0 l 313 363 l 0 913 l 138 913 l 375 469 l 436 363 l 436 0 l 313 0 m 436 363 l 342 403 l 478 713 q 549 840 515 797 q 621 898 582 882 q 711 913 659 913 l 761 913 l 761 808 l 729 808 q 670 797 696 808 q 621 753 644 786 q 568 657 597 721 l 436 363 z "},"Ỷ":{"ha":749,"x_min":0,"x_max":749,"o":"m 313 0 l 313 363 l 0 913 l 134 913 l 375 472 l 614 913 l 749 913 l 436 363 l 436 0 l 313 0 m 350 1021 l 321 1074 q 364 1093 345 1080 q 383 1126 383 1105 q 366 1160 383 1152 q 315 1168 349 1168 l 306 1168 l 306 1237 l 329 1237 q 449 1213 409 1237 q 489 1137 489 1188 q 450 1059 489 1089 q 350 1021 411 1029 m 321 1074 l 397 1065 l 397 991 l 321 991 l 321 1074 z "},"Ȳ":{"ha":749,"x_min":0,"x_max":749,"o":"m 313 0 l 313 363 l 0 913 l 134 913 l 375 472 l 614 913 l 749 913 l 436 363 l 436 0 l 313 0 m 191 1034 l 191 1117 l 560 1117 l 560 1034 l 191 1034 z "},"Ỹ":{"ha":749,"x_min":0,"x_max":749,"o":"m 313 0 l 313 363 l 0 913 l 134 913 l 375 472 l 614 913 l 749 913 l 436 363 l 436 0 l 313 0 m 178 1006 q 210 1105 184 1069 q 286 1142 235 1142 q 341 1133 314 1142 q 393 1112 368 1123 q 433 1096 415 1102 q 466 1090 451 1090 q 493 1103 482 1090 q 507 1145 504 1117 l 573 1145 q 542 1049 566 1085 q 468 1014 518 1014 q 412 1023 438 1014 q 361 1042 385 1032 q 321 1059 338 1053 q 288 1065 303 1065 q 258 1051 269 1065 q 244 1006 248 1037 l 178 1006 z "},"Z":{"ha":716,"x_min":26,"x_max":690,"o":"m 26 0 l 26 96 l 521 810 l 58 810 l 58 913 l 664 913 l 664 820 l 167 102 l 690 102 l 690 0 l 26 0 z "},"Ź":{"ha":716,"x_min":26,"x_max":690,"o":"m 26 0 l 26 96 l 521 810 l 58 810 l 58 913 l 664 913 l 664 820 l 167 102 l 690 102 l 690 0 l 26 0 m 303 991 l 435 1174 l 566 1174 l 391 991 l 303 991 z "},"Ž":{"ha":716,"x_min":26,"x_max":690,"o":"m 26 0 l 26 96 l 521 810 l 58 810 l 58 913 l 664 913 l 664 820 l 167 102 l 690 102 l 690 0 l 26 0 m 304 991 l 159 1175 l 252 1175 l 359 1058 l 468 1175 l 562 1175 l 417 991 l 304 991 z "},"Ż":{"ha":716,"x_min":26,"x_max":690,"o":"m 26 0 l 26 96 l 521 810 l 58 810 l 58 913 l 664 913 l 664 820 l 167 102 l 690 102 l 690 0 l 26 0 m 361 1019 q 309 1038 329 1019 q 290 1085 290 1057 q 309 1132 290 1114 q 361 1151 329 1151 q 412 1132 393 1151 q 432 1085 432 1114 q 412 1038 432 1057 q 361 1019 393 1019 z "},"a":{"ha":738,"x_min":72,"x_max":635,"o":"m 279 -12 q 175 9 222 -12 q 100 74 128 31 q 72 178 72 116 q 127 313 72 267 q 285 376 183 359 q 523 394 387 393 l 523 440 q 481 556 523 525 q 374 588 439 588 q 259 553 306 588 q 212 444 212 519 l 102 444 q 137 576 102 526 q 234 649 172 626 q 374 672 295 672 q 472 663 425 672 q 555 628 518 653 q 614 558 592 603 q 635 441 635 513 l 635 0 l 530 0 l 525 100 q 419 19 479 50 q 279 -12 359 -12 m 309 75 q 431 106 377 75 q 522 187 486 138 l 522 321 q 263 288 342 319 q 185 183 185 256 q 217 104 185 134 q 309 75 248 75 z "},"á":{"ha":738,"x_min":72,"x_max":635,"o":"m 279 -12 q 175 9 222 -12 q 100 74 128 31 q 72 178 72 116 q 127 313 72 267 q 285 376 183 359 q 523 394 387 393 l 523 440 q 481 556 523 525 q 374 588 439 588 q 259 553 306 588 q 212 444 212 519 l 102 444 q 137 576 102 526 q 234 649 172 626 q 374 672 295 672 q 472 663 425 672 q 555 628 518 653 q 614 558 592 603 q 635 441 635 513 l 635 0 l 530 0 l 525 100 q 419 19 479 50 q 279 -12 359 -12 m 309 75 q 431 106 377 75 q 522 187 486 138 l 522 321 q 263 288 342 319 q 185 183 185 256 q 217 104 185 134 q 309 75 248 75 m 315 753 l 453 935 l 585 935 l 403 753 l 315 753 z "},"ă":{"ha":738,"x_min":72,"x_max":635,"o":"m 279 -12 q 175 9 222 -12 q 100 74 128 31 q 72 178 72 116 q 127 313 72 267 q 285 376 183 359 q 523 394 387 393 l 523 440 q 481 556 523 525 q 374 588 439 588 q 259 553 306 588 q 212 444 212 519 l 102 444 q 137 576 102 526 q 234 649 172 626 q 374 672 295 672 q 472 663 425 672 q 555 628 518 653 q 614 558 592 603 q 635 441 635 513 l 635 0 l 530 0 l 525 100 q 419 19 479 50 q 279 -12 359 -12 m 309 75 q 431 106 377 75 q 522 187 486 138 l 522 321 q 263 288 342 319 q 185 183 185 256 q 217 104 185 134 q 309 75 248 75 m 378 758 q 254 803 300 758 q 197 929 207 848 l 267 929 q 306 854 274 877 q 378 832 338 832 q 452 855 418 832 q 492 929 486 878 l 558 929 q 503 804 550 850 q 378 758 456 758 z "},"ắ":{"ha":738,"x_min":72,"x_max":635,"o":"m 279 -12 q 175 9 222 -12 q 100 74 128 31 q 72 178 72 116 q 127 313 72 267 q 285 376 183 359 q 523 394 387 393 l 523 440 q 481 556 523 525 q 374 588 439 588 q 259 553 306 588 q 212 444 212 519 l 102 444 q 137 576 102 526 q 234 649 172 626 q 374 672 295 672 q 472 663 425 672 q 555 628 518 653 q 614 558 592 603 q 635 441 635 513 l 635 0 l 530 0 l 525 100 q 419 19 479 50 q 279 -12 359 -12 m 309 75 q 431 106 377 75 q 522 187 486 138 l 522 321 q 263 288 342 319 q 185 183 185 256 q 217 104 185 134 q 309 75 248 75 m 378 756 q 245 801 294 756 q 186 927 197 846 l 252 927 q 275 871 256 892 q 321 840 294 850 q 378 830 348 830 q 436 840 408 830 q 484 872 465 850 q 508 927 503 893 l 572 927 q 512 802 562 848 q 378 756 463 756 m 334 927 l 423 1109 l 538 1109 l 401 927 l 334 927 z "},"ặ":{"ha":738,"x_min":72,"x_max":635,"o":"m 279 -12 q 175 9 222 -12 q 100 74 128 31 q 72 178 72 116 q 127 313 72 267 q 285 376 183 359 q 523 394 387 393 l 523 440 q 481 556 523 525 q 374 588 439 588 q 259 553 306 588 q 212 444 212 519 l 102 444 q 137 576 102 526 q 234 649 172 626 q 374 672 295 672 q 472 663 425 672 q 555 628 518 653 q 614 558 592 603 q 635 441 635 513 l 635 0 l 530 0 l 525 100 q 419 19 479 50 q 279 -12 359 -12 m 309 75 q 431 106 377 75 q 522 187 486 138 l 522 321 q 263 288 342 319 q 185 183 185 256 q 217 104 185 134 q 309 75 248 75 m 368 -197 q 317 -179 336 -197 q 297 -132 297 -160 q 317 -84 297 -103 q 368 -66 336 -66 q 420 -84 400 -66 q 439 -132 439 -103 q 420 -179 439 -160 q 368 -197 400 -197 m 378 758 q 254 803 300 758 q 197 929 207 848 l 267 929 q 306 854 274 877 q 378 832 338 832 q 452 855 418 832 q 492 929 486 878 l 558 929 q 503 804 550 850 q 378 758 456 758 z "},"ằ":{"ha":738,"x_min":72,"x_max":635,"o":"m 279 -12 q 175 9 222 -12 q 100 74 128 31 q 72 178 72 116 q 127 313 72 267 q 285 376 183 359 q 523 394 387 393 l 523 440 q 481 556 523 525 q 374 588 439 588 q 259 553 306 588 q 212 444 212 519 l 102 444 q 137 576 102 526 q 234 649 172 626 q 374 672 295 672 q 472 663 425 672 q 555 628 518 653 q 614 558 592 603 q 635 441 635 513 l 635 0 l 530 0 l 525 100 q 419 19 479 50 q 279 -12 359 -12 m 309 75 q 431 106 377 75 q 522 187 486 138 l 522 321 q 263 288 342 319 q 185 183 185 256 q 217 104 185 134 q 309 75 248 75 m 378 756 q 245 801 294 756 q 186 927 197 846 l 252 927 q 275 871 256 892 q 321 840 294 850 q 378 830 348 830 q 436 840 408 830 q 484 872 465 850 q 508 927 503 893 l 572 927 q 512 802 562 848 q 378 756 463 756 m 418 927 l 351 927 l 215 1109 l 329 1109 l 418 927 z "},"ẳ":{"ha":738,"x_min":72,"x_max":635,"o":"m 279 -12 q 175 9 222 -12 q 100 74 128 31 q 72 178 72 116 q 127 313 72 267 q 285 376 183 359 q 523 394 387 393 l 523 440 q 481 556 523 525 q 374 588 439 588 q 259 553 306 588 q 212 444 212 519 l 102 444 q 137 576 102 526 q 234 649 172 626 q 374 672 295 672 q 472 663 425 672 q 555 628 518 653 q 614 558 592 603 q 635 441 635 513 l 635 0 l 530 0 l 525 100 q 419 19 479 50 q 279 -12 359 -12 m 309 75 q 431 106 377 75 q 522 187 486 138 l 522 321 q 263 288 342 319 q 185 183 185 256 q 217 104 185 134 q 309 75 248 75 m 378 756 q 245 801 294 756 q 186 927 197 846 l 252 927 q 275 871 256 892 q 321 840 294 850 q 378 830 348 830 q 436 840 408 830 q 484 872 465 850 q 508 927 503 893 l 572 927 q 512 802 562 848 q 378 756 463 756 m 354 927 l 325 968 q 368 992 349 976 q 388 1032 388 1008 q 370 1066 388 1058 q 319 1074 353 1074 l 311 1074 l 311 1143 l 334 1143 q 440 1119 404 1143 q 476 1047 476 1095 q 442 966 476 996 q 354 927 408 935 z "},"ẵ":{"ha":738,"x_min":72,"x_max":635,"o":"m 279 -12 q 175 9 222 -12 q 100 74 128 31 q 72 178 72 116 q 127 313 72 267 q 285 376 183 359 q 523 394 387 393 l 523 440 q 481 556 523 525 q 374 588 439 588 q 259 553 306 588 q 212 444 212 519 l 102 444 q 137 576 102 526 q 234 649 172 626 q 374 672 295 672 q 472 663 425 672 q 555 628 518 653 q 614 558 592 603 q 635 441 635 513 l 635 0 l 530 0 l 525 100 q 419 19 479 50 q 279 -12 359 -12 m 309 75 q 431 106 377 75 q 522 187 486 138 l 522 321 q 263 288 342 319 q 185 183 185 256 q 217 104 185 134 q 309 75 248 75 m 378 756 q 245 801 294 756 q 186 927 197 846 l 255 927 q 278 871 260 892 q 322 840 296 850 q 378 830 349 830 q 435 840 408 830 q 481 872 463 850 q 505 927 500 893 l 572 927 q 512 802 562 848 q 378 756 463 756 m 173 981 q 210 1078 180 1042 q 296 1114 239 1114 q 350 1104 323 1114 q 401 1084 376 1095 q 442 1067 425 1074 q 475 1061 460 1061 q 511 1075 497 1061 q 529 1117 526 1088 l 595 1117 q 561 1024 589 1059 q 477 989 534 989 q 421 998 448 989 q 371 1017 395 1007 q 330 1034 347 1027 q 297 1040 312 1040 q 258 1026 273 1040 q 239 981 243 1012 l 173 981 z "},"â":{"ha":738,"x_min":72,"x_max":635,"o":"m 279 -12 q 175 9 222 -12 q 100 74 128 31 q 72 178 72 116 q 127 313 72 267 q 285 376 183 359 q 523 394 387 393 l 523 440 q 481 556 523 525 q 374 588 439 588 q 259 553 306 588 q 212 444 212 519 l 102 444 q 137 576 102 526 q 234 649 172 626 q 374 672 295 672 q 472 663 425 672 q 555 628 518 653 q 614 558 592 603 q 635 441 635 513 l 635 0 l 530 0 l 525 100 q 419 19 479 50 q 279 -12 359 -12 m 309 75 q 431 106 377 75 q 522 187 486 138 l 522 321 q 263 288 342 319 q 185 183 185 256 q 217 104 185 134 q 309 75 248 75 m 178 753 l 323 935 l 437 935 l 582 753 l 488 753 l 380 869 l 272 753 l 178 753 z "},"ấ":{"ha":738,"x_min":72,"x_max":737,"o":"m 279 -12 q 175 9 222 -12 q 100 74 128 31 q 72 178 72 116 q 127 313 72 267 q 285 376 183 359 q 523 394 387 393 l 523 440 q 481 556 523 525 q 374 588 439 588 q 259 553 306 588 q 212 444 212 519 l 102 444 q 137 576 102 526 q 234 649 172 626 q 374 672 295 672 q 472 663 425 672 q 555 628 518 653 q 614 558 592 603 q 635 441 635 513 l 635 0 l 530 0 l 525 100 q 419 19 479 50 q 279 -12 359 -12 m 309 75 q 431 106 377 75 q 522 187 486 138 l 522 321 q 263 288 342 319 q 185 183 185 256 q 217 104 185 134 q 309 75 248 75 m 170 751 l 315 933 l 428 933 l 573 751 l 479 751 l 372 867 l 264 751 l 170 751 m 503 865 l 613 1047 l 737 1047 l 584 865 l 503 865 z "},"ậ":{"ha":738,"x_min":72,"x_max":635,"o":"m 279 -12 q 175 9 222 -12 q 100 74 128 31 q 72 178 72 116 q 127 313 72 267 q 285 376 183 359 q 523 394 387 393 l 523 440 q 481 556 523 525 q 374 588 439 588 q 259 553 306 588 q 212 444 212 519 l 102 444 q 137 576 102 526 q 234 649 172 626 q 374 672 295 672 q 472 663 425 672 q 555 628 518 653 q 614 558 592 603 q 635 441 635 513 l 635 0 l 530 0 l 525 100 q 419 19 479 50 q 279 -12 359 -12 m 309 75 q 431 106 377 75 q 522 187 486 138 l 522 321 q 263 288 342 319 q 185 183 185 256 q 217 104 185 134 q 309 75 248 75 m 368 -197 q 317 -179 336 -197 q 297 -132 297 -160 q 317 -84 297 -103 q 368 -66 336 -66 q 420 -84 400 -66 q 439 -132 439 -103 q 420 -179 439 -160 q 368 -197 400 -197 m 178 753 l 323 935 l 437 935 l 582 753 l 488 753 l 380 869 l 272 753 l 178 753 z "},"ầ":{"ha":738,"x_min":1,"x_max":635,"o":"m 279 -12 q 175 9 222 -12 q 100 74 128 31 q 72 178 72 116 q 127 313 72 267 q 285 376 183 359 q 523 394 387 393 l 523 440 q 481 556 523 525 q 374 588 439 588 q 259 553 306 588 q 212 444 212 519 l 102 444 q 137 576 102 526 q 234 649 172 626 q 374 672 295 672 q 472 663 425 672 q 555 628 518 653 q 614 558 592 603 q 635 441 635 513 l 635 0 l 530 0 l 525 100 q 419 19 479 50 q 279 -12 359 -12 m 309 75 q 431 106 377 75 q 522 187 486 138 l 522 321 q 263 288 342 319 q 185 183 185 256 q 217 104 185 134 q 309 75 248 75 m 167 751 l 312 933 l 425 933 l 570 751 l 477 751 l 370 867 l 261 751 l 167 751 m 235 865 l 155 865 l 1 1047 l 126 1047 l 235 865 z "},"ẩ":{"ha":738,"x_min":72,"x_max":653,"o":"m 279 -12 q 175 9 222 -12 q 100 74 128 31 q 72 178 72 116 q 127 313 72 267 q 285 376 183 359 q 523 394 387 393 l 523 440 q 481 556 523 525 q 374 588 439 588 q 259 553 306 588 q 212 444 212 519 l 102 444 q 137 576 102 526 q 234 649 172 626 q 374 672 295 672 q 472 663 425 672 q 555 628 518 653 q 614 558 592 603 q 635 441 635 513 l 635 0 l 530 0 l 525 100 q 419 19 479 50 q 279 -12 359 -12 m 309 75 q 431 106 377 75 q 522 187 486 138 l 522 321 q 263 288 342 319 q 185 183 185 256 q 217 104 185 134 q 309 75 248 75 m 167 751 l 312 933 l 425 933 l 570 751 l 477 751 l 370 867 l 261 751 l 167 751 m 531 862 l 503 903 q 546 927 526 911 q 565 967 565 943 q 547 1001 565 993 q 497 1009 530 1009 l 488 1009 l 488 1078 l 511 1078 q 617 1054 581 1078 q 653 982 653 1030 q 619 901 653 931 q 531 862 585 871 z "},"ẫ":{"ha":738,"x_min":72,"x_max":635,"o":"m 279 -12 q 175 9 222 -12 q 100 74 128 31 q 72 178 72 116 q 127 313 72 267 q 285 376 183 359 q 523 394 387 393 l 523 440 q 481 556 523 525 q 374 588 439 588 q 259 553 306 588 q 212 444 212 519 l 102 444 q 137 576 102 526 q 234 649 172 626 q 374 672 295 672 q 472 663 425 672 q 555 628 518 653 q 614 558 592 603 q 635 441 635 513 l 635 0 l 530 0 l 525 100 q 419 19 479 50 q 279 -12 359 -12 m 309 75 q 431 106 377 75 q 522 187 486 138 l 522 321 q 263 288 342 319 q 185 183 185 256 q 217 104 185 134 q 309 75 248 75 m 167 751 l 312 933 l 425 933 l 570 751 l 477 751 l 370 867 l 261 751 l 167 751 m 159 981 q 196 1080 167 1044 q 282 1117 224 1117 q 336 1107 309 1117 q 388 1087 363 1098 q 428 1071 410 1077 q 461 1065 446 1065 q 497 1078 484 1065 q 515 1120 511 1092 l 582 1120 q 547 1024 574 1060 q 463 989 519 989 q 407 998 434 989 q 357 1017 380 1007 q 316 1034 333 1027 q 283 1040 298 1040 q 245 1026 260 1040 q 226 981 230 1012 l 159 981 z "},"ä":{"ha":738,"x_min":72,"x_max":635,"o":"m 279 -12 q 175 9 222 -12 q 100 74 128 31 q 72 178 72 116 q 127 313 72 267 q 285 376 183 359 q 523 394 387 393 l 523 440 q 481 556 523 525 q 374 588 439 588 q 259 553 306 588 q 212 444 212 519 l 102 444 q 137 576 102 526 q 234 649 172 626 q 374 672 295 672 q 472 663 425 672 q 555 628 518 653 q 614 558 592 603 q 635 441 635 513 l 635 0 l 530 0 l 525 100 q 419 19 479 50 q 279 -12 359 -12 m 309 75 q 431 106 377 75 q 522 187 486 138 l 522 321 q 263 288 342 319 q 185 183 185 256 q 217 104 185 134 q 309 75 248 75 m 498 789 q 453 806 471 789 q 435 850 435 823 q 453 894 435 877 q 498 911 471 911 q 544 894 526 911 q 562 850 562 877 q 544 806 562 823 q 498 789 526 789 m 260 789 q 215 806 233 789 q 196 850 196 823 q 215 894 196 877 q 260 911 233 911 q 305 894 287 911 q 323 850 323 877 q 305 806 323 823 q 260 789 287 789 z "},"ạ":{"ha":738,"x_min":72,"x_max":635,"o":"m 279 -12 q 175 9 222 -12 q 100 74 128 31 q 72 178 72 116 q 127 313 72 267 q 285 376 183 359 q 523 394 387 393 l 523 440 q 481 556 523 525 q 374 588 439 588 q 259 553 306 588 q 212 444 212 519 l 102 444 q 137 576 102 526 q 234 649 172 626 q 374 672 295 672 q 472 663 425 672 q 555 628 518 653 q 614 558 592 603 q 635 441 635 513 l 635 0 l 530 0 l 525 100 q 419 19 479 50 q 279 -12 359 -12 m 309 75 q 431 106 377 75 q 522 187 486 138 l 522 321 q 263 288 342 319 q 185 183 185 256 q 217 104 185 134 q 309 75 248 75 m 368 -197 q 317 -179 336 -197 q 297 -132 297 -160 q 317 -84 297 -103 q 368 -66 336 -66 q 420 -84 400 -66 q 439 -132 439 -103 q 420 -179 439 -160 q 368 -197 400 -197 z "},"à":{"ha":738,"x_min":72,"x_max":635,"o":"m 279 -12 q 175 9 222 -12 q 100 74 128 31 q 72 178 72 116 q 127 313 72 267 q 285 376 183 359 q 523 394 387 393 l 523 440 q 481 556 523 525 q 374 588 439 588 q 259 553 306 588 q 212 444 212 519 l 102 444 q 137 576 102 526 q 234 649 172 626 q 374 672 295 672 q 472 663 425 672 q 555 628 518 653 q 614 558 592 603 q 635 441 635 513 l 635 0 l 530 0 l 525 100 q 419 19 479 50 q 279 -12 359 -12 m 309 75 q 431 106 377 75 q 522 187 486 138 l 522 321 q 263 288 342 319 q 185 183 185 256 q 217 104 185 134 q 309 75 248 75 m 355 753 l 174 935 l 304 935 l 442 753 l 355 753 z "},"ả":{"ha":738,"x_min":72,"x_max":635,"o":"m 279 -12 q 175 9 222 -12 q 100 74 128 31 q 72 178 72 116 q 127 313 72 267 q 285 376 183 359 q 523 394 387 393 l 523 440 q 481 556 523 525 q 374 588 439 588 q 259 553 306 588 q 212 444 212 519 l 102 444 q 137 576 102 526 q 234 649 172 626 q 374 672 295 672 q 472 663 425 672 q 555 628 518 653 q 614 558 592 603 q 635 441 635 513 l 635 0 l 530 0 l 525 100 q 419 19 479 50 q 279 -12 359 -12 m 309 75 q 431 106 377 75 q 522 187 486 138 l 522 321 q 263 288 342 319 q 185 183 185 256 q 217 104 185 134 q 309 75 248 75 m 345 768 l 317 810 q 360 833 340 817 q 379 873 379 849 q 362 906 379 898 q 311 915 345 915 l 302 915 l 302 984 l 325 984 q 445 960 405 984 q 485 885 485 936 q 467 828 485 853 q 418 789 450 804 q 345 768 387 774 m 317 810 l 393 802 l 393 738 l 317 738 l 317 810 z "},"ā":{"ha":738,"x_min":72,"x_max":635,"o":"m 279 -12 q 175 9 222 -12 q 100 74 128 31 q 72 178 72 116 q 127 313 72 267 q 285 376 183 359 q 523 394 387 393 l 523 440 q 481 556 523 525 q 374 588 439 588 q 259 553 306 588 q 212 444 212 519 l 102 444 q 137 576 102 526 q 234 649 172 626 q 374 672 295 672 q 472 663 425 672 q 555 628 518 653 q 614 558 592 603 q 635 441 635 513 l 635 0 l 530 0 l 525 100 q 419 19 479 50 q 279 -12 359 -12 m 309 75 q 431 106 377 75 q 522 187 486 138 l 522 321 q 263 288 342 319 q 185 183 185 256 q 217 104 185 134 q 309 75 248 75 m 195 799 l 195 882 l 564 882 l 564 799 l 195 799 z "},"ą":{"ha":738,"x_min":72,"x_max":635,"o":"m 279 -12 q 175 9 222 -12 q 100 74 128 31 q 72 178 72 116 q 127 313 72 267 q 285 376 183 359 q 523 394 387 393 l 523 440 q 481 556 523 525 q 374 588 439 588 q 259 553 306 588 q 212 444 212 519 l 102 444 q 137 576 102 526 q 234 649 172 626 q 374 672 295 672 q 472 663 425 672 q 555 628 518 653 q 614 558 592 603 q 635 441 635 513 l 635 0 l 530 0 l 525 100 q 419 19 479 50 q 279 -12 359 -12 m 309 75 q 431 106 377 75 q 522 187 486 138 l 522 321 q 263 288 342 319 q 185 183 185 256 q 217 104 185 134 q 309 75 248 75 m 526 -254 q 438 -225 474 -254 q 401 -144 401 -196 q 423 -76 401 -110 q 480 -15 444 -42 q 561 23 517 12 l 604 11 q 521 -63 544 -28 q 498 -127 498 -99 q 512 -164 498 -151 q 547 -176 526 -176 q 590 -171 570 -176 q 631 -155 610 -165 l 631 -231 q 588 -248 612 -241 q 526 -254 565 -254 z "},"å":{"ha":738,"x_min":72,"x_max":635,"o":"m 279 -12 q 175 9 222 -12 q 100 74 128 31 q 72 178 72 116 q 127 313 72 267 q 285 376 183 359 q 523 394 387 393 l 523 440 q 481 556 523 525 q 374 588 439 588 q 259 553 306 588 q 212 444 212 519 l 102 444 q 137 576 102 526 q 234 649 172 626 q 374 672 295 672 q 472 663 425 672 q 555 628 518 653 q 614 558 592 603 q 635 441 635 513 l 635 0 l 530 0 l 525 100 q 419 19 479 50 q 279 -12 359 -12 m 309 75 q 431 106 377 75 q 522 187 486 138 l 522 321 q 263 288 342 319 q 185 183 185 256 q 217 104 185 134 q 309 75 248 75 m 379 732 q 277 769 317 732 q 238 869 238 807 q 277 968 238 930 q 379 1006 317 1006 q 481 968 441 1006 q 520 869 520 930 q 481 769 520 807 q 379 732 441 732 m 379 796 q 431 817 411 796 q 450 869 450 837 q 431 922 450 901 q 379 943 411 943 q 328 922 348 943 q 309 869 309 901 q 328 817 309 837 q 379 796 348 796 z "},"ǻ":{"ha":738,"x_min":72,"x_max":635,"o":"m 279 -12 q 175 9 222 -12 q 100 74 128 31 q 72 178 72 116 q 127 313 72 267 q 285 376 183 359 q 523 394 387 393 l 523 440 q 481 556 523 525 q 374 588 439 588 q 259 553 306 588 q 212 444 212 519 l 102 444 q 137 576 102 526 q 234 649 172 626 q 374 672 295 672 q 472 663 425 672 q 555 628 518 653 q 614 558 592 603 q 635 441 635 513 l 635 0 l 530 0 l 525 100 q 419 19 479 50 q 279 -12 359 -12 m 309 75 q 431 106 377 75 q 522 187 486 138 l 522 321 q 263 288 342 319 q 185 183 185 256 q 217 104 185 134 q 309 75 248 75 m 379 732 q 277 769 317 732 q 238 869 238 807 q 277 968 238 930 q 379 1006 317 1006 q 481 968 441 1006 q 520 869 520 930 q 481 769 520 807 q 379 732 441 732 m 379 796 q 431 817 411 796 q 450 869 450 837 q 431 922 450 901 q 379 943 411 943 q 328 922 348 943 q 309 869 309 901 q 328 817 309 837 q 379 796 348 796 m 309 1019 l 446 1202 l 578 1202 l 396 1019 l 309 1019 z "},"ã":{"ha":738,"x_min":72,"x_max":635,"o":"m 279 -12 q 175 9 222 -12 q 100 74 128 31 q 72 178 72 116 q 127 313 72 267 q 285 376 183 359 q 523 394 387 393 l 523 440 q 481 556 523 525 q 374 588 439 588 q 259 553 306 588 q 212 444 212 519 l 102 444 q 137 576 102 526 q 234 649 172 626 q 374 672 295 672 q 472 663 425 672 q 555 628 518 653 q 614 558 592 603 q 635 441 635 513 l 635 0 l 530 0 l 525 100 q 419 19 479 50 q 279 -12 359 -12 m 309 75 q 431 106 377 75 q 522 187 486 138 l 522 321 q 263 288 342 319 q 185 183 185 256 q 217 104 185 134 q 309 75 248 75 m 182 772 q 214 871 189 834 q 290 907 239 907 q 345 898 318 907 q 397 877 372 888 q 437 861 419 867 q 470 855 455 855 q 497 869 486 855 q 511 911 508 882 l 577 911 q 546 815 570 850 q 472 779 522 779 q 416 788 442 779 q 366 808 389 798 q 325 824 342 818 q 292 831 307 831 q 262 817 273 831 q 248 772 252 802 l 182 772 z "},"æ":{"ha":1173,"x_min":72,"x_max":1101,"o":"m 825 -12 q 649 33 718 -12 q 547 156 580 78 q 513 330 513 233 q 546 508 513 431 q 644 629 578 585 q 812 672 710 672 q 1023 591 947 672 q 1100 357 1100 509 q 1099 333 1100 347 q 1097 313 1099 319 l 627 313 q 647 194 627 248 q 710 108 667 140 q 825 75 754 75 q 944 111 901 75 q 989 214 987 146 l 1101 214 q 1064 93 1098 144 q 969 15 1030 43 q 825 -12 909 -12 m 294 -12 q 133 38 193 -12 q 72 178 72 87 q 126 312 72 267 q 280 375 181 358 q 513 393 380 392 l 513 446 q 494 531 513 500 q 444 574 475 562 q 375 587 412 587 q 259 553 307 587 q 212 446 212 519 l 102 446 q 177 618 102 564 q 374 672 252 672 q 474 658 426 672 q 556 611 522 644 q 602 517 591 577 l 551 321 q 336 307 416 321 q 221 264 256 293 q 185 187 185 235 q 217 105 185 136 q 311 75 248 75 q 398 91 357 75 q 476 141 440 108 q 543 226 513 175 l 589 179 q 526 85 568 129 q 426 15 484 41 q 294 -12 368 -12 m 627 395 l 987 395 q 940 536 985 488 q 812 585 894 585 q 682 536 728 585 q 627 395 635 488 z "},"ǽ":{"ha":1173,"x_min":72,"x_max":1101,"o":"m 825 -12 q 649 33 718 -12 q 547 156 580 78 q 513 330 513 233 q 546 508 513 431 q 644 629 578 585 q 812 672 710 672 q 1023 591 947 672 q 1100 357 1100 509 q 1099 333 1100 347 q 1097 313 1099 319 l 627 313 q 647 194 627 248 q 710 108 667 140 q 825 75 754 75 q 944 111 901 75 q 989 214 987 146 l 1101 214 q 1064 93 1098 144 q 969 15 1030 43 q 825 -12 909 -12 m 294 -12 q 133 38 193 -12 q 72 178 72 87 q 126 312 72 267 q 280 375 181 358 q 513 393 380 392 l 513 446 q 494 531 513 500 q 444 574 475 562 q 375 587 412 587 q 259 553 307 587 q 212 446 212 519 l 102 446 q 177 618 102 564 q 374 672 252 672 q 474 658 426 672 q 556 611 522 644 q 602 517 591 577 l 551 321 q 336 307 416 321 q 221 264 256 293 q 185 187 185 235 q 217 105 185 136 q 311 75 248 75 q 398 91 357 75 q 476 141 440 108 q 543 226 513 175 l 589 179 q 526 85 568 129 q 426 15 484 41 q 294 -12 368 -12 m 627 395 l 987 395 q 940 536 985 488 q 812 585 894 585 q 682 536 728 585 q 627 395 635 488 m 523 753 l 661 935 l 792 935 l 610 753 l 523 753 z "},"b":{"ha":779,"x_min":109,"x_max":707,"o":"m 430 -12 q 305 16 357 -12 q 221 94 254 44 l 215 0 l 109 0 l 109 913 l 222 913 l 222 555 q 313 640 257 607 q 444 672 369 672 q 584 634 525 672 q 675 519 643 595 q 707 330 707 444 q 673 141 707 218 q 576 26 639 65 q 430 -12 514 -12 m 409 81 q 545 145 498 81 q 591 329 591 210 q 548 516 591 451 q 420 581 505 581 q 300 543 349 581 q 222 451 251 505 l 222 197 q 295 114 249 146 q 409 81 341 81 z "},"ɓ":{"ha":779,"x_min":109,"x_max":707,"o":"m 430 -12 q 305 16 357 -12 q 221 94 254 44 l 215 0 l 109 0 l 109 711 l 222 718 l 222 555 q 313 640 257 607 q 444 672 369 672 q 584 634 525 672 q 675 519 643 595 q 707 330 707 444 q 673 141 707 218 q 576 26 639 65 q 430 -12 514 -12 m 409 81 q 545 145 498 81 q 591 329 591 210 q 548 516 591 451 q 420 581 505 581 q 300 543 349 581 q 222 451 251 505 l 222 197 q 295 114 249 146 q 409 81 341 81 m 109 711 q 154 864 109 814 q 298 913 198 913 l 351 913 l 351 820 l 321 820 q 248 797 273 820 q 222 718 222 773 l 109 711 z "},"c":{"ha":729,"x_min":72,"x_max":657,"o":"m 378 -12 q 219 26 288 -12 q 111 139 150 64 q 72 329 72 215 q 110 519 72 443 q 217 634 149 595 q 378 672 286 672 q 516 647 454 672 q 614 571 577 622 q 652 444 650 521 l 541 444 q 494 544 536 507 q 380 581 452 581 q 236 514 283 581 q 189 329 189 448 q 210 194 189 250 q 273 110 231 139 q 380 80 316 80 q 498 118 452 80 q 545 228 543 155 l 657 228 q 618 95 655 148 q 518 15 581 41 q 378 -12 456 -12 z "},"ć":{"ha":729,"x_min":72,"x_max":657,"o":"m 378 -12 q 219 26 288 -12 q 111 139 150 64 q 72 329 72 215 q 110 519 72 443 q 217 634 149 595 q 378 672 286 672 q 516 647 454 672 q 614 571 577 622 q 652 444 650 521 l 541 444 q 494 544 536 507 q 380 581 452 581 q 236 514 283 581 q 189 329 189 448 q 210 194 189 250 q 273 110 231 139 q 380 80 316 80 q 498 118 452 80 q 545 228 543 155 l 657 228 q 618 95 655 148 q 518 15 581 41 q 378 -12 456 -12 m 304 753 l 441 935 l 573 935 l 391 753 l 304 753 z "},"č":{"ha":729,"x_min":72,"x_max":657,"o":"m 378 -12 q 219 26 288 -12 q 111 139 150 64 q 72 329 72 215 q 110 519 72 443 q 217 634 149 595 q 378 672 286 672 q 516 647 454 672 q 614 571 577 622 q 652 444 650 521 l 541 444 q 494 544 536 507 q 380 581 452 581 q 236 514 283 581 q 189 329 189 448 q 210 194 189 250 q 273 110 231 139 q 380 80 316 80 q 498 118 452 80 q 545 228 543 155 l 657 228 q 618 95 655 148 q 518 15 581 41 q 378 -12 456 -12 m 311 753 l 165 935 l 259 935 l 368 819 l 475 935 l 569 935 l 424 753 l 311 753 z "},"ç":{"ha":729,"x_min":72,"x_max":657,"o":"m 378 -12 q 219 26 288 -12 q 111 139 150 64 q 72 329 72 215 q 110 519 72 443 q 217 634 149 595 q 378 672 286 672 q 516 647 454 672 q 614 571 577 622 q 652 444 650 521 l 541 444 q 494 544 536 507 q 380 581 452 581 q 236 514 283 581 q 189 329 189 448 q 210 194 189 250 q 273 110 231 139 q 380 80 316 80 q 498 118 452 80 q 545 228 543 155 l 657 228 q 618 95 655 148 q 518 15 581 41 q 378 -12 456 -12 m 370 -259 q 302 -253 331 -259 q 247 -236 273 -246 l 265 -173 q 310 -187 283 -181 q 366 -193 338 -193 q 407 -181 390 -193 q 424 -149 424 -170 q 402 -113 424 -125 q 327 -95 380 -101 l 297 -92 l 387 28 l 441 3 l 395 -60 l 375 -44 q 474 -73 439 -47 q 509 -146 509 -98 q 490 -209 509 -184 q 441 -247 472 -234 q 370 -259 410 -259 z "},"ĉ":{"ha":729,"x_min":72,"x_max":657,"o":"m 378 -12 q 219 26 288 -12 q 111 139 150 64 q 72 329 72 215 q 110 519 72 443 q 217 634 149 595 q 378 672 286 672 q 516 647 454 672 q 614 571 577 622 q 652 444 650 521 l 541 444 q 494 544 536 507 q 380 581 452 581 q 236 514 283 581 q 189 329 189 448 q 210 194 189 250 q 273 110 231 139 q 380 80 316 80 q 498 118 452 80 q 545 228 543 155 l 657 228 q 618 95 655 148 q 518 15 581 41 q 378 -12 456 -12 m 167 753 l 312 935 l 425 935 l 570 753 l 476 753 l 369 869 l 260 753 l 167 753 z "},"ċ":{"ha":729,"x_min":72,"x_max":657,"o":"m 378 -12 q 219 26 288 -12 q 111 139 150 64 q 72 329 72 215 q 110 519 72 443 q 217 634 149 595 q 378 672 286 672 q 516 647 454 672 q 614 571 577 622 q 652 444 650 521 l 541 444 q 494 544 536 507 q 380 581 452 581 q 236 514 283 581 q 189 329 189 448 q 210 194 189 250 q 273 110 231 139 q 380 80 316 80 q 498 118 452 80 q 545 228 543 155 l 657 228 q 618 95 655 148 q 518 15 581 41 q 378 -12 456 -12 m 368 785 q 316 803 336 785 q 296 850 296 822 q 316 898 296 879 q 368 916 336 916 q 419 898 399 916 q 439 850 439 879 q 419 803 439 822 q 368 785 399 785 z "},"d":{"ha":779,"x_min":72,"x_max":670,"o":"m 335 -12 q 195 26 254 -12 q 104 142 136 65 q 72 332 72 219 q 106 520 72 445 q 203 634 140 595 q 350 672 265 672 q 473 641 420 672 q 557 557 525 610 l 557 913 l 670 913 l 670 0 l 563 0 l 557 96 q 466 18 522 48 q 335 -12 410 -12 m 358 81 q 479 115 431 81 q 557 197 527 149 l 557 452 q 484 544 529 507 q 370 580 439 580 q 234 515 280 580 q 189 332 189 451 q 232 145 189 210 q 358 81 275 81 z "},"ð":{"ha":766,"x_min":72,"x_max":694,"o":"m 381 -11 q 214 29 283 -11 q 108 144 144 69 q 72 321 72 219 q 108 500 72 425 q 211 616 144 575 q 372 657 279 657 q 510 617 461 657 q 582 509 558 578 l 566 509 q 532 577 550 546 q 489 637 514 608 q 428 701 464 667 q 338 779 391 735 l 180 913 l 327 913 l 427 829 q 582 670 524 749 q 668 510 641 591 q 694 340 694 428 q 657 151 694 229 q 551 31 621 72 q 381 -11 481 -11 m 380 79 q 496 111 453 79 q 558 198 539 143 q 578 321 578 253 q 558 446 578 391 q 496 533 539 500 q 380 565 453 565 q 268 533 309 565 q 207 446 226 500 q 189 321 189 391 q 207 198 189 253 q 268 111 226 143 q 380 79 309 79 m 170 690 l 170 775 l 370 848 l 370 845 l 570 918 l 570 834 l 370 762 l 370 764 l 170 690 z "},"ď":{"ha":779,"x_min":72,"x_max":876,"o":"m 335 -12 q 195 26 254 -12 q 104 142 136 65 q 72 332 72 219 q 106 520 72 445 q 203 634 140 595 q 350 672 265 672 q 473 641 420 672 q 557 557 525 610 l 557 913 l 670 913 l 670 0 l 563 0 l 557 96 q 466 18 522 48 q 335 -12 410 -12 m 358 81 q 479 115 431 81 q 557 197 527 149 l 557 452 q 484 544 529 507 q 370 580 439 580 q 234 515 280 580 q 189 332 189 451 q 232 145 189 210 q 358 81 275 81 m 718 697 l 763 913 l 876 913 l 794 697 l 718 697 z "},"đ":{"ha":779,"x_min":72,"x_max":756,"o":"m 402 758 l 402 831 l 756 831 l 756 758 l 402 758 m 335 -12 q 195 26 254 -12 q 104 142 136 65 q 72 332 72 219 q 106 520 72 445 q 203 634 140 595 q 350 672 265 672 q 473 641 420 672 q 557 557 525 610 l 557 913 l 670 913 l 670 0 l 563 0 l 557 96 q 466 18 522 48 q 335 -12 410 -12 m 358 81 q 479 115 431 81 q 557 197 527 149 l 557 452 q 484 544 529 507 q 370 580 439 580 q 234 515 280 580 q 189 332 189 451 q 232 145 189 210 q 358 81 275 81 z "},"ɗ":{"ha":798,"x_min":72,"x_max":798,"o":"m 335 -12 q 195 26 254 -12 q 104 142 136 65 q 72 332 72 219 q 106 520 72 445 q 203 634 140 595 q 350 672 265 672 q 473 641 420 672 q 557 557 525 610 l 557 708 l 671 715 l 670 0 l 563 0 l 557 96 q 466 18 522 48 q 335 -12 410 -12 m 358 81 q 479 115 431 81 q 557 197 527 149 l 557 452 q 484 544 529 507 q 370 580 439 580 q 234 515 280 580 q 189 332 189 451 q 232 145 189 210 q 358 81 275 81 m 557 708 q 601 861 557 808 q 745 913 645 913 l 798 913 l 798 820 l 768 820 q 694 795 718 820 q 671 715 669 770 l 557 708 z "},"ɖ":{"ha":779,"x_min":72,"x_max":795,"o":"m 335 -12 q 195 26 254 -12 q 104 142 136 65 q 72 332 72 219 q 106 520 72 445 q 203 634 140 595 q 350 672 265 672 q 473 641 420 672 q 557 557 525 610 l 557 913 l 670 913 l 670 2 l 557 8 l 557 96 q 466 18 522 48 q 335 -12 410 -12 m 743 -195 q 601 -143 644 -195 q 557 8 557 -91 l 670 2 q 693 -78 668 -53 q 766 -103 718 -103 l 795 -103 l 795 -195 l 743 -195 m 358 81 q 479 115 431 81 q 557 197 527 149 l 557 452 q 484 544 529 507 q 370 580 439 580 q 234 515 280 580 q 189 332 189 451 q 232 145 189 210 q 358 81 275 81 z "},"e":{"ha":732,"x_min":72,"x_max":659,"o":"m 384 -12 q 207 33 276 -12 q 105 156 138 78 q 72 330 72 233 q 104 508 72 431 q 202 629 136 585 q 370 672 269 672 q 582 591 505 672 q 659 357 659 509 q 658 333 659 347 q 656 313 657 319 l 185 313 q 206 194 186 248 q 269 108 226 140 q 384 75 313 75 q 503 111 460 75 q 547 214 545 146 l 659 214 q 623 93 657 144 q 528 15 589 43 q 384 -12 467 -12 m 186 395 l 547 395 q 498 536 545 488 q 370 585 452 585 q 240 537 288 585 q 186 395 193 488 z "},"é":{"ha":732,"x_min":72,"x_max":659,"o":"m 384 -12 q 207 33 276 -12 q 105 156 138 78 q 72 330 72 233 q 104 508 72 431 q 202 629 136 585 q 370 672 269 672 q 582 591 505 672 q 659 357 659 509 q 658 333 659 347 q 656 313 657 319 l 185 313 q 206 194 186 248 q 269 108 226 140 q 384 75 313 75 q 503 111 460 75 q 547 214 545 146 l 659 214 q 623 93 657 144 q 528 15 589 43 q 384 -12 467 -12 m 186 395 l 547 395 q 498 536 545 488 q 370 585 452 585 q 240 537 288 585 q 186 395 193 488 m 309 753 l 447 935 l 578 935 l 397 753 l 309 753 z "},"ĕ":{"ha":732,"x_min":72,"x_max":659,"o":"m 384 -12 q 207 33 276 -12 q 105 156 138 78 q 72 330 72 233 q 104 508 72 431 q 202 629 136 585 q 370 672 269 672 q 582 591 505 672 q 659 357 659 509 q 658 333 659 347 q 656 313 657 319 l 185 313 q 206 194 186 248 q 269 108 226 140 q 384 75 313 75 q 503 111 460 75 q 547 214 545 146 l 659 214 q 623 93 657 144 q 528 15 589 43 q 384 -12 467 -12 m 186 395 l 547 395 q 498 536 545 488 q 370 585 452 585 q 240 537 288 585 q 186 395 193 488 m 372 758 q 248 803 294 758 q 191 929 201 848 l 261 929 q 300 854 268 877 q 372 832 332 832 q 446 855 412 832 q 486 929 480 878 l 552 929 q 497 804 544 850 q 372 758 450 758 z "},"ě":{"ha":732,"x_min":72,"x_max":659,"o":"m 384 -12 q 207 33 276 -12 q 105 156 138 78 q 72 330 72 233 q 104 508 72 431 q 202 629 136 585 q 370 672 269 672 q 582 591 505 672 q 659 357 659 509 q 658 333 659 347 q 656 313 657 319 l 185 313 q 206 194 186 248 q 269 108 226 140 q 384 75 313 75 q 503 111 460 75 q 547 214 545 146 l 659 214 q 623 93 657 144 q 528 15 589 43 q 384 -12 467 -12 m 186 395 l 547 395 q 498 536 545 488 q 370 585 452 585 q 240 537 288 585 q 186 395 193 488 m 316 753 l 171 935 l 264 935 l 373 819 l 480 935 l 574 935 l 429 753 l 316 753 z "},"ê":{"ha":732,"x_min":72,"x_max":659,"o":"m 384 -12 q 207 33 276 -12 q 105 156 138 78 q 72 330 72 233 q 104 508 72 431 q 202 629 136 585 q 370 672 269 672 q 582 591 505 672 q 659 357 659 509 q 658 333 659 347 q 656 313 657 319 l 185 313 q 206 194 186 248 q 269 108 226 140 q 384 75 313 75 q 503 111 460 75 q 547 214 545 146 l 659 214 q 623 93 657 144 q 528 15 589 43 q 384 -12 467 -12 m 186 395 l 547 395 q 498 536 545 488 q 370 585 452 585 q 240 537 288 585 q 186 395 193 488 m 172 753 l 317 935 l 431 935 l 576 753 l 481 753 l 374 869 l 266 753 l 172 753 z "},"ế":{"ha":732,"x_min":72,"x_max":731,"o":"m 384 -12 q 207 33 276 -12 q 105 156 138 78 q 72 330 72 233 q 104 508 72 431 q 202 629 136 585 q 370 672 269 672 q 582 591 505 672 q 659 357 659 509 q 658 333 659 347 q 656 313 657 319 l 185 313 q 206 194 186 248 q 269 108 226 140 q 384 75 313 75 q 503 111 460 75 q 547 214 545 146 l 659 214 q 623 93 657 144 q 528 15 589 43 q 384 -12 467 -12 m 186 395 l 547 395 q 498 536 545 488 q 370 585 452 585 q 240 537 288 585 q 186 395 193 488 m 163 751 l 309 933 l 422 933 l 567 751 l 473 751 l 366 867 l 258 751 l 163 751 m 496 865 l 607 1047 l 731 1047 l 578 865 l 496 865 z "},"ệ":{"ha":732,"x_min":72,"x_max":659,"o":"m 384 -12 q 207 33 276 -12 q 105 156 138 78 q 72 330 72 233 q 104 508 72 431 q 202 629 136 585 q 370 672 269 672 q 582 591 505 672 q 659 357 659 509 q 658 333 659 347 q 656 313 657 319 l 185 313 q 206 194 186 248 q 269 108 226 140 q 384 75 313 75 q 503 111 460 75 q 547 214 545 146 l 659 214 q 623 93 657 144 q 528 15 589 43 q 384 -12 467 -12 m 186 395 l 547 395 q 498 536 545 488 q 370 585 452 585 q 240 537 288 585 q 186 395 193 488 m 377 -197 q 326 -179 345 -197 q 306 -132 306 -160 q 326 -84 306 -103 q 377 -66 345 -66 q 429 -84 409 -66 q 448 -132 448 -103 q 429 -179 448 -160 q 377 -197 409 -197 m 172 753 l 317 935 l 431 935 l 576 753 l 481 753 l 374 869 l 266 753 l 172 753 z "},"ề":{"ha":732,"x_min":-5,"x_max":659,"o":"m 384 -12 q 207 33 276 -12 q 105 156 138 78 q 72 330 72 233 q 104 508 72 431 q 202 629 136 585 q 370 672 269 672 q 582 591 505 672 q 659 357 659 509 q 658 333 659 347 q 656 313 657 319 l 185 313 q 206 194 186 248 q 269 108 226 140 q 384 75 313 75 q 503 111 460 75 q 547 214 545 146 l 659 214 q 623 93 657 144 q 528 15 589 43 q 384 -12 467 -12 m 186 395 l 547 395 q 498 536 545 488 q 370 585 452 585 q 240 537 288 585 q 186 395 193 488 m 161 751 l 306 933 l 419 933 l 564 751 l 471 751 l 363 867 l 255 751 l 161 751 m 229 865 l 149 865 l -5 1047 l 120 1047 l 229 865 z "},"ể":{"ha":732,"x_min":72,"x_max":659,"o":"m 384 -12 q 207 33 276 -12 q 105 156 138 78 q 72 330 72 233 q 104 508 72 431 q 202 629 136 585 q 370 672 269 672 q 582 591 505 672 q 659 357 659 509 q 658 333 659 347 q 656 313 657 319 l 185 313 q 206 194 186 248 q 269 108 226 140 q 384 75 313 75 q 503 111 460 75 q 547 214 545 146 l 659 214 q 623 93 657 144 q 528 15 589 43 q 384 -12 467 -12 m 186 395 l 547 395 q 498 536 545 488 q 370 585 452 585 q 240 537 288 585 q 186 395 193 488 m 161 751 l 306 933 l 419 933 l 564 751 l 471 751 l 363 867 l 255 751 l 161 751 m 525 862 l 496 903 q 539 927 520 911 q 559 967 559 943 q 541 1001 559 993 q 491 1009 524 1009 l 482 1009 l 482 1078 l 505 1078 q 611 1054 575 1078 q 647 982 647 1030 q 613 901 647 931 q 525 862 579 871 z "},"ễ":{"ha":732,"x_min":72,"x_max":659,"o":"m 384 -12 q 207 33 276 -12 q 105 156 138 78 q 72 330 72 233 q 104 508 72 431 q 202 629 136 585 q 370 672 269 672 q 582 591 505 672 q 659 357 659 509 q 658 333 659 347 q 656 313 657 319 l 185 313 q 206 194 186 248 q 269 108 226 140 q 384 75 313 75 q 503 111 460 75 q 547 214 545 146 l 659 214 q 623 93 657 144 q 528 15 589 43 q 384 -12 467 -12 m 186 395 l 547 395 q 498 536 545 488 q 370 585 452 585 q 240 537 288 585 q 186 395 193 488 m 161 751 l 306 933 l 419 933 l 564 751 l 471 751 l 363 867 l 255 751 l 161 751 m 153 981 q 190 1080 161 1044 q 276 1117 218 1117 q 330 1107 303 1117 q 382 1087 357 1098 q 422 1071 404 1077 q 455 1065 439 1065 q 491 1078 477 1065 q 509 1120 505 1092 l 576 1120 q 541 1024 568 1060 q 457 989 513 989 q 401 998 428 989 q 351 1017 374 1007 q 310 1034 327 1027 q 277 1040 292 1040 q 239 1026 254 1040 q 220 981 224 1012 l 153 981 z "},"ë":{"ha":732,"x_min":72,"x_max":659,"o":"m 384 -12 q 207 33 276 -12 q 105 156 138 78 q 72 330 72 233 q 104 508 72 431 q 202 629 136 585 q 370 672 269 672 q 582 591 505 672 q 659 357 659 509 q 658 333 659 347 q 656 313 657 319 l 185 313 q 206 194 186 248 q 269 108 226 140 q 384 75 313 75 q 503 111 460 75 q 547 214 545 146 l 659 214 q 623 93 657 144 q 528 15 589 43 q 384 -12 467 -12 m 186 395 l 547 395 q 498 536 545 488 q 370 585 452 585 q 240 537 288 585 q 186 395 193 488 m 492 789 q 447 806 465 789 q 429 850 429 823 q 447 894 429 877 q 492 911 465 911 q 538 894 519 911 q 556 850 556 877 q 538 806 556 823 q 492 789 519 789 m 254 789 q 209 806 227 789 q 190 850 190 823 q 209 894 190 877 q 254 911 227 911 q 299 894 281 911 q 317 850 317 877 q 299 806 317 823 q 254 789 281 789 z "},"ė":{"ha":732,"x_min":72,"x_max":659,"o":"m 384 -12 q 207 33 276 -12 q 105 156 138 78 q 72 330 72 233 q 104 508 72 431 q 202 629 136 585 q 370 672 269 672 q 582 591 505 672 q 659 357 659 509 q 658 333 659 347 q 656 313 657 319 l 185 313 q 206 194 186 248 q 269 108 226 140 q 384 75 313 75 q 503 111 460 75 q 547 214 545 146 l 659 214 q 623 93 657 144 q 528 15 589 43 q 384 -12 467 -12 m 186 395 l 547 395 q 498 536 545 488 q 370 585 452 585 q 240 537 288 585 q 186 395 193 488 m 373 785 q 321 803 341 785 q 302 850 302 822 q 321 898 302 879 q 373 916 341 916 q 425 898 405 916 q 444 850 444 879 q 425 803 444 822 q 373 785 405 785 z "},"ẹ":{"ha":732,"x_min":72,"x_max":659,"o":"m 384 -12 q 207 33 276 -12 q 105 156 138 78 q 72 330 72 233 q 104 508 72 431 q 202 629 136 585 q 370 672 269 672 q 582 591 505 672 q 659 357 659 509 q 658 333 659 347 q 656 313 657 319 l 185 313 q 206 194 186 248 q 269 108 226 140 q 384 75 313 75 q 503 111 460 75 q 547 214 545 146 l 659 214 q 623 93 657 144 q 528 15 589 43 q 384 -12 467 -12 m 186 395 l 547 395 q 498 536 545 488 q 370 585 452 585 q 240 537 288 585 q 186 395 193 488 m 377 -197 q 326 -179 345 -197 q 306 -132 306 -160 q 326 -84 306 -103 q 377 -66 345 -66 q 429 -84 409 -66 q 448 -132 448 -103 q 429 -179 448 -160 q 377 -197 409 -197 z "},"è":{"ha":732,"x_min":72,"x_max":659,"o":"m 384 -12 q 207 33 276 -12 q 105 156 138 78 q 72 330 72 233 q 104 508 72 431 q 202 629 136 585 q 370 672 269 672 q 582 591 505 672 q 659 357 659 509 q 658 333 659 347 q 656 313 657 319 l 185 313 q 206 194 186 248 q 269 108 226 140 q 384 75 313 75 q 503 111 460 75 q 547 214 545 146 l 659 214 q 623 93 657 144 q 528 15 589 43 q 384 -12 467 -12 m 186 395 l 547 395 q 498 536 545 488 q 370 585 452 585 q 240 537 288 585 q 186 395 193 488 m 349 753 l 168 935 l 298 935 l 436 753 l 349 753 z "},"ẻ":{"ha":732,"x_min":72,"x_max":659,"o":"m 384 -12 q 207 33 276 -12 q 105 156 138 78 q 72 330 72 233 q 104 508 72 431 q 202 629 136 585 q 370 672 269 672 q 582 591 505 672 q 659 357 659 509 q 658 333 659 347 q 656 313 657 319 l 185 313 q 206 194 186 248 q 269 108 226 140 q 384 75 313 75 q 503 111 460 75 q 547 214 545 146 l 659 214 q 623 93 657 144 q 528 15 589 43 q 384 -12 467 -12 m 186 395 l 547 395 q 498 536 545 488 q 370 585 452 585 q 240 537 288 585 q 186 395 193 488 m 339 768 l 311 810 q 354 833 334 817 q 373 873 373 849 q 356 906 373 898 q 305 915 338 915 l 296 915 l 296 984 l 319 984 q 439 960 399 984 q 479 885 479 936 q 461 828 479 853 q 412 789 444 804 q 339 768 381 774 m 311 810 l 387 802 l 387 738 l 311 738 l 311 810 z "},"ē":{"ha":732,"x_min":72,"x_max":659,"o":"m 384 -12 q 207 33 276 -12 q 105 156 138 78 q 72 330 72 233 q 104 508 72 431 q 202 629 136 585 q 370 672 269 672 q 582 591 505 672 q 659 357 659 509 q 658 333 659 347 q 656 313 657 319 l 185 313 q 206 194 186 248 q 269 108 226 140 q 384 75 313 75 q 503 111 460 75 q 547 214 545 146 l 659 214 q 623 93 657 144 q 528 15 589 43 q 384 -12 467 -12 m 186 395 l 547 395 q 498 536 545 488 q 370 585 452 585 q 240 537 288 585 q 186 395 193 488 m 189 799 l 189 882 l 558 882 l 558 799 l 189 799 z "},"ę":{"ha":732,"x_min":72,"x_max":659,"o":"m 384 -12 q 207 33 276 -12 q 105 156 138 78 q 72 330 72 233 q 104 508 72 431 q 202 629 136 585 q 370 672 269 672 q 582 591 505 672 q 659 357 659 509 q 658 333 659 347 q 656 313 657 319 l 185 313 q 206 194 186 248 q 269 108 226 140 q 384 75 313 75 q 503 111 460 75 q 547 214 545 146 l 659 214 q 623 93 657 144 q 528 15 589 43 q 384 -12 467 -12 m 186 395 l 547 395 q 498 536 545 488 q 370 585 452 585 q 240 537 288 585 q 186 395 193 488 m 435 -254 q 347 -225 383 -254 q 311 -144 311 -196 q 332 -76 311 -110 q 390 -15 353 -42 q 470 23 426 12 l 513 11 q 430 -63 453 -28 q 407 -127 407 -99 q 421 -164 407 -151 q 456 -176 435 -176 q 499 -171 479 -176 q 541 -155 519 -165 l 541 -231 q 497 -248 521 -241 q 435 -254 474 -254 z "},"ɛ":{"ha":688,"x_min":64,"x_max":638,"o":"m 339 -11 q 138 38 211 -11 q 64 180 64 86 q 109 291 64 252 q 237 347 153 330 q 126 407 159 364 q 94 499 94 450 q 116 579 94 540 q 193 645 139 619 q 339 671 247 671 q 529 623 459 671 q 602 483 598 576 l 494 483 q 451 556 494 527 q 339 585 409 585 q 233 558 265 585 q 201 492 201 531 q 246 416 201 442 q 355 390 291 390 l 432 390 l 432 302 l 374 302 q 222 274 269 302 q 174 189 174 245 q 220 103 174 130 q 340 77 267 77 q 478 107 430 77 q 530 205 527 138 l 638 205 q 600 87 633 135 q 501 14 566 39 q 339 -11 437 -11 z "},"ʃ":{"ha":354,"x_min":-1,"x_max":355,"o":"m -1 -216 l -1 -125 l 28 -125 q 104 -92 89 -125 q 120 -1 120 -60 l 120 699 q 136 814 120 766 q 195 887 152 862 q 318 912 237 912 l 355 912 l 355 821 l 325 821 q 250 788 265 821 q 234 693 234 755 l 234 -1 q 218 -117 234 -69 q 160 -191 202 -165 q 36 -216 117 -216 l -1 -216 z "},"ẽ":{"ha":732,"x_min":72,"x_max":659,"o":"m 384 -12 q 207 33 276 -12 q 105 156 138 78 q 72 330 72 233 q 104 508 72 431 q 202 629 136 585 q 370 672 269 672 q 582 591 505 672 q 659 357 659 509 q 658 333 659 347 q 656 313 657 319 l 185 313 q 206 194 186 248 q 269 108 226 140 q 384 75 313 75 q 503 111 460 75 q 547 214 545 146 l 659 214 q 623 93 657 144 q 528 15 589 43 q 384 -12 467 -12 m 186 395 l 547 395 q 498 536 545 488 q 370 585 452 585 q 240 537 288 585 q 186 395 193 488 m 176 772 q 208 871 182 834 q 284 907 233 907 q 339 898 312 907 q 391 877 366 888 q 431 861 413 867 q 464 855 449 855 q 491 869 480 855 q 505 911 502 882 l 571 911 q 540 815 564 850 q 466 779 516 779 q 410 788 436 779 q 359 808 383 798 q 319 824 336 818 q 286 831 301 831 q 256 817 267 831 q 242 772 245 802 l 176 772 z "},"ǝ":{"ha":732,"x_min":73,"x_max":660,"o":"m 348 673 q 525 628 456 673 q 627 505 593 583 q 660 330 660 427 q 628 152 660 229 q 529 32 595 75 q 361 -12 463 -12 q 150 70 227 -12 q 73 304 73 152 q 74 328 73 314 q 76 348 75 342 l 547 348 q 526 467 546 413 q 463 553 506 520 q 348 585 420 585 q 230 550 273 585 q 184 447 186 514 l 73 447 q 109 567 75 517 q 203 645 142 618 q 348 673 264 673 m 546 265 l 185 265 q 233 124 187 174 q 361 75 279 75 q 491 124 444 75 q 546 265 538 172 z "},"ə":{"ha":732,"x_min":73,"x_max":660,"o":"m 348 673 q 525 628 456 673 q 627 505 593 583 q 660 330 660 427 q 628 152 660 229 q 529 32 595 75 q 361 -12 463 -12 q 150 70 227 -12 q 73 304 73 152 q 74 328 73 314 q 76 348 75 342 l 547 348 q 526 467 546 413 q 463 553 506 520 q 348 585 420 585 q 230 550 273 585 q 184 447 186 514 l 73 447 q 109 567 75 517 q 203 645 142 618 q 348 673 264 673 m 546 265 l 185 265 q 233 124 187 174 q 361 75 279 75 q 491 124 444 75 q 546 265 538 172 z "},"ʒ":{"ha":672,"x_min":26,"x_max":633,"o":"m 326 -257 q 106 -193 186 -257 q 26 -6 26 -128 l 132 -6 q 184 -124 132 -81 q 324 -166 235 -166 q 467 -120 416 -166 q 519 25 519 -74 q 490 133 519 90 q 407 197 461 176 q 275 218 352 218 l 191 218 l 191 303 l 454 569 l 79 569 l 79 661 l 589 661 l 589 580 l 311 299 q 483 267 411 299 q 594 174 555 235 q 633 25 633 113 q 549 -184 633 -111 q 326 -257 465 -257 z "},"f":{"ha":418,"x_min":22,"x_max":399,"o":"m 132 0 l 132 569 l 22 569 l 22 661 l 132 661 l 132 699 q 141 789 132 749 q 171 856 149 829 q 230 898 192 884 q 330 913 269 913 l 398 913 l 398 824 l 337 824 q 261 791 277 824 q 245 697 245 759 l 245 661 l 399 661 l 399 569 l 245 569 l 245 0 l 132 0 z "},"g":{"ha":673,"x_min":47,"x_max":655,"o":"m 339 -256 q 168 -231 232 -256 q 75 -166 104 -207 q 47 -78 47 -125 q 96 24 47 -20 q 248 87 145 69 l 269 125 l 353 125 q 585 82 515 125 q 655 -52 655 39 q 575 -198 655 -141 q 339 -256 496 -256 m 336 -174 q 499 -141 452 -174 q 546 -60 546 -109 q 530 -11 546 -32 q 471 21 514 9 q 349 33 428 33 l 248 33 q 177 -7 202 21 q 152 -71 152 -35 q 195 -143 152 -112 q 336 -174 237 -174 m 246 39 q 145 65 182 45 q 92 110 108 85 q 77 158 77 135 q 103 221 77 191 q 191 269 130 250 l 248 234 q 191 208 212 224 q 170 172 170 192 q 182 148 170 159 q 225 131 195 138 q 309 125 255 125 l 246 39 m 331 214 q 193 245 250 214 q 107 328 136 277 q 78 439 78 379 q 107 553 78 502 q 194 635 137 605 q 334 666 252 666 q 475 635 419 666 q 559 553 532 605 q 587 439 587 502 q 559 327 587 378 q 474 244 531 275 q 331 214 417 214 m 330 291 q 438 328 395 291 q 480 439 480 366 q 440 552 480 515 q 334 589 400 589 q 228 551 270 589 q 185 439 185 513 q 229 328 185 365 q 330 291 273 291 m 503 593 l 457 636 q 533 723 486 700 q 655 748 581 746 l 655 652 q 568 643 608 652 q 503 593 528 633 z "},"ɣ":{"ha":641,"x_min":0,"x_max":641,"o":"m 267 150 l 0 661 l 120 661 l 321 256 l 526 661 l 641 661 l 378 150 l 267 150 m 320 -157 q 361 -137 349 -157 q 374 -83 374 -117 q 361 -7 374 -52 q 320 80 349 38 q 282 -7 294 38 q 271 -83 271 -52 q 282 -137 271 -117 q 320 -157 294 -157 m 320 -243 q 207 -201 246 -243 q 167 -87 167 -159 q 185 8 167 -46 q 238 125 203 63 q 321 248 273 186 q 408 125 373 186 q 460 10 443 64 q 478 -87 478 -45 q 437 -201 478 -159 q 320 -243 397 -243 z "},"ğ":{"ha":673,"x_min":47,"x_max":655,"o":"m 339 -256 q 168 -231 232 -256 q 75 -166 104 -207 q 47 -78 47 -125 q 96 24 47 -20 q 248 87 145 69 l 269 125 l 353 125 q 585 82 515 125 q 655 -52 655 39 q 575 -198 655 -141 q 339 -256 496 -256 m 336 -174 q 499 -141 452 -174 q 546 -60 546 -109 q 530 -11 546 -32 q 471 21 514 9 q 349 33 428 33 l 248 33 q 177 -7 202 21 q 152 -71 152 -35 q 195 -143 152 -112 q 336 -174 237 -174 m 246 39 q 145 65 182 45 q 92 110 108 85 q 77 158 77 135 q 103 221 77 191 q 191 269 130 250 l 248 234 q 191 208 212 224 q 170 172 170 192 q 182 148 170 159 q 225 131 195 138 q 309 125 255 125 l 246 39 m 331 214 q 193 245 250 214 q 107 328 136 277 q 78 439 78 379 q 107 553 78 502 q 194 635 137 605 q 334 666 252 666 q 475 635 419 666 q 559 553 532 605 q 587 439 587 502 q 559 327 587 378 q 474 244 531 275 q 331 214 417 214 m 330 291 q 438 328 395 291 q 480 439 480 366 q 440 552 480 515 q 334 589 400 589 q 228 551 270 589 q 185 439 185 513 q 229 328 185 365 q 330 291 273 291 m 503 593 l 457 636 q 533 723 486 700 q 655 748 581 746 l 655 652 q 568 643 608 652 q 503 593 528 633 m 336 758 q 212 803 259 758 q 156 929 165 848 l 226 929 q 265 854 233 877 q 336 832 297 832 q 411 855 377 832 q 451 929 445 878 l 517 929 q 461 804 509 850 q 336 758 414 758 z "},"ǧ":{"ha":673,"x_min":47,"x_max":655,"o":"m 339 -256 q 168 -231 232 -256 q 75 -166 104 -207 q 47 -78 47 -125 q 96 24 47 -20 q 248 87 145 69 l 269 125 l 353 125 q 585 82 515 125 q 655 -52 655 39 q 575 -198 655 -141 q 339 -256 496 -256 m 336 -174 q 499 -141 452 -174 q 546 -60 546 -109 q 530 -11 546 -32 q 471 21 514 9 q 349 33 428 33 l 248 33 q 177 -7 202 21 q 152 -71 152 -35 q 195 -143 152 -112 q 336 -174 237 -174 m 246 39 q 145 65 182 45 q 92 110 108 85 q 77 158 77 135 q 103 221 77 191 q 191 269 130 250 l 248 234 q 191 208 212 224 q 170 172 170 192 q 182 148 170 159 q 225 131 195 138 q 309 125 255 125 l 246 39 m 331 214 q 193 245 250 214 q 107 328 136 277 q 78 439 78 379 q 107 553 78 502 q 194 635 137 605 q 334 666 252 666 q 475 635 419 666 q 559 553 532 605 q 587 439 587 502 q 559 327 587 378 q 474 244 531 275 q 331 214 417 214 m 330 291 q 438 328 395 291 q 480 439 480 366 q 440 552 480 515 q 334 589 400 589 q 228 551 270 589 q 185 439 185 513 q 229 328 185 365 q 330 291 273 291 m 503 593 l 457 636 q 533 723 486 700 q 655 748 581 746 l 655 652 q 568 643 608 652 q 503 593 528 633 m 281 753 l 136 935 l 229 935 l 338 819 l 445 935 l 539 935 l 394 753 l 281 753 z "},"ĝ":{"ha":673,"x_min":47,"x_max":655,"o":"m 339 -256 q 168 -231 232 -256 q 75 -166 104 -207 q 47 -78 47 -125 q 96 24 47 -20 q 248 87 145 69 l 269 125 l 353 125 q 585 82 515 125 q 655 -52 655 39 q 575 -198 655 -141 q 339 -256 496 -256 m 336 -174 q 499 -141 452 -174 q 546 -60 546 -109 q 530 -11 546 -32 q 471 21 514 9 q 349 33 428 33 l 248 33 q 177 -7 202 21 q 152 -71 152 -35 q 195 -143 152 -112 q 336 -174 237 -174 m 246 39 q 145 65 182 45 q 92 110 108 85 q 77 158 77 135 q 103 221 77 191 q 191 269 130 250 l 248 234 q 191 208 212 224 q 170 172 170 192 q 182 148 170 159 q 225 131 195 138 q 309 125 255 125 l 246 39 m 331 214 q 193 245 250 214 q 107 328 136 277 q 78 439 78 379 q 107 553 78 502 q 194 635 137 605 q 334 666 252 666 q 475 635 419 666 q 559 553 532 605 q 587 439 587 502 q 559 327 587 378 q 474 244 531 275 q 331 214 417 214 m 330 291 q 438 328 395 291 q 480 439 480 366 q 440 552 480 515 q 334 589 400 589 q 228 551 270 589 q 185 439 185 513 q 229 328 185 365 q 330 291 273 291 m 503 593 l 457 636 q 533 723 486 700 q 655 748 581 746 l 655 652 q 568 643 608 652 q 503 593 528 633 m 137 753 l 282 935 l 395 935 l 541 753 l 446 753 l 339 869 l 231 753 l 137 753 z "},"ģ":{"ha":673,"x_min":47,"x_max":655,"o":"m 339 -256 q 168 -231 232 -256 q 75 -166 104 -207 q 47 -78 47 -125 q 96 24 47 -20 q 248 87 145 69 l 269 125 l 353 125 q 585 82 515 125 q 655 -52 655 39 q 575 -198 655 -141 q 339 -256 496 -256 m 336 -174 q 499 -141 452 -174 q 546 -60 546 -109 q 530 -11 546 -32 q 471 21 514 9 q 349 33 428 33 l 248 33 q 177 -7 202 21 q 152 -71 152 -35 q 195 -143 152 -112 q 336 -174 237 -174 m 246 39 q 145 65 182 45 q 92 110 108 85 q 77 158 77 135 q 103 221 77 191 q 191 269 130 250 l 248 234 q 191 208 212 224 q 170 172 170 192 q 182 148 170 159 q 225 131 195 138 q 309 125 255 125 l 246 39 m 331 214 q 193 245 250 214 q 107 328 136 277 q 78 439 78 379 q 107 553 78 502 q 194 635 137 605 q 334 666 252 666 q 475 635 419 666 q 559 553 532 605 q 587 439 587 502 q 559 327 587 378 q 474 244 531 275 q 331 214 417 214 m 330 291 q 438 328 395 291 q 480 439 480 366 q 440 552 480 515 q 334 589 400 589 q 228 551 270 589 q 185 439 185 513 q 229 328 185 365 q 330 291 273 291 m 503 593 l 457 636 q 533 723 486 700 q 655 748 581 746 l 655 652 q 568 643 608 652 q 503 593 528 633 m 334 734 q 283 754 304 734 q 262 811 262 773 q 281 880 262 849 q 331 933 300 911 q 398 962 361 954 l 413 916 q 372 891 392 907 q 344 854 352 876 q 386 834 370 850 q 402 795 402 818 q 384 752 402 770 q 334 734 365 734 z "},"ġ":{"ha":673,"x_min":47,"x_max":655,"o":"m 339 -256 q 168 -231 232 -256 q 75 -166 104 -207 q 47 -78 47 -125 q 96 24 47 -20 q 248 87 145 69 l 269 125 l 353 125 q 585 82 515 125 q 655 -52 655 39 q 575 -198 655 -141 q 339 -256 496 -256 m 336 -174 q 499 -141 452 -174 q 546 -60 546 -109 q 530 -11 546 -32 q 471 21 514 9 q 349 33 428 33 l 248 33 q 177 -7 202 21 q 152 -71 152 -35 q 195 -143 152 -112 q 336 -174 237 -174 m 246 39 q 145 65 182 45 q 92 110 108 85 q 77 158 77 135 q 103 221 77 191 q 191 269 130 250 l 248 234 q 191 208 212 224 q 170 172 170 192 q 182 148 170 159 q 225 131 195 138 q 309 125 255 125 l 246 39 m 331 214 q 193 245 250 214 q 107 328 136 277 q 78 439 78 379 q 107 553 78 502 q 194 635 137 605 q 334 666 252 666 q 475 635 419 666 q 559 553 532 605 q 587 439 587 502 q 559 327 587 378 q 474 244 531 275 q 331 214 417 214 m 330 291 q 438 328 395 291 q 480 439 480 366 q 440 552 480 515 q 334 589 400 589 q 228 551 270 589 q 185 439 185 513 q 229 328 185 365 q 330 291 273 291 m 503 593 l 457 636 q 533 723 486 700 q 655 748 581 746 l 655 652 q 568 643 608 652 q 503 593 528 633 m 338 785 q 286 803 306 785 q 267 850 267 822 q 286 898 267 879 q 338 916 306 916 q 389 898 370 916 q 409 850 409 879 q 389 803 409 822 q 338 785 370 785 z "},"h":{"ha":766,"x_min":109,"x_max":663,"o":"m 109 0 l 109 913 l 222 913 l 222 559 q 309 634 252 599 q 454 670 366 670 q 614 606 566 670 q 663 426 663 543 l 663 0 l 549 0 l 549 410 q 539 495 549 458 q 503 554 530 532 q 427 575 477 575 q 303 542 353 575 q 222 468 253 508 l 222 0 l 109 0 z "},"ħ":{"ha":766,"x_min":23,"x_max":663,"o":"m 23 758 l 23 831 l 378 831 l 378 758 l 23 758 m 109 0 l 109 913 l 222 913 l 222 559 q 309 634 252 599 q 454 670 366 670 q 614 606 566 670 q 663 426 663 543 l 663 0 l 549 0 l 549 410 q 539 495 549 458 q 503 554 530 532 q 427 575 477 575 q 303 542 353 575 q 222 468 253 508 l 222 0 l 109 0 z "},"ĥ":{"ha":766,"x_min":109,"x_max":663,"o":"m 109 0 l 109 913 l 222 913 l 222 559 q 309 634 252 599 q 454 670 366 670 q 614 606 566 670 q 663 426 663 543 l 663 0 l 549 0 l 549 410 q 539 495 549 458 q 503 554 530 532 q 427 575 477 575 q 303 542 353 575 q 222 468 253 508 l 222 0 l 109 0 m 182 1005 l 328 1187 l 441 1187 l 586 1005 l 492 1005 l 385 1122 l 276 1005 l 182 1005 z "},"i":{"ha":332,"x_min":95,"x_max":237,"o":"m 109 0 l 109 661 l 222 661 l 222 0 l 109 0 m 165 785 q 114 803 134 785 q 95 850 95 822 q 114 898 95 879 q 165 916 134 916 q 217 898 197 916 q 237 850 237 879 q 217 803 237 822 q 165 785 197 785 z "},"ı":{"ha":332,"x_min":109,"x_max":222,"o":"m 109 0 l 109 661 l 222 661 l 222 0 l 109 0 z "},"í":{"ha":332,"x_min":102,"x_max":371,"o":"m 109 0 l 109 661 l 222 661 l 222 0 l 109 0 m 102 753 l 239 935 l 371 935 l 189 753 l 102 753 z "},"ĭ":{"ha":332,"x_min":-16,"x_max":345,"o":"m 109 0 l 109 661 l 222 661 l 222 0 l 109 0 m 164 758 q 40 803 87 758 q -16 929 -7 848 l 54 929 q 93 854 60 877 q 164 832 125 832 q 239 855 205 832 q 279 929 273 878 l 345 929 q 289 804 336 850 q 164 758 242 758 z "},"î":{"ha":332,"x_min":-35,"x_max":368,"o":"m 109 0 l 109 661 l 222 661 l 222 0 l 109 0 m -35 753 l 110 935 l 223 935 l 368 753 l 274 753 l 167 869 l 58 753 l -35 753 z "},"ï":{"ha":332,"x_min":0,"x_max":332,"o":"m 109 0 l 109 661 l 222 661 l 222 0 l 109 0 m 269 789 q 223 806 241 789 q 205 850 205 823 q 223 894 205 877 q 269 911 241 911 q 313 894 296 911 q 331 850 331 877 q 313 806 331 823 q 269 789 296 789 m 63 789 q 18 806 36 789 q 0 850 0 823 q 18 894 0 877 q 63 911 36 911 q 108 894 90 911 q 126 850 126 877 q 108 806 126 823 q 63 789 90 789 z "},"ị":{"ha":332,"x_min":95,"x_max":237,"o":"m 109 0 l 109 661 l 222 661 l 222 0 l 109 0 m 165 785 q 114 803 134 785 q 95 850 95 822 q 114 898 95 879 q 165 916 134 916 q 217 898 197 916 q 237 850 237 879 q 217 803 237 822 q 165 785 197 785 m 165 -197 q 114 -179 134 -197 q 94 -132 94 -160 q 114 -84 94 -103 q 165 -66 134 -66 q 217 -84 197 -66 q 237 -132 237 -103 q 217 -179 237 -160 q 165 -197 197 -197 z "},"ì":{"ha":332,"x_min":-40,"x_max":229,"o":"m 109 0 l 109 661 l 222 661 l 222 0 l 109 0 m 141 753 l -40 935 l 90 935 l 229 753 l 141 753 z "},"ỉ":{"ha":332,"x_min":96,"x_max":277,"o":"m 109 0 l 109 661 l 222 661 l 222 0 l 109 0 m 138 768 l 110 810 q 153 833 134 817 q 172 873 172 849 q 155 906 172 898 q 104 915 138 915 l 96 915 l 96 984 l 118 984 q 238 960 198 984 q 278 885 278 936 q 260 828 278 853 q 212 789 243 804 q 138 768 180 774 m 110 810 l 186 802 l 186 738 l 110 738 l 110 810 z "},"ĳ":{"ha":663,"x_min":95,"x_max":568,"o":"m 109 0 l 109 661 l 222 661 l 222 0 l 109 0 m 165 785 q 114 803 134 785 q 95 850 95 822 q 114 898 95 879 q 165 916 134 916 q 217 898 197 916 q 237 850 237 879 q 217 803 237 822 q 165 785 197 785 m 313 -243 l 313 -151 l 342 -151 q 416 -127 391 -151 q 441 -49 441 -104 l 441 661 l 554 661 l 554 -39 q 508 -191 554 -138 q 358 -243 463 -243 l 313 -243 m 497 785 q 446 803 465 785 q 427 850 427 822 q 446 898 427 879 q 497 916 465 916 q 549 898 529 916 q 568 850 568 879 q 549 803 568 822 q 497 785 529 785 z "},"ī":{"ha":332,"x_min":24,"x_max":308,"o":"m 109 0 l 109 661 l 222 661 l 222 0 l 109 0 m 24 806 l 24 876 l 308 876 l 308 806 l 24 806 z "},"į":{"ha":332,"x_min":10,"x_max":240,"o":"m 109 0 l 109 661 l 222 661 l 222 0 l 109 0 m 165 785 q 114 803 134 785 q 94 850 94 822 q 114 898 94 879 q 165 916 134 916 q 217 898 197 916 q 237 850 237 879 q 217 803 237 822 q 165 785 197 785 m 134 -254 q 46 -225 83 -254 q 10 -144 10 -196 q 32 -76 10 -110 q 89 -15 53 -42 q 170 23 125 12 l 212 11 q 130 -63 153 -28 q 106 -127 106 -99 q 120 -164 106 -151 q 155 -176 134 -176 q 198 -171 178 -176 q 240 -155 218 -165 l 240 -231 q 197 -248 220 -241 q 134 -254 174 -254 z "},"ĩ":{"ha":332,"x_min":-31,"x_max":363,"o":"m 109 0 l 109 661 l 222 661 l 222 0 l 109 0 m -32 772 q 0 871 -25 834 q 77 907 26 907 q 131 898 104 907 q 183 877 158 888 q 223 861 205 867 q 256 855 241 855 q 283 869 273 855 q 297 911 294 882 l 363 911 q 333 815 357 850 q 258 779 309 779 q 202 788 229 779 q 152 808 176 798 q 111 824 129 818 q 78 831 94 831 q 49 817 60 831 q 35 772 38 802 l -32 772 z "},"j":{"ha":332,"x_min":-19,"x_max":237,"o":"m -19 -243 l -19 -151 l 10 -151 q 84 -127 60 -151 q 109 -49 109 -104 l 109 661 l 222 661 l 222 -39 q 177 -191 222 -138 q 26 -243 131 -243 l -19 -243 m 165 785 q 114 803 134 785 q 95 850 95 822 q 114 898 95 879 q 165 916 134 916 q 217 898 197 916 q 237 850 237 879 q 217 803 237 822 q 165 785 197 785 z "},"ȷ":{"ha":332,"x_min":-19,"x_max":222,"o":"m -19 -243 l -19 -151 l 10 -151 q 84 -127 60 -151 q 109 -49 109 -104 l 109 661 l 222 661 l 222 -39 q 177 -191 222 -138 q 26 -243 131 -243 l -19 -243 z "},"ĵ":{"ha":332,"x_min":-35,"x_max":368,"o":"m -19 -243 l -19 -151 l 10 -151 q 84 -127 60 -151 q 109 -49 109 -104 l 109 661 l 222 661 l 222 -39 q 177 -191 222 -138 q 26 -243 131 -243 l -19 -243 m -35 753 l 110 935 l 223 935 l 368 753 l 274 753 l 167 869 l 58 753 l -35 753 z "},"k":{"ha":676,"x_min":109,"x_max":682,"o":"m 109 0 l 109 913 l 222 913 l 222 349 l 521 661 l 654 661 l 356 351 l 682 0 l 541 0 l 222 343 l 222 0 l 109 0 z "},"ķ":{"ha":676,"x_min":109,"x_max":682,"o":"m 109 0 l 109 913 l 222 913 l 222 349 l 521 661 l 654 661 l 356 351 l 682 0 l 541 0 l 222 343 l 222 0 l 109 0 m 314 -259 l 300 -215 q 343 -192 323 -206 q 369 -157 363 -178 q 327 -137 343 -154 q 311 -98 311 -121 q 329 -57 311 -73 q 378 -40 347 -40 q 428 -59 408 -40 q 449 -113 449 -77 q 409 -208 449 -168 q 314 -259 369 -247 z "},"ĸ":{"ha":676,"x_min":109,"x_max":682,"o":"m 109 0 l 109 661 l 222 661 l 222 349 l 521 661 l 654 661 l 356 351 l 682 0 l 541 0 l 222 344 l 222 0 l 109 0 z "},"ƙ":{"ha":676,"x_min":109,"x_max":682,"o":"m 109 0 l 109 708 l 222 715 l 222 349 l 521 661 l 654 661 l 353 351 l 682 0 l 544 0 l 222 343 l 222 0 l 109 0 m 109 708 q 153 861 109 808 q 294 913 196 913 l 347 913 l 347 820 l 317 820 q 245 795 269 820 q 222 715 221 770 l 109 708 z "},"l":{"ha":361,"x_min":102,"x_max":337,"o":"m 299 0 q 176 25 218 0 q 117 99 133 51 q 102 214 102 146 l 102 913 l 214 913 l 214 219 q 230 125 214 157 q 307 92 246 92 l 337 92 l 337 0 l 299 0 z "},"ĺ":{"ha":361,"x_min":99,"x_max":368,"o":"m 299 0 q 176 25 218 0 q 117 99 133 51 q 102 214 102 146 l 102 913 l 214 913 l 214 219 q 230 125 214 157 q 307 92 246 92 l 337 92 l 337 0 l 299 0 m 100 1004 l 237 1187 l 369 1187 l 187 1004 l 100 1004 z "},"ľ":{"ha":361,"x_min":102,"x_max":408,"o":"m 299 0 q 176 25 218 0 q 117 99 133 51 q 102 214 102 146 l 102 913 l 214 913 l 214 219 q 230 125 214 157 q 307 92 246 92 l 337 92 l 337 0 l 299 0 m 251 697 l 296 913 l 408 913 l 327 697 l 251 697 z "},"ļ":{"ha":361,"x_min":102,"x_max":337,"o":"m 299 0 q 176 25 218 0 q 117 99 133 51 q 102 214 102 146 l 102 913 l 214 913 l 214 219 q 230 125 214 157 q 307 92 246 92 l 337 92 l 337 0 l 299 0 m 158 -259 l 144 -215 q 187 -192 167 -206 q 213 -157 207 -178 q 171 -137 187 -154 q 155 -98 155 -121 q 173 -57 155 -73 q 222 -40 191 -40 q 272 -59 252 -40 q 293 -113 293 -77 q 253 -208 293 -168 q 158 -259 213 -247 z "},"ŀ":{"ha":396,"x_min":102,"x_max":441,"o":"m 299 0 q 176 25 218 0 q 117 99 133 51 q 102 214 102 146 l 102 913 l 214 913 l 214 219 q 230 125 214 157 q 307 92 246 92 l 337 92 l 337 0 l 299 0 m 355 397 q 292 422 317 397 q 267 483 267 447 q 292 544 267 520 q 355 568 317 568 q 417 544 393 568 q 441 483 441 520 q 417 422 441 447 q 355 397 393 397 z "},"ł":{"ha":361,"x_min":0,"x_max":337,"o":"m 154 448 l 154 547 l 321 677 l 321 578 l 154 448 m 0 340 l 0 439 l 154 557 l 154 459 l 0 340 m 299 0 q 176 25 218 0 q 117 99 133 51 q 102 214 102 146 l 102 913 l 214 913 l 214 219 q 230 125 214 157 q 307 92 246 92 l 337 92 l 337 0 l 299 0 z "},"m":{"ha":1185,"x_min":109,"x_max":1082,"o":"m 109 0 l 109 661 l 218 661 l 222 559 q 307 634 251 599 q 448 670 363 670 q 606 606 557 670 q 654 426 654 541 l 654 0 l 540 0 l 540 410 q 530 495 540 458 q 494 554 520 532 q 418 575 467 575 q 300 542 348 575 q 222 468 252 508 l 222 0 l 109 0 m 969 0 l 969 410 q 959 495 969 458 q 923 554 949 532 q 848 575 897 575 q 729 542 777 575 q 650 469 681 509 l 633 552 q 732 633 672 595 q 876 670 792 670 q 1034 606 986 670 q 1082 426 1082 541 l 1082 0 l 969 0 z "},"n":{"ha":766,"x_min":109,"x_max":663,"o":"m 109 0 l 109 661 l 218 661 l 222 559 q 309 634 252 599 q 455 670 366 670 q 613 606 564 670 q 663 426 663 542 l 663 0 l 549 0 l 549 410 q 539 495 549 458 q 503 554 529 532 q 427 575 477 575 q 303 542 353 575 q 222 468 253 508 l 222 0 l 109 0 z "},"ń":{"ha":766,"x_min":109,"x_max":663,"o":"m 109 0 l 109 661 l 218 661 l 222 559 q 309 634 252 599 q 455 670 366 670 q 613 606 564 670 q 663 426 663 542 l 663 0 l 549 0 l 549 410 q 539 495 549 458 q 503 554 529 532 q 427 575 477 575 q 303 542 353 575 q 222 468 253 508 l 222 0 l 109 0 m 324 753 l 462 935 l 593 935 l 412 753 l 324 753 z "},"ŉ":{"ha":833,"x_min":-45,"x_max":731,"o":"m 177 0 l 177 661 l 286 661 l 290 559 q 377 634 320 599 q 523 670 434 670 q 681 606 631 670 q 730 426 730 542 l 730 0 l 617 0 l 617 410 q 607 495 617 458 q 571 554 597 532 q 495 575 545 575 q 371 542 421 575 q 290 468 321 508 l 290 0 l 177 0 m -18 578 l -45 637 q 26 690 -1 659 q 59 766 54 722 l 67 760 q 4 784 29 760 q -20 842 -20 807 q 4 903 -20 880 q 67 926 29 926 q 129 900 105 926 q 153 819 153 873 q 131 711 153 758 q 69 630 108 663 q -18 578 31 597 z "},"ň":{"ha":766,"x_min":109,"x_max":663,"o":"m 109 0 l 109 661 l 218 661 l 222 559 q 309 634 252 599 q 455 670 366 670 q 613 606 564 670 q 663 426 663 542 l 663 0 l 549 0 l 549 410 q 539 495 549 458 q 503 554 529 532 q 427 575 477 575 q 303 542 353 575 q 222 468 253 508 l 222 0 l 109 0 m 331 753 l 186 935 l 279 935 l 388 819 l 495 935 l 589 935 l 444 753 l 331 753 z "},"ņ":{"ha":766,"x_min":109,"x_max":663,"o":"m 109 0 l 109 661 l 218 661 l 222 559 q 309 634 252 599 q 455 670 366 670 q 613 606 564 670 q 663 426 663 542 l 663 0 l 549 0 l 549 410 q 539 495 549 458 q 503 554 529 532 q 427 575 477 575 q 303 542 353 575 q 222 468 253 508 l 222 0 l 109 0 m 326 -259 l 313 -215 q 355 -192 335 -206 q 381 -157 375 -178 q 339 -137 355 -154 q 323 -98 323 -121 q 341 -57 323 -73 q 390 -40 359 -40 q 440 -59 420 -40 q 461 -113 461 -77 q 421 -208 461 -168 q 326 -259 381 -247 z "},"ǹ":{"ha":766,"x_min":109,"x_max":663,"o":"m 109 0 l 109 661 l 218 661 l 222 559 q 309 634 252 599 q 455 670 366 670 q 613 606 564 670 q 663 426 663 542 l 663 0 l 549 0 l 549 410 q 539 495 549 458 q 503 554 529 532 q 427 575 477 575 q 303 542 353 575 q 222 468 253 508 l 222 0 l 109 0 m 363 753 l 182 935 l 313 935 l 451 753 l 363 753 z "},"ñ":{"ha":766,"x_min":109,"x_max":663,"o":"m 109 0 l 109 661 l 218 661 l 222 559 q 309 634 252 599 q 455 670 366 670 q 613 606 564 670 q 663 426 663 542 l 663 0 l 549 0 l 549 410 q 539 495 549 458 q 503 554 529 532 q 427 575 477 575 q 303 542 353 575 q 222 468 253 508 l 222 0 l 109 0 m 191 772 q 223 871 197 834 q 299 907 248 907 q 354 898 327 907 q 406 877 380 888 q 446 861 428 867 q 479 855 464 855 q 506 869 495 855 q 519 911 517 882 l 586 911 q 555 815 579 850 q 481 779 531 779 q 425 788 451 779 q 374 808 398 798 q 334 824 351 818 q 300 831 316 831 q 271 817 282 831 q 257 772 260 802 l 191 772 z "},"ŋ":{"ha":766,"x_min":109,"x_max":663,"o":"m 421 -243 l 421 -151 l 451 -151 q 525 -128 500 -151 q 549 -52 549 -105 l 549 66 l 663 66 l 663 -45 q 617 -192 663 -141 q 467 -243 571 -243 l 421 -243 m 109 0 l 109 661 l 218 661 l 222 559 q 309 634 252 599 q 455 670 366 670 q 613 606 564 670 q 663 426 663 542 l 663 0 l 549 0 l 549 410 q 539 495 549 458 q 503 554 529 532 q 427 575 477 575 q 303 542 353 575 q 222 468 253 508 l 222 0 l 109 0 z "},"o":{"ha":766,"x_min":72,"x_max":694,"o":"m 380 -11 q 214 30 283 -11 q 108 148 144 71 q 72 329 72 224 q 108 514 72 437 q 214 632 144 591 q 380 673 283 673 q 549 632 479 673 q 657 514 619 591 q 694 329 694 437 q 657 148 694 224 q 549 30 619 71 q 380 -11 479 -11 m 380 79 q 496 112 453 79 q 559 200 540 144 q 578 329 578 257 q 559 460 578 402 q 496 550 540 517 q 380 583 453 583 q 267 550 309 583 q 207 460 225 517 q 189 329 189 402 q 207 200 189 257 q 267 112 225 144 q 380 79 309 79 z "},"ó":{"ha":766,"x_min":72,"x_max":694,"o":"m 380 -11 q 214 30 283 -11 q 108 148 144 71 q 72 329 72 224 q 108 514 72 437 q 214 632 144 591 q 380 673 283 673 q 549 632 479 673 q 657 514 619 591 q 694 329 694 437 q 657 148 694 224 q 549 30 619 71 q 380 -11 479 -11 m 380 79 q 496 112 453 79 q 559 200 540 144 q 578 329 578 257 q 559 460 578 402 q 496 550 540 517 q 380 583 453 583 q 267 550 309 583 q 207 460 225 517 q 189 329 189 402 q 207 200 189 257 q 267 112 225 144 q 380 79 309 79 m 319 753 l 456 935 l 588 935 l 406 753 l 319 753 z "},"ŏ":{"ha":766,"x_min":72,"x_max":694,"o":"m 380 -11 q 214 30 283 -11 q 108 148 144 71 q 72 329 72 224 q 108 514 72 437 q 214 632 144 591 q 380 673 283 673 q 549 632 479 673 q 657 514 619 591 q 694 329 694 437 q 657 148 694 224 q 549 30 619 71 q 380 -11 479 -11 m 380 79 q 496 112 453 79 q 559 200 540 144 q 578 329 578 257 q 559 460 578 402 q 496 550 540 517 q 380 583 453 583 q 267 550 309 583 q 207 460 225 517 q 189 329 189 402 q 207 200 189 257 q 267 112 225 144 q 380 79 309 79 m 381 758 q 257 803 304 758 q 201 929 210 848 l 271 929 q 310 854 277 877 q 381 832 342 832 q 456 855 422 832 q 496 929 490 878 l 562 929 q 506 804 553 850 q 381 758 459 758 z "},"ô":{"ha":766,"x_min":72,"x_max":694,"o":"m 380 -11 q 214 30 283 -11 q 108 148 144 71 q 72 329 72 224 q 108 514 72 437 q 214 632 144 591 q 380 673 283 673 q 549 632 479 673 q 657 514 619 591 q 694 329 694 437 q 657 148 694 224 q 549 30 619 71 q 380 -11 479 -11 m 380 79 q 496 112 453 79 q 559 200 540 144 q 578 329 578 257 q 559 460 578 402 q 496 550 540 517 q 380 583 453 583 q 267 550 309 583 q 207 460 225 517 q 189 329 189 402 q 207 200 189 257 q 267 112 225 144 q 380 79 309 79 m 182 753 l 327 935 l 440 935 l 585 753 l 491 753 l 384 869 l 275 753 l 182 753 z "},"ố":{"ha":766,"x_min":72,"x_max":741,"o":"m 380 -11 q 214 30 283 -11 q 108 148 144 71 q 72 329 72 224 q 108 514 72 437 q 214 632 144 591 q 380 673 283 673 q 549 632 479 673 q 657 514 619 591 q 694 329 694 437 q 657 148 694 224 q 549 30 619 71 q 380 -11 479 -11 m 380 79 q 496 112 453 79 q 559 200 540 144 q 578 329 578 257 q 559 460 578 402 q 496 550 540 517 q 380 583 453 583 q 267 550 309 583 q 207 460 225 517 q 189 329 189 402 q 207 200 189 257 q 267 112 225 144 q 380 79 309 79 m 173 751 l 318 933 l 431 933 l 576 751 l 483 751 l 376 867 l 267 751 l 173 751 m 506 865 l 616 1047 l 741 1047 l 587 865 l 506 865 z "},"ộ":{"ha":766,"x_min":72,"x_max":694,"o":"m 380 -11 q 214 30 283 -11 q 108 148 144 71 q 72 329 72 224 q 108 514 72 437 q 214 632 144 591 q 380 673 283 673 q 549 632 479 673 q 657 514 619 591 q 694 329 694 437 q 657 148 694 224 q 549 30 619 71 q 380 -11 479 -11 m 380 79 q 496 112 453 79 q 559 200 540 144 q 578 329 578 257 q 559 460 578 402 q 496 550 540 517 q 380 583 453 583 q 267 550 309 583 q 207 460 225 517 q 189 329 189 402 q 207 200 189 257 q 267 112 225 144 q 380 79 309 79 m 382 -197 q 331 -179 351 -197 q 311 -132 311 -160 q 331 -84 311 -103 q 382 -66 351 -66 q 434 -84 414 -66 q 454 -132 454 -103 q 434 -179 454 -160 q 382 -197 414 -197 m 182 753 l 327 935 l 440 935 l 585 753 l 491 753 l 384 869 l 275 753 l 182 753 z "},"ồ":{"ha":766,"x_min":5,"x_max":694,"o":"m 380 -11 q 214 30 283 -11 q 108 148 144 71 q 72 329 72 224 q 108 514 72 437 q 214 632 144 591 q 380 673 283 673 q 549 632 479 673 q 657 514 619 591 q 694 329 694 437 q 657 148 694 224 q 549 30 619 71 q 380 -11 479 -11 m 380 79 q 496 112 453 79 q 559 200 540 144 q 578 329 578 257 q 559 460 578 402 q 496 550 540 517 q 380 583 453 583 q 267 550 309 583 q 207 460 225 517 q 189 329 189 402 q 207 200 189 257 q 267 112 225 144 q 380 79 309 79 m 170 751 l 315 933 l 429 933 l 574 751 l 480 751 l 373 867 l 264 751 l 170 751 m 239 865 l 158 865 l 4 1047 l 130 1047 l 239 865 z "},"ổ":{"ha":766,"x_min":72,"x_max":694,"o":"m 380 -11 q 214 30 283 -11 q 108 148 144 71 q 72 329 72 224 q 108 514 72 437 q 214 632 144 591 q 380 673 283 673 q 549 632 479 673 q 657 514 619 591 q 694 329 694 437 q 657 148 694 224 q 549 30 619 71 q 380 -11 479 -11 m 380 79 q 496 112 453 79 q 559 200 540 144 q 578 329 578 257 q 559 460 578 402 q 496 550 540 517 q 380 583 453 583 q 267 550 309 583 q 207 460 225 517 q 189 329 189 402 q 207 200 189 257 q 267 112 225 144 q 380 79 309 79 m 170 751 l 315 933 l 429 933 l 574 751 l 480 751 l 373 867 l 264 751 l 170 751 m 534 862 l 506 903 q 549 927 530 911 q 568 967 568 943 q 551 1001 568 993 q 500 1009 533 1009 l 492 1009 l 492 1078 l 514 1078 q 621 1054 585 1078 q 656 982 656 1030 q 623 901 656 931 q 534 862 589 871 z "},"ỗ":{"ha":766,"x_min":72,"x_max":694,"o":"m 380 -11 q 214 30 283 -11 q 108 148 144 71 q 72 329 72 224 q 108 514 72 437 q 214 632 144 591 q 380 673 283 673 q 549 632 479 673 q 657 514 619 591 q 694 329 694 437 q 657 148 694 224 q 549 30 619 71 q 380 -11 479 -11 m 380 79 q 496 112 453 79 q 559 200 540 144 q 578 329 578 257 q 559 460 578 402 q 496 550 540 517 q 380 583 453 583 q 267 550 309 583 q 207 460 225 517 q 189 329 189 402 q 207 200 189 257 q 267 112 225 144 q 380 79 309 79 m 170 751 l 315 933 l 429 933 l 574 751 l 480 751 l 373 867 l 264 751 l 170 751 m 163 981 q 199 1080 170 1044 q 286 1117 228 1117 q 339 1107 313 1117 q 391 1087 366 1098 q 431 1071 414 1077 q 465 1065 449 1065 q 501 1078 487 1065 q 519 1120 515 1092 l 585 1120 q 550 1024 578 1060 q 467 989 523 989 q 411 998 437 989 q 360 1017 384 1007 q 319 1034 336 1027 q 287 1040 302 1040 q 248 1026 263 1040 q 229 981 233 1012 l 163 981 z "},"ö":{"ha":766,"x_min":72,"x_max":694,"o":"m 380 -11 q 214 30 283 -11 q 108 148 144 71 q 72 329 72 224 q 108 514 72 437 q 214 632 144 591 q 380 673 283 673 q 549 632 479 673 q 657 514 619 591 q 694 329 694 437 q 657 148 694 224 q 549 30 619 71 q 380 -11 479 -11 m 380 79 q 496 112 453 79 q 559 200 540 144 q 578 329 578 257 q 559 460 578 402 q 496 550 540 517 q 380 583 453 583 q 267 550 309 583 q 207 460 225 517 q 189 329 189 402 q 207 200 189 257 q 267 112 225 144 q 380 79 309 79 m 502 789 q 457 806 475 789 q 439 850 439 823 q 457 894 439 877 q 502 911 475 911 q 547 894 529 911 q 566 850 566 877 q 547 806 566 823 q 502 789 529 789 m 263 789 q 218 806 237 789 q 199 850 199 823 q 218 894 199 877 q 263 911 237 911 q 309 894 290 911 q 327 850 327 877 q 309 806 327 823 q 263 789 290 789 z "},"ọ":{"ha":766,"x_min":72,"x_max":694,"o":"m 380 -11 q 214 30 283 -11 q 108 148 144 71 q 72 329 72 224 q 108 514 72 437 q 214 632 144 591 q 380 673 283 673 q 549 632 479 673 q 657 514 619 591 q 694 329 694 437 q 657 148 694 224 q 549 30 619 71 q 380 -11 479 -11 m 380 79 q 496 112 453 79 q 559 200 540 144 q 578 329 578 257 q 559 460 578 402 q 496 550 540 517 q 380 583 453 583 q 267 550 309 583 q 207 460 225 517 q 189 329 189 402 q 207 200 189 257 q 267 112 225 144 q 380 79 309 79 m 382 -197 q 331 -179 351 -197 q 311 -132 311 -160 q 331 -84 311 -103 q 382 -66 351 -66 q 434 -84 414 -66 q 454 -132 454 -103 q 434 -179 454 -160 q 382 -197 414 -197 z "},"ò":{"ha":766,"x_min":72,"x_max":694,"o":"m 380 -11 q 214 30 283 -11 q 108 148 144 71 q 72 329 72 224 q 108 514 72 437 q 214 632 144 591 q 380 673 283 673 q 549 632 479 673 q 657 514 619 591 q 694 329 694 437 q 657 148 694 224 q 549 30 619 71 q 380 -11 479 -11 m 380 79 q 496 112 453 79 q 559 200 540 144 q 578 329 578 257 q 559 460 578 402 q 496 550 540 517 q 380 583 453 583 q 267 550 309 583 q 207 460 225 517 q 189 329 189 402 q 207 200 189 257 q 267 112 225 144 q 380 79 309 79 m 358 753 l 177 935 l 307 935 l 446 753 l 358 753 z "},"ỏ":{"ha":766,"x_min":72,"x_max":694,"o":"m 380 -11 q 214 30 283 -11 q 108 148 144 71 q 72 329 72 224 q 108 514 72 437 q 214 632 144 591 q 380 673 283 673 q 549 632 479 673 q 657 514 619 591 q 694 329 694 437 q 657 148 694 224 q 549 30 619 71 q 380 -11 479 -11 m 380 79 q 496 112 453 79 q 559 200 540 144 q 578 329 578 257 q 559 460 578 402 q 496 550 540 517 q 380 583 453 583 q 267 550 309 583 q 207 460 225 517 q 189 329 189 402 q 207 200 189 257 q 267 112 225 144 q 380 79 309 79 m 349 768 l 320 810 q 363 833 344 817 q 382 873 382 849 q 365 906 382 898 q 315 915 348 915 l 306 915 l 306 984 l 328 984 q 448 960 408 984 q 488 885 488 936 q 471 828 488 853 q 422 789 453 804 q 349 768 391 774 m 320 810 l 396 802 l 396 738 l 320 738 l 320 810 z "},"ơ":{"ha":777,"x_min":72,"x_max":806,"o":"m 623 488 l 598 542 q 678 593 646 563 q 715 665 709 623 l 722 660 q 664 682 687 660 q 640 737 640 703 q 663 793 640 772 q 722 815 686 815 q 782 790 759 815 q 806 715 806 766 q 782 614 806 659 q 717 537 758 569 q 623 488 675 505 m 380 -11 q 214 30 283 -11 q 108 148 144 71 q 72 329 72 224 q 108 514 72 437 q 214 632 144 591 q 380 673 283 673 q 549 632 479 673 q 657 514 619 591 q 694 329 694 437 q 657 148 694 224 q 549 30 619 71 q 380 -11 479 -11 m 380 79 q 496 112 453 79 q 559 200 540 144 q 578 329 578 257 q 559 460 578 402 q 496 550 540 517 q 380 583 453 583 q 267 550 309 583 q 207 460 225 517 q 189 329 189 402 q 207 200 189 257 q 267 112 225 144 q 380 79 309 79 z "},"ớ":{"ha":777,"x_min":72,"x_max":806,"o":"m 623 488 l 598 542 q 678 593 646 563 q 715 665 709 623 l 722 660 q 664 682 687 660 q 640 737 640 703 q 663 793 640 772 q 722 815 686 815 q 782 790 759 815 q 806 715 806 766 q 782 614 806 659 q 717 537 758 569 q 623 488 675 505 m 380 -11 q 214 30 283 -11 q 108 148 144 71 q 72 329 72 224 q 108 514 72 437 q 214 632 144 591 q 380 673 283 673 q 549 632 479 673 q 657 514 619 591 q 694 329 694 437 q 657 148 694 224 q 549 30 619 71 q 380 -11 479 -11 m 380 79 q 496 112 453 79 q 559 200 540 144 q 578 329 578 257 q 559 460 578 402 q 496 550 540 517 q 380 583 453 583 q 267 550 309 583 q 207 460 225 517 q 189 329 189 402 q 207 200 189 257 q 267 112 225 144 q 380 79 309 79 m 319 753 l 456 935 l 588 935 l 406 753 l 319 753 z "},"ợ":{"ha":777,"x_min":72,"x_max":806,"o":"m 623 488 l 598 542 q 678 593 646 563 q 715 665 709 623 l 722 660 q 664 682 687 660 q 640 737 640 703 q 663 793 640 772 q 722 815 686 815 q 782 790 759 815 q 806 715 806 766 q 782 614 806 659 q 717 537 758 569 q 623 488 675 505 m 380 -11 q 214 30 283 -11 q 108 148 144 71 q 72 329 72 224 q 108 514 72 437 q 214 632 144 591 q 380 673 283 673 q 549 632 479 673 q 657 514 619 591 q 694 329 694 437 q 657 148 694 224 q 549 30 619 71 q 380 -11 479 -11 m 380 79 q 496 112 453 79 q 559 200 540 144 q 578 329 578 257 q 559 460 578 402 q 496 550 540 517 q 380 583 453 583 q 267 550 309 583 q 207 460 225 517 q 189 329 189 402 q 207 200 189 257 q 267 112 225 144 q 380 79 309 79 m 382 -197 q 331 -179 351 -197 q 311 -132 311 -160 q 331 -84 311 -103 q 382 -66 351 -66 q 434 -84 414 -66 q 454 -132 454 -103 q 434 -179 454 -160 q 382 -197 414 -197 z "},"ờ":{"ha":777,"x_min":72,"x_max":806,"o":"m 623 488 l 598 542 q 678 593 646 563 q 715 665 709 623 l 722 660 q 664 682 687 660 q 640 737 640 703 q 663 793 640 772 q 722 815 686 815 q 782 790 759 815 q 806 715 806 766 q 782 614 806 659 q 717 537 758 569 q 623 488 675 505 m 380 -11 q 214 30 283 -11 q 108 148 144 71 q 72 329 72 224 q 108 514 72 437 q 214 632 144 591 q 380 673 283 673 q 549 632 479 673 q 657 514 619 591 q 694 329 694 437 q 657 148 694 224 q 549 30 619 71 q 380 -11 479 -11 m 380 79 q 496 112 453 79 q 559 200 540 144 q 578 329 578 257 q 559 460 578 402 q 496 550 540 517 q 380 583 453 583 q 267 550 309 583 q 207 460 225 517 q 189 329 189 402 q 207 200 189 257 q 267 112 225 144 q 380 79 309 79 m 358 753 l 177 935 l 307 935 l 446 753 l 358 753 z "},"ở":{"ha":777,"x_min":72,"x_max":806,"o":"m 623 488 l 598 542 q 678 593 646 563 q 715 665 709 623 l 722 660 q 664 682 687 660 q 640 737 640 703 q 663 793 640 772 q 722 815 686 815 q 782 790 759 815 q 806 715 806 766 q 782 614 806 659 q 717 537 758 569 q 623 488 675 505 m 380 -11 q 214 30 283 -11 q 108 148 144 71 q 72 329 72 224 q 108 514 72 437 q 214 632 144 591 q 380 673 283 673 q 549 632 479 673 q 657 514 619 591 q 694 329 694 437 q 657 148 694 224 q 549 30 619 71 q 380 -11 479 -11 m 380 79 q 496 112 453 79 q 559 200 540 144 q 578 329 578 257 q 559 460 578 402 q 496 550 540 517 q 380 583 453 583 q 267 550 309 583 q 207 460 225 517 q 189 329 189 402 q 207 200 189 257 q 267 112 225 144 q 380 79 309 79 m 349 768 l 320 810 q 363 833 344 817 q 382 873 382 849 q 365 906 382 898 q 315 915 348 915 l 306 915 l 306 984 l 328 984 q 448 960 408 984 q 488 885 488 936 q 471 828 488 853 q 422 789 453 804 q 349 768 391 774 m 320 810 l 396 802 l 396 738 l 320 738 l 320 810 z "},"ỡ":{"ha":777,"x_min":72,"x_max":806,"o":"m 623 488 l 598 542 q 678 593 646 563 q 715 665 709 623 l 722 660 q 664 682 687 660 q 640 737 640 703 q 663 793 640 772 q 722 815 686 815 q 782 790 759 815 q 806 715 806 766 q 782 614 806 659 q 717 537 758 569 q 623 488 675 505 m 380 -11 q 214 30 283 -11 q 108 148 144 71 q 72 329 72 224 q 108 514 72 437 q 214 632 144 591 q 380 673 283 673 q 549 632 479 673 q 657 514 619 591 q 694 329 694 437 q 657 148 694 224 q 549 30 619 71 q 380 -11 479 -11 m 380 79 q 496 112 453 79 q 559 200 540 144 q 578 329 578 257 q 559 460 578 402 q 496 550 540 517 q 380 583 453 583 q 267 550 309 583 q 207 460 225 517 q 189 329 189 402 q 207 200 189 257 q 267 112 225 144 q 380 79 309 79 m 185 772 q 217 871 192 834 q 294 907 243 907 q 348 898 321 907 q 400 877 375 888 q 440 861 422 867 q 473 855 458 855 q 500 869 490 855 q 514 911 511 882 l 581 911 q 550 815 574 850 q 475 779 526 779 q 419 788 446 779 q 369 808 393 798 q 328 824 346 818 q 295 831 311 831 q 266 817 277 831 q 252 772 255 802 l 185 772 z "},"ő":{"ha":766,"x_min":72,"x_max":694,"o":"m 380 -11 q 214 30 283 -11 q 108 148 144 71 q 72 329 72 224 q 108 514 72 437 q 214 632 144 591 q 380 673 283 673 q 549 632 479 673 q 657 514 619 591 q 694 329 694 437 q 657 148 694 224 q 549 30 619 71 q 380 -11 479 -11 m 380 79 q 496 112 453 79 q 559 200 540 144 q 578 329 578 257 q 559 460 578 402 q 496 550 540 517 q 380 583 453 583 q 267 550 309 583 q 207 460 225 517 q 189 329 189 402 q 207 200 189 257 q 267 112 225 144 q 380 79 309 79 m 410 753 l 528 935 l 645 935 l 491 753 l 410 753 m 216 753 l 334 935 l 450 935 l 296 753 l 216 753 z "},"ō":{"ha":766,"x_min":72,"x_max":694,"o":"m 380 -11 q 214 30 283 -11 q 108 148 144 71 q 72 329 72 224 q 108 514 72 437 q 214 632 144 591 q 380 673 283 673 q 549 632 479 673 q 657 514 619 591 q 694 329 694 437 q 657 148 694 224 q 549 30 619 71 q 380 -11 479 -11 m 380 79 q 496 112 453 79 q 559 200 540 144 q 578 329 578 257 q 559 460 578 402 q 496 550 540 517 q 380 583 453 583 q 267 550 309 583 q 207 460 225 517 q 189 329 189 402 q 207 200 189 257 q 267 112 225 144 q 380 79 309 79 m 198 799 l 198 882 l 568 882 l 568 799 l 198 799 z "},"ǫ":{"ha":766,"x_min":72,"x_max":694,"o":"m 380 -11 q 214 30 283 -11 q 108 148 144 71 q 72 329 72 224 q 108 514 72 437 q 214 632 144 591 q 380 673 283 673 q 549 632 479 673 q 657 514 619 591 q 694 329 694 437 q 657 148 694 224 q 549 30 619 71 q 380 -11 479 -11 m 380 79 q 496 112 453 79 q 559 200 540 144 q 578 329 578 257 q 559 460 578 402 q 496 550 540 517 q 380 583 453 583 q 267 550 309 583 q 207 460 225 517 q 189 329 189 402 q 207 200 189 257 q 267 112 225 144 q 380 79 309 79 m 427 -254 q 339 -225 376 -254 q 303 -144 303 -196 q 325 -76 303 -110 q 382 -15 346 -42 q 463 23 418 12 l 505 11 q 422 -63 446 -28 q 399 -127 399 -99 q 413 -164 399 -151 q 448 -176 427 -176 q 491 -171 471 -176 q 533 -155 511 -165 l 533 -231 q 490 -248 513 -241 q 427 -254 467 -254 z "},"ɔ":{"ha":729,"x_min":72,"x_max":657,"o":"m 352 -12 q 211 14 274 -12 q 111 93 149 40 q 72 227 74 146 l 183 227 q 232 116 186 154 q 350 79 277 79 q 494 144 446 79 q 543 328 543 210 q 494 515 543 448 q 350 583 446 583 q 236 545 277 583 q 189 444 194 508 l 77 444 q 116 572 79 522 q 214 648 153 623 q 352 673 275 673 q 512 635 444 673 q 619 519 581 596 q 657 328 657 443 q 618 138 657 214 q 510 25 579 62 q 352 -12 441 -12 z "},"ø":{"ha":766,"x_min":61,"x_max":705,"o":"m 116 -47 l 61 0 l 650 704 l 705 657 l 116 -47 m 380 -11 q 214 30 283 -11 q 108 147 144 71 q 72 329 72 223 q 108 513 72 436 q 214 631 144 590 q 380 673 283 673 q 549 631 479 673 q 657 513 619 590 q 694 329 694 436 q 657 147 694 223 q 549 30 619 71 q 380 -11 479 -11 m 380 77 q 497 109 453 77 q 562 199 542 142 q 581 329 581 256 q 562 460 581 402 q 497 551 542 517 q 380 584 453 584 q 266 551 309 584 q 204 460 223 517 q 184 329 184 402 q 204 199 184 256 q 266 109 223 142 q 380 77 309 77 z "},"ǿ":{"ha":766,"x_min":61,"x_max":705,"o":"m 116 -47 l 61 0 l 650 704 l 705 657 l 116 -47 m 380 -11 q 214 30 283 -11 q 108 147 144 71 q 72 329 72 223 q 108 513 72 436 q 214 631 144 590 q 380 673 283 673 q 549 631 479 673 q 657 513 619 590 q 694 329 694 436 q 657 147 694 223 q 549 30 619 71 q 380 -11 479 -11 m 380 77 q 497 109 453 77 q 562 199 542 142 q 581 329 581 256 q 562 460 581 402 q 497 551 542 517 q 380 584 453 584 q 266 551 309 584 q 204 460 223 517 q 184 329 184 402 q 204 199 184 256 q 266 109 223 142 q 380 77 309 77 m 319 753 l 456 935 l 588 935 l 406 753 l 319 753 z "},"õ":{"ha":766,"x_min":72,"x_max":694,"o":"m 380 -11 q 214 30 283 -11 q 108 148 144 71 q 72 329 72 224 q 108 514 72 437 q 214 632 144 591 q 380 673 283 673 q 549 632 479 673 q 657 514 619 591 q 694 329 694 437 q 657 148 694 224 q 549 30 619 71 q 380 -11 479 -11 m 380 79 q 496 112 453 79 q 559 200 540 144 q 578 329 578 257 q 559 460 578 402 q 496 550 540 517 q 380 583 453 583 q 267 550 309 583 q 207 460 225 517 q 189 329 189 402 q 207 200 189 257 q 267 112 225 144 q 380 79 309 79 m 185 772 q 217 871 192 834 q 294 907 243 907 q 348 898 321 907 q 400 877 375 888 q 440 861 422 867 q 473 855 458 855 q 500 869 490 855 q 514 911 511 882 l 581 911 q 550 815 574 850 q 475 779 526 779 q 419 788 446 779 q 369 808 393 798 q 328 824 346 818 q 295 831 311 831 q 266 817 277 831 q 252 772 255 802 l 185 772 z "},"œ":{"ha":1240,"x_min":72,"x_max":1167,"o":"m 376 -11 q 213 30 281 -11 q 108 147 144 71 q 72 329 72 223 q 108 513 72 436 q 214 631 144 590 q 380 673 283 673 q 546 631 481 673 q 643 512 612 589 q 675 329 675 435 q 642 147 675 223 q 543 30 609 71 q 376 -11 477 -11 m 380 79 q 497 111 453 79 q 562 200 542 144 q 581 329 581 257 q 562 458 581 401 q 497 548 542 515 q 380 581 453 581 q 266 548 309 581 q 204 458 223 515 q 185 329 185 401 q 204 200 185 257 q 266 111 223 144 q 380 79 309 79 m 892 -12 q 721 33 786 -12 q 625 156 655 78 q 595 330 595 233 q 624 508 595 431 q 715 629 653 585 q 878 672 778 672 q 1090 591 1013 672 q 1166 357 1166 509 q 1166 333 1166 347 q 1164 313 1165 319 l 693 313 q 713 194 693 248 q 777 108 733 140 q 892 75 820 75 q 1010 111 968 75 q 1055 214 1053 146 l 1167 214 q 1131 93 1164 144 q 1036 15 1097 43 q 892 -12 975 -12 m 694 395 l 1054 395 q 1006 536 1052 488 q 878 585 960 585 q 748 536 795 585 q 694 395 701 488 z "},"p":{"ha":779,"x_min":109,"x_max":707,"o":"m 109 -243 l 109 661 l 219 661 l 222 553 q 314 639 258 606 q 444 672 370 672 q 584 634 525 672 q 675 519 643 595 q 707 330 707 444 q 673 142 707 218 q 576 27 639 66 q 430 -12 514 -12 q 307 16 359 -12 q 222 93 254 44 l 222 -243 l 109 -243 m 409 81 q 545 145 499 81 q 591 330 591 210 q 548 516 591 452 q 422 581 505 581 q 300 542 350 581 q 222 452 250 503 l 222 197 q 296 113 250 145 q 409 81 342 81 z "},"þ":{"ha":779,"x_min":109,"x_max":707,"o":"m 109 -243 l 109 913 l 222 913 l 222 553 q 314 639 258 607 q 444 671 370 671 q 586 632 527 671 q 676 516 644 593 q 707 323 707 438 q 673 139 707 213 q 577 27 640 64 q 430 -11 515 -11 q 308 16 359 -11 q 222 93 256 43 l 222 -243 l 109 -243 m 409 81 q 545 144 498 81 q 591 324 591 208 q 547 514 591 448 q 419 580 504 580 q 299 542 347 580 q 222 450 250 503 l 222 197 q 295 113 249 145 q 409 81 340 81 z "},"q":{"ha":779,"x_min":72,"x_max":670,"o":"m 557 -243 l 557 100 q 466 18 522 49 q 336 -12 410 -12 q 194 26 254 -12 q 103 142 135 65 q 72 333 72 220 q 106 520 72 445 q 202 634 140 595 q 349 673 264 673 q 473 641 422 673 q 557 558 525 610 l 561 661 l 670 661 l 670 -243 l 557 -243 m 356 81 q 478 116 430 81 q 557 201 527 151 l 557 453 q 484 543 529 507 q 370 581 439 580 q 233 516 280 581 q 186 333 186 451 q 230 145 186 210 q 356 81 275 81 z "},"r":{"ha":465,"x_min":109,"x_max":439,"o":"m 109 0 l 109 661 l 216 661 l 220 548 q 297 634 248 600 q 426 669 347 669 l 439 669 l 439 565 l 424 565 q 337 552 374 565 q 272 516 300 539 q 222 464 244 494 l 222 0 l 109 0 z "},"ŕ":{"ha":465,"x_min":109,"x_max":477,"o":"m 109 0 l 109 661 l 216 661 l 220 548 q 297 634 248 600 q 426 669 347 669 l 439 669 l 439 565 l 424 565 q 337 552 374 565 q 272 516 300 539 q 222 464 244 494 l 222 0 l 109 0 m 208 753 l 345 935 l 477 935 l 295 753 l 208 753 z "},"ř":{"ha":465,"x_min":69,"x_max":473,"o":"m 109 0 l 109 661 l 216 661 l 220 548 q 297 634 248 600 q 426 669 347 669 l 439 669 l 439 565 l 424 565 q 337 552 374 565 q 272 516 300 539 q 222 464 244 494 l 222 0 l 109 0 m 214 753 l 69 935 l 163 935 l 271 819 l 378 935 l 473 935 l 328 753 l 214 753 z "},"ŗ":{"ha":465,"x_min":93,"x_max":439,"o":"m 109 0 l 109 661 l 216 661 l 220 548 q 297 634 248 600 q 426 669 347 669 l 439 669 l 439 565 l 424 565 q 337 552 374 565 q 272 516 300 539 q 222 464 244 494 l 222 0 l 109 0 m 106 -259 l 92 -215 q 135 -192 115 -206 q 161 -157 155 -178 q 119 -137 135 -154 q 102 -98 102 -121 q 120 -57 102 -73 q 170 -40 138 -40 q 220 -59 199 -40 q 241 -113 241 -77 q 201 -208 241 -168 q 106 -259 161 -247 z "},"s":{"ha":675,"x_min":69,"x_max":606,"o":"m 343 -12 q 238 0 288 -12 q 150 39 188 12 q 91 108 112 65 q 69 212 69 151 l 178 212 q 226 103 178 135 q 346 72 274 72 q 452 97 410 72 q 494 178 494 121 q 456 251 494 227 q 323 297 418 275 q 193 339 246 315 q 114 400 140 363 q 87 494 87 437 q 106 571 87 538 q 158 627 125 605 q 237 661 192 650 q 336 672 283 672 q 434 660 388 672 q 514 622 479 648 q 570 555 549 596 q 590 458 590 515 l 480 458 q 438 557 480 528 q 336 587 396 587 q 237 565 275 587 q 199 497 199 543 q 216 452 199 471 q 273 419 233 434 q 380 389 313 405 q 505 347 454 371 q 580 284 555 322 q 606 186 606 245 q 586 97 606 134 q 530 35 566 59 q 447 -1 494 11 q 343 -12 399 -12 z "},"ś":{"ha":675,"x_min":69,"x_max":606,"o":"m 343 -12 q 238 0 288 -12 q 150 39 188 12 q 91 108 112 65 q 69 212 69 151 l 178 212 q 226 103 178 135 q 346 72 274 72 q 452 97 410 72 q 494 178 494 121 q 456 251 494 227 q 323 297 418 275 q 193 339 246 315 q 114 400 140 363 q 87 494 87 437 q 106 571 87 538 q 158 627 125 605 q 237 661 192 650 q 336 672 283 672 q 434 660 388 672 q 514 622 479 648 q 570 555 549 596 q 590 458 590 515 l 480 458 q 438 557 480 528 q 336 587 396 587 q 237 565 275 587 q 199 497 199 543 q 216 452 199 471 q 273 419 233 434 q 380 389 313 405 q 505 347 454 371 q 580 284 555 322 q 606 186 606 245 q 586 97 606 134 q 530 35 566 59 q 447 -1 494 11 q 343 -12 399 -12 m 277 753 l 415 935 l 547 935 l 365 753 l 277 753 z "},"š":{"ha":675,"x_min":69,"x_max":606,"o":"m 343 -12 q 238 0 288 -12 q 150 39 188 12 q 91 108 112 65 q 69 212 69 151 l 178 212 q 226 103 178 135 q 346 72 274 72 q 452 97 410 72 q 494 178 494 121 q 456 251 494 227 q 323 297 418 275 q 193 339 246 315 q 114 400 140 363 q 87 494 87 437 q 106 571 87 538 q 158 627 125 605 q 237 661 192 650 q 336 672 283 672 q 434 660 388 672 q 514 622 479 648 q 570 555 549 596 q 590 458 590 515 l 480 458 q 438 557 480 528 q 336 587 396 587 q 237 565 275 587 q 199 497 199 543 q 216 452 199 471 q 273 419 233 434 q 380 389 313 405 q 505 347 454 371 q 580 284 555 322 q 606 186 606 245 q 586 97 606 134 q 530 35 566 59 q 447 -1 494 11 q 343 -12 399 -12 m 284 753 l 139 935 l 233 935 l 341 819 l 448 935 l 543 935 l 397 753 l 284 753 z "},"ş":{"ha":675,"x_min":69,"x_max":606,"o":"m 343 -12 q 238 0 288 -12 q 150 39 188 12 q 91 108 112 65 q 69 212 69 151 l 178 212 q 226 103 178 135 q 346 72 274 72 q 452 97 410 72 q 494 178 494 121 q 456 251 494 227 q 323 297 418 275 q 193 339 246 315 q 114 400 140 363 q 87 494 87 437 q 106 571 87 538 q 158 627 125 605 q 237 661 192 650 q 336 672 283 672 q 434 660 388 672 q 514 622 479 648 q 570 555 549 596 q 590 458 590 515 l 480 458 q 438 557 480 528 q 336 587 396 587 q 237 565 275 587 q 199 497 199 543 q 216 452 199 471 q 273 419 233 434 q 380 389 313 405 q 505 347 454 371 q 580 284 555 322 q 606 186 606 245 q 586 97 606 134 q 530 35 566 59 q 447 -1 494 11 q 343 -12 399 -12 m 330 -259 q 262 -253 292 -259 q 208 -236 233 -246 l 226 -173 q 271 -187 243 -181 q 326 -193 298 -193 q 368 -181 351 -193 q 385 -149 385 -170 q 363 -113 385 -125 q 288 -95 341 -101 l 258 -92 l 347 28 l 402 3 l 356 -60 l 336 -44 q 434 -73 399 -47 q 469 -146 469 -98 q 451 -209 469 -184 q 401 -247 433 -234 q 330 -259 370 -259 z "},"ŝ":{"ha":675,"x_min":69,"x_max":606,"o":"m 343 -12 q 238 0 288 -12 q 150 39 188 12 q 91 108 112 65 q 69 212 69 151 l 178 212 q 226 103 178 135 q 346 72 274 72 q 452 97 410 72 q 494 178 494 121 q 456 251 494 227 q 323 297 418 275 q 193 339 246 315 q 114 400 140 363 q 87 494 87 437 q 106 571 87 538 q 158 627 125 605 q 237 661 192 650 q 336 672 283 672 q 434 660 388 672 q 514 622 479 648 q 570 555 549 596 q 590 458 590 515 l 480 458 q 438 557 480 528 q 336 587 396 587 q 237 565 275 587 q 199 497 199 543 q 216 452 199 471 q 273 419 233 434 q 380 389 313 405 q 505 347 454 371 q 580 284 555 322 q 606 186 606 245 q 586 97 606 134 q 530 35 566 59 q 447 -1 494 11 q 343 -12 399 -12 m 140 753 l 286 935 l 399 935 l 544 753 l 450 753 l 342 869 l 234 753 l 140 753 z "},"ș":{"ha":675,"x_min":69,"x_max":606,"o":"m 343 -12 q 238 0 288 -12 q 150 39 188 12 q 91 108 112 65 q 69 212 69 151 l 178 212 q 226 103 178 135 q 346 72 274 72 q 452 97 410 72 q 494 178 494 121 q 456 251 494 227 q 323 297 418 275 q 193 339 246 315 q 114 400 140 363 q 87 494 87 437 q 106 571 87 538 q 158 627 125 605 q 237 661 192 650 q 336 672 283 672 q 434 660 388 672 q 514 622 479 648 q 570 555 549 596 q 590 458 590 515 l 480 458 q 438 557 480 528 q 336 587 396 587 q 237 565 275 587 q 199 497 199 543 q 216 452 199 471 q 273 419 233 434 q 380 389 313 405 q 505 347 454 371 q 580 284 555 322 q 606 186 606 245 q 586 97 606 134 q 530 35 566 59 q 447 -1 494 11 q 343 -12 399 -12 m 288 -259 l 275 -215 q 317 -192 297 -206 q 343 -157 337 -178 q 301 -137 317 -154 q 285 -98 285 -121 q 303 -57 285 -73 q 352 -40 321 -40 q 402 -59 382 -40 q 423 -113 423 -77 q 383 -208 423 -168 q 288 -259 343 -247 z "},"ṣ":{"ha":675,"x_min":69,"x_max":606,"o":"m 343 -12 q 238 0 288 -12 q 150 39 188 12 q 91 108 112 65 q 69 212 69 151 l 178 212 q 226 103 178 135 q 346 72 274 72 q 452 97 410 72 q 494 178 494 121 q 456 251 494 227 q 323 297 418 275 q 193 339 246 315 q 114 400 140 363 q 87 494 87 437 q 106 571 87 538 q 158 627 125 605 q 237 661 192 650 q 336 672 283 672 q 434 660 388 672 q 514 622 479 648 q 570 555 549 596 q 590 458 590 515 l 480 458 q 438 557 480 528 q 336 587 396 587 q 237 565 275 587 q 199 497 199 543 q 216 452 199 471 q 273 419 233 434 q 380 389 313 405 q 505 347 454 371 q 580 284 555 322 q 606 186 606 245 q 586 97 606 134 q 530 35 566 59 q 447 -1 494 11 q 343 -12 399 -12 m 348 -197 q 296 -179 316 -197 q 277 -132 277 -160 q 296 -84 277 -103 q 348 -66 316 -66 q 399 -84 380 -66 q 419 -132 419 -103 q 399 -179 419 -160 q 348 -197 380 -197 z "},"ß":{"ha":751,"x_min":102,"x_max":693,"o":"m 391 -8 q 343 -6 365 -8 q 299 0 321 -4 l 299 93 q 340 85 320 87 q 381 82 359 82 q 529 129 479 82 q 578 257 578 175 q 516 396 578 355 q 354 437 454 437 l 299 437 l 299 522 l 355 522 q 483 563 433 522 q 534 686 534 604 q 494 795 534 756 q 383 834 455 834 q 260 784 307 834 q 214 621 214 733 l 214 0 l 102 0 l 102 619 q 136 789 102 721 q 234 891 170 857 q 383 925 297 925 q 520 897 462 925 q 611 817 579 869 q 644 694 644 765 q 618 581 644 629 q 542 504 592 533 q 418 465 491 475 l 355 522 q 538 490 463 522 q 653 399 614 458 q 693 256 693 339 q 653 107 693 166 q 545 20 614 49 q 391 -8 477 -8 z "},"ſ":{"ha":378,"x_min":22,"x_max":398,"o":"m 132 0 l 132 568 l 22 568 l 22 661 l 132 661 l 132 699 q 148 814 132 766 q 207 887 164 862 q 330 913 249 913 l 398 913 l 398 824 l 337 824 q 261 791 277 824 q 245 697 245 759 l 245 0 l 132 0 z "},"t":{"ha":449,"x_min":22,"x_max":409,"o":"m 330 0 q 207 25 250 0 q 148 99 164 51 q 132 214 132 146 l 132 569 l 22 569 l 22 661 l 132 661 l 132 812 l 245 812 l 245 661 l 408 661 l 408 569 l 245 569 l 245 219 q 261 124 245 157 q 337 92 277 92 l 409 92 l 409 0 l 330 0 z "},"ŧ":{"ha":449,"x_min":22,"x_max":409,"o":"m 22 312 l 22 385 l 408 385 l 408 312 l 22 312 m 330 0 q 207 25 250 0 q 148 99 164 51 q 132 214 132 146 l 132 569 l 22 569 l 22 661 l 132 661 l 132 812 l 245 812 l 245 661 l 408 661 l 408 569 l 245 569 l 245 219 q 261 124 245 157 q 337 92 277 92 l 409 92 l 409 0 l 330 0 z "},"ť":{"ha":449,"x_min":22,"x_max":466,"o":"m 330 0 q 207 25 250 0 q 148 99 164 51 q 132 214 132 146 l 132 569 l 22 569 l 22 661 l 132 661 l 132 812 l 245 812 l 245 661 l 408 661 l 408 569 l 245 569 l 245 219 q 261 124 245 157 q 337 92 277 92 l 409 92 l 409 0 l 330 0 m 309 720 l 353 935 l 466 935 l 385 720 l 309 720 z "},"ţ":{"ha":449,"x_min":22,"x_max":409,"o":"m 330 0 q 207 25 250 0 q 148 99 164 51 q 132 214 132 146 l 132 569 l 22 569 l 22 661 l 132 661 l 132 812 l 245 812 l 245 661 l 408 661 l 408 569 l 245 569 l 245 219 q 261 124 245 157 q 337 92 277 92 l 409 92 l 409 0 l 330 0 m 227 -259 q 159 -253 188 -259 q 104 -236 130 -246 l 122 -173 q 167 -187 140 -181 q 222 -193 195 -193 q 264 -181 247 -193 q 281 -149 281 -170 q 259 -113 281 -125 q 184 -95 237 -101 l 154 -92 l 243 28 l 298 3 l 252 -60 l 232 -44 q 331 -73 296 -47 q 366 -146 366 -98 q 347 -209 366 -184 q 298 -247 329 -234 q 227 -259 267 -259 z "},"ț":{"ha":449,"x_min":22,"x_max":409,"o":"m 330 0 q 207 25 250 0 q 148 99 164 51 q 132 214 132 146 l 132 569 l 22 569 l 22 661 l 132 661 l 132 812 l 245 812 l 245 661 l 408 661 l 408 569 l 245 569 l 245 219 q 261 124 245 157 q 337 92 277 92 l 409 92 l 409 0 l 330 0 m 201 -259 l 188 -215 q 230 -192 210 -206 q 256 -157 250 -178 q 214 -137 231 -154 q 198 -98 198 -121 q 216 -57 198 -73 q 265 -40 234 -40 q 316 -59 295 -40 q 336 -113 336 -77 q 296 -208 336 -168 q 201 -259 256 -247 z "},"u":{"ha":776,"x_min":102,"x_max":667,"o":"m 319 -10 q 153 54 204 -10 q 102 229 102 117 l 102 661 l 216 661 l 216 245 q 227 165 216 200 q 265 110 237 130 q 347 90 294 90 q 472 121 422 90 q 553 193 522 152 l 553 661 l 667 661 l 667 0 l 557 0 l 554 102 q 464 26 522 62 q 319 -10 406 -10 z "},"ú":{"ha":776,"x_min":102,"x_max":667,"o":"m 319 -10 q 153 54 204 -10 q 102 229 102 117 l 102 661 l 216 661 l 216 245 q 227 165 216 200 q 265 110 237 130 q 347 90 294 90 q 472 121 422 90 q 553 193 522 152 l 553 661 l 667 661 l 667 0 l 557 0 l 554 102 q 464 26 522 62 q 319 -10 406 -10 m 321 753 l 458 935 l 590 935 l 408 753 l 321 753 z "},"ŭ":{"ha":776,"x_min":102,"x_max":667,"o":"m 319 -10 q 153 54 204 -10 q 102 229 102 117 l 102 661 l 216 661 l 216 245 q 227 165 216 200 q 265 110 237 130 q 347 90 294 90 q 472 121 422 90 q 553 193 522 152 l 553 661 l 667 661 l 667 0 l 557 0 l 554 102 q 464 26 522 62 q 319 -10 406 -10 m 383 758 q 259 803 306 758 q 203 929 212 848 l 273 929 q 312 854 279 877 q 383 832 344 832 q 458 855 424 832 q 498 929 492 878 l 564 929 q 508 804 555 850 q 383 758 461 758 z "},"û":{"ha":776,"x_min":102,"x_max":667,"o":"m 319 -10 q 153 54 204 -10 q 102 229 102 117 l 102 661 l 216 661 l 216 245 q 227 165 216 200 q 265 110 237 130 q 347 90 294 90 q 472 121 422 90 q 553 193 522 152 l 553 661 l 667 661 l 667 0 l 557 0 l 554 102 q 464 26 522 62 q 319 -10 406 -10 m 184 753 l 329 935 l 442 935 l 587 753 l 493 753 l 386 869 l 277 753 l 184 753 z "},"ü":{"ha":776,"x_min":102,"x_max":667,"o":"m 319 -10 q 153 54 204 -10 q 102 229 102 117 l 102 661 l 216 661 l 216 245 q 227 165 216 200 q 265 110 237 130 q 347 90 294 90 q 472 121 422 90 q 553 193 522 152 l 553 661 l 667 661 l 667 0 l 557 0 l 554 102 q 464 26 522 62 q 319 -10 406 -10 m 504 789 q 459 806 477 789 q 441 850 441 823 q 459 894 441 877 q 504 911 477 911 q 549 894 531 911 q 568 850 568 877 q 549 806 568 823 q 504 789 531 789 m 265 789 q 220 806 239 789 q 201 850 201 823 q 220 894 201 877 q 265 911 239 911 q 311 894 292 911 q 329 850 329 877 q 311 806 329 823 q 265 789 292 789 z "},"ụ":{"ha":776,"x_min":102,"x_max":667,"o":"m 319 -10 q 153 54 204 -10 q 102 229 102 117 l 102 661 l 216 661 l 216 245 q 227 165 216 200 q 265 110 237 130 q 347 90 294 90 q 472 121 422 90 q 553 193 522 152 l 553 661 l 667 661 l 667 0 l 557 0 l 554 102 q 464 26 522 62 q 319 -10 406 -10 m 387 -197 q 336 -179 355 -197 q 316 -132 316 -160 q 336 -84 316 -103 q 387 -66 355 -66 q 439 -84 419 -66 q 458 -132 458 -103 q 439 -179 458 -160 q 387 -197 419 -197 z "},"ù":{"ha":776,"x_min":102,"x_max":667,"o":"m 319 -10 q 153 54 204 -10 q 102 229 102 117 l 102 661 l 216 661 l 216 245 q 227 165 216 200 q 265 110 237 130 q 347 90 294 90 q 472 121 422 90 q 553 193 522 152 l 553 661 l 667 661 l 667 0 l 557 0 l 554 102 q 464 26 522 62 q 319 -10 406 -10 m 360 753 l 179 935 l 309 935 l 448 753 l 360 753 z "},"ủ":{"ha":776,"x_min":102,"x_max":667,"o":"m 319 -10 q 153 54 204 -10 q 102 229 102 117 l 102 661 l 216 661 l 216 245 q 227 165 216 200 q 265 110 237 130 q 347 90 294 90 q 472 121 422 90 q 553 193 522 152 l 553 661 l 667 661 l 667 0 l 557 0 l 554 102 q 464 26 522 62 q 319 -10 406 -10 m 351 768 l 322 810 q 365 833 346 817 q 385 873 385 849 q 367 906 385 898 q 317 915 350 915 l 308 915 l 308 984 l 330 984 q 450 960 410 984 q 490 885 490 936 q 473 828 490 853 q 424 789 455 804 q 351 768 393 774 m 322 810 l 398 802 l 398 738 l 322 738 l 322 810 z "},"ư":{"ha":831,"x_min":102,"x_max":871,"o":"m 654 473 l 650 538 q 742 591 708 560 q 780 665 775 622 l 787 660 q 729 682 752 660 q 706 737 706 703 q 729 793 706 772 q 787 815 751 815 q 848 790 825 815 q 871 715 871 766 q 857 635 871 672 q 814 568 842 598 q 746 514 787 538 q 654 473 706 490 m 319 -10 q 153 54 204 -10 q 102 229 102 117 l 102 661 l 216 661 l 216 245 q 227 165 216 200 q 265 110 237 130 q 347 90 294 90 q 472 121 422 90 q 553 193 522 152 l 553 661 l 667 661 l 667 0 l 557 0 l 554 102 q 464 26 522 62 q 319 -10 406 -10 z "},"ứ":{"ha":831,"x_min":102,"x_max":871,"o":"m 654 473 l 650 538 q 742 591 708 560 q 780 665 775 622 l 787 660 q 729 682 752 660 q 706 737 706 703 q 729 793 706 772 q 787 815 751 815 q 848 790 825 815 q 871 715 871 766 q 857 635 871 672 q 814 568 842 598 q 746 514 787 538 q 654 473 706 490 m 319 -10 q 153 54 204 -10 q 102 229 102 117 l 102 661 l 216 661 l 216 245 q 227 165 216 200 q 265 110 237 130 q 347 90 294 90 q 472 121 422 90 q 553 193 522 152 l 553 661 l 667 661 l 667 0 l 557 0 l 554 102 q 464 26 522 62 q 319 -10 406 -10 m 321 753 l 458 935 l 590 935 l 408 753 l 321 753 z "},"ự":{"ha":831,"x_min":102,"x_max":871,"o":"m 654 473 l 650 538 q 742 591 708 560 q 780 665 775 622 l 787 660 q 729 682 752 660 q 706 737 706 703 q 729 793 706 772 q 787 815 751 815 q 848 790 825 815 q 871 715 871 766 q 857 635 871 672 q 814 568 842 598 q 746 514 787 538 q 654 473 706 490 m 319 -10 q 153 54 204 -10 q 102 229 102 117 l 102 661 l 216 661 l 216 245 q 227 165 216 200 q 265 110 237 130 q 347 90 294 90 q 472 121 422 90 q 553 193 522 152 l 553 661 l 667 661 l 667 0 l 557 0 l 554 102 q 464 26 522 62 q 319 -10 406 -10 m 387 -197 q 336 -179 355 -197 q 316 -132 316 -160 q 336 -84 316 -103 q 387 -66 355 -66 q 439 -84 419 -66 q 458 -132 458 -103 q 439 -179 458 -160 q 387 -197 419 -197 z "},"ừ":{"ha":831,"x_min":102,"x_max":871,"o":"m 654 473 l 650 538 q 742 591 708 560 q 780 665 775 622 l 787 660 q 729 682 752 660 q 706 737 706 703 q 729 793 706 772 q 787 815 751 815 q 848 790 825 815 q 871 715 871 766 q 857 635 871 672 q 814 568 842 598 q 746 514 787 538 q 654 473 706 490 m 319 -10 q 153 54 204 -10 q 102 229 102 117 l 102 661 l 216 661 l 216 245 q 227 165 216 200 q 265 110 237 130 q 347 90 294 90 q 472 121 422 90 q 553 193 522 152 l 553 661 l 667 661 l 667 0 l 557 0 l 554 102 q 464 26 522 62 q 319 -10 406 -10 m 360 753 l 179 935 l 309 935 l 448 753 l 360 753 z "},"ử":{"ha":831,"x_min":102,"x_max":871,"o":"m 654 473 l 650 538 q 742 591 708 560 q 780 665 775 622 l 787 660 q 729 682 752 660 q 706 737 706 703 q 729 793 706 772 q 787 815 751 815 q 848 790 825 815 q 871 715 871 766 q 857 635 871 672 q 814 568 842 598 q 746 514 787 538 q 654 473 706 490 m 319 -10 q 153 54 204 -10 q 102 229 102 117 l 102 661 l 216 661 l 216 245 q 227 165 216 200 q 265 110 237 130 q 347 90 294 90 q 472 121 422 90 q 553 193 522 152 l 553 661 l 667 661 l 667 0 l 557 0 l 554 102 q 464 26 522 62 q 319 -10 406 -10 m 351 768 l 322 810 q 365 833 346 817 q 385 873 385 849 q 367 906 385 898 q 317 915 350 915 l 308 915 l 308 984 l 330 984 q 450 960 410 984 q 490 885 490 936 q 473 828 490 853 q 424 789 455 804 q 351 768 393 774 m 322 810 l 398 802 l 398 738 l 322 738 l 322 810 z "},"ữ":{"ha":831,"x_min":102,"x_max":871,"o":"m 654 473 l 650 538 q 742 591 708 560 q 780 665 775 622 l 787 660 q 729 682 752 660 q 706 737 706 703 q 729 793 706 772 q 787 815 751 815 q 848 790 825 815 q 871 715 871 766 q 857 635 871 672 q 814 568 842 598 q 746 514 787 538 q 654 473 706 490 m 319 -10 q 153 54 204 -10 q 102 229 102 117 l 102 661 l 216 661 l 216 245 q 227 165 216 200 q 265 110 237 130 q 347 90 294 90 q 472 121 422 90 q 553 193 522 152 l 553 661 l 667 661 l 667 0 l 557 0 l 554 102 q 464 26 522 62 q 319 -10 406 -10 m 187 772 q 219 871 194 834 q 296 907 245 907 q 350 898 323 907 q 402 877 377 888 q 443 861 425 867 q 475 855 460 855 q 503 869 492 855 q 516 911 513 882 l 583 911 q 552 815 576 850 q 477 779 528 779 q 421 788 448 779 q 371 808 395 798 q 330 824 348 818 q 297 831 313 831 q 268 817 279 831 q 254 772 257 802 l 187 772 z "},"ű":{"ha":776,"x_min":102,"x_max":667,"o":"m 319 -10 q 153 54 204 -10 q 102 229 102 117 l 102 661 l 216 661 l 216 245 q 227 165 216 200 q 265 110 237 130 q 347 90 294 90 q 472 121 422 90 q 553 193 522 152 l 553 661 l 667 661 l 667 0 l 557 0 l 554 102 q 464 26 522 62 q 319 -10 406 -10 m 412 753 l 530 935 l 647 935 l 493 753 l 412 753 m 218 753 l 336 935 l 452 935 l 298 753 l 218 753 z "},"ū":{"ha":776,"x_min":102,"x_max":667,"o":"m 319 -10 q 153 54 204 -10 q 102 229 102 117 l 102 661 l 216 661 l 216 245 q 227 165 216 200 q 265 110 237 130 q 347 90 294 90 q 472 121 422 90 q 553 193 522 152 l 553 661 l 667 661 l 667 0 l 557 0 l 554 102 q 464 26 522 62 q 319 -10 406 -10 m 200 799 l 200 882 l 570 882 l 570 799 l 200 799 z "},"ų":{"ha":776,"x_min":102,"x_max":667,"o":"m 319 -10 q 153 54 204 -10 q 102 229 102 117 l 102 661 l 216 661 l 216 245 q 227 165 216 200 q 265 110 237 130 q 347 90 294 90 q 472 121 422 90 q 553 193 522 152 l 553 661 l 667 661 l 667 0 l 557 0 l 554 102 q 464 26 522 62 q 319 -10 406 -10 m 560 -254 q 472 -225 509 -254 q 436 -144 436 -196 q 457 -76 436 -110 q 515 -15 479 -42 q 595 23 551 12 l 638 11 q 555 -63 578 -28 q 532 -127 532 -99 q 546 -164 532 -151 q 581 -176 560 -176 q 624 -171 604 -176 q 666 -155 644 -165 l 666 -231 q 623 -248 646 -241 q 560 -254 600 -254 z "},"ů":{"ha":776,"x_min":102,"x_max":667,"o":"m 319 -10 q 153 54 204 -10 q 102 229 102 117 l 102 661 l 216 661 l 216 245 q 227 165 216 200 q 265 110 237 130 q 347 90 294 90 q 472 121 422 90 q 553 193 522 152 l 553 661 l 667 661 l 667 0 l 557 0 l 554 102 q 464 26 522 62 q 319 -10 406 -10 m 385 732 q 283 769 322 732 q 243 869 243 807 q 283 968 243 930 q 385 1006 322 1006 q 486 968 447 1006 q 526 869 526 930 q 486 769 526 807 q 385 732 447 732 m 385 796 q 436 817 416 796 q 456 869 456 837 q 436 922 456 901 q 385 943 416 943 q 334 922 353 943 q 314 869 314 901 q 334 817 314 837 q 385 796 353 796 z "},"ũ":{"ha":776,"x_min":102,"x_max":667,"o":"m 319 -10 q 153 54 204 -10 q 102 229 102 117 l 102 661 l 216 661 l 216 245 q 227 165 216 200 q 265 110 237 130 q 347 90 294 90 q 472 121 422 90 q 553 193 522 152 l 553 661 l 667 661 l 667 0 l 557 0 l 554 102 q 464 26 522 62 q 319 -10 406 -10 m 187 772 q 219 871 194 834 q 296 907 245 907 q 350 898 323 907 q 402 877 377 888 q 443 861 425 867 q 475 855 460 855 q 503 869 492 855 q 516 911 513 882 l 583 911 q 552 815 576 850 q 477 779 528 779 q 421 788 448 779 q 371 808 395 798 q 330 824 348 818 q 297 831 313 831 q 268 817 279 831 q 254 772 257 802 l 187 772 z "},"v":{"ha":628,"x_min":0,"x_max":628,"o":"m 254 0 l 0 661 l 120 661 l 315 111 l 513 661 l 628 661 l 378 0 l 254 0 z "},"ʋ":{"ha":795,"x_min":102,"x_max":692,"o":"m 387 -7 q 224 26 287 -7 q 132 119 161 58 q 102 264 102 180 l 102 661 l 216 661 l 216 281 q 230 183 216 226 q 280 117 243 140 q 386 93 317 93 q 506 115 465 93 q 563 179 548 137 q 578 281 578 222 l 692 281 q 659 123 692 188 q 557 26 625 59 q 387 -7 489 -7 m 578 281 l 578 450 q 563 544 578 511 q 487 576 547 576 l 460 576 l 460 668 l 494 668 q 618 643 575 668 q 676 570 661 618 q 692 455 692 522 l 692 281 l 578 281 z "},"w":{"ha":1001,"x_min":7,"x_max":993,"o":"m 218 0 l 7 661 l 125 661 l 282 127 l 440 661 l 566 661 l 726 128 l 882 661 l 993 661 l 782 0 l 663 0 l 500 538 l 339 0 l 218 0 z "},"ẃ":{"ha":1001,"x_min":7,"x_max":993,"o":"m 218 0 l 7 661 l 125 661 l 282 127 l 440 661 l 566 661 l 726 128 l 882 661 l 993 661 l 782 0 l 663 0 l 500 538 l 339 0 l 218 0 m 439 753 l 577 935 l 709 935 l 527 753 l 439 753 z "},"ŵ":{"ha":1001,"x_min":7,"x_max":993,"o":"m 218 0 l 7 661 l 125 661 l 282 127 l 440 661 l 566 661 l 726 128 l 882 661 l 993 661 l 782 0 l 663 0 l 500 538 l 339 0 l 218 0 m 302 753 l 448 935 l 561 935 l 706 753 l 612 753 l 505 869 l 396 753 l 302 753 z "},"ẅ":{"ha":1001,"x_min":7,"x_max":993,"o":"m 218 0 l 7 661 l 125 661 l 282 127 l 440 661 l 566 661 l 726 128 l 882 661 l 993 661 l 782 0 l 663 0 l 500 538 l 339 0 l 218 0 m 623 789 q 577 806 595 789 q 559 850 559 823 q 577 894 559 877 q 623 911 595 911 q 668 894 650 911 q 686 850 686 877 q 668 806 686 823 q 623 789 650 789 m 384 789 q 339 806 357 789 q 320 850 320 823 q 339 894 320 877 q 384 911 357 911 q 429 894 411 911 q 448 850 448 877 q 429 806 448 823 q 384 789 411 789 z "},"ẁ":{"ha":1001,"x_min":7,"x_max":993,"o":"m 218 0 l 7 661 l 125 661 l 282 127 l 440 661 l 566 661 l 726 128 l 882 661 l 993 661 l 782 0 l 663 0 l 500 538 l 339 0 l 218 0 m 479 753 l 298 935 l 428 935 l 566 753 l 479 753 z "},"x":{"ha":614,"x_min":6,"x_max":608,"o":"m 6 0 l 249 359 l 297 396 l 465 661 l 587 661 l 360 328 l 317 292 l 126 0 l 6 0 m 488 0 l 296 292 l 252 328 l 28 661 l 149 661 l 317 396 l 362 363 l 608 0 l 488 0 z "},"y":{"ha":628,"x_min":0,"x_max":628,"o":"m 71 -243 l 71 -149 l 127 -149 q 192 -129 165 -149 q 238 -60 219 -108 l 264 0 l 0 661 l 120 661 l 324 120 l 513 661 l 628 661 l 380 0 l 349 -80 q 299 -175 326 -139 q 235 -227 273 -211 q 138 -243 197 -243 l 71 -243 z "},"ý":{"ha":628,"x_min":0,"x_max":628,"o":"m 71 -243 l 71 -149 l 127 -149 q 192 -129 165 -149 q 238 -60 219 -108 l 264 0 l 0 661 l 120 661 l 324 120 l 513 661 l 628 661 l 380 0 l 349 -80 q 299 -175 326 -139 q 235 -227 273 -211 q 138 -243 197 -243 l 71 -243 m 252 753 l 390 935 l 522 935 l 340 753 l 252 753 z "},"ŷ":{"ha":628,"x_min":0,"x_max":628,"o":"m 71 -243 l 71 -149 l 127 -149 q 192 -129 165 -149 q 238 -60 219 -108 l 264 0 l 0 661 l 120 661 l 324 120 l 513 661 l 628 661 l 380 0 l 349 -80 q 299 -175 326 -139 q 235 -227 273 -211 q 138 -243 197 -243 l 71 -243 m 115 753 l 260 935 l 374 935 l 519 753 l 425 753 l 317 869 l 209 753 l 115 753 z "},"ÿ":{"ha":628,"x_min":0,"x_max":628,"o":"m 71 -243 l 71 -149 l 127 -149 q 192 -129 165 -149 q 238 -60 219 -108 l 264 0 l 0 661 l 120 661 l 324 120 l 513 661 l 628 661 l 380 0 l 349 -80 q 299 -175 326 -139 q 235 -227 273 -211 q 138 -243 197 -243 l 71 -243 m 435 789 q 390 806 408 789 q 372 850 372 823 q 390 894 372 877 q 435 911 408 911 q 481 894 463 911 q 499 850 499 877 q 481 806 499 823 q 435 789 463 789 m 197 789 q 152 806 170 789 q 133 850 133 823 q 152 894 133 877 q 197 911 170 911 q 242 894 224 911 q 260 850 260 877 q 242 806 260 823 q 197 789 224 789 z "},"ỵ":{"ha":628,"x_min":0,"x_max":628,"o":"m 71 -243 l 71 -149 l 127 -149 q 192 -129 165 -149 q 238 -60 219 -108 l 264 0 l 0 661 l 120 661 l 324 120 l 513 661 l 628 661 l 380 0 l 349 -80 q 299 -175 326 -139 q 235 -227 273 -211 q 138 -243 197 -243 l 71 -243 m 498 -194 q 446 -175 466 -194 q 427 -128 427 -157 q 446 -81 427 -100 q 498 -62 466 -62 q 549 -81 530 -62 q 569 -128 569 -100 q 549 -175 569 -157 q 498 -194 530 -194 z "},"ỳ":{"ha":628,"x_min":0,"x_max":628,"o":"m 71 -243 l 71 -149 l 127 -149 q 192 -129 165 -149 q 238 -60 219 -108 l 264 0 l 0 661 l 120 661 l 324 120 l 513 661 l 628 661 l 380 0 l 349 -80 q 299 -175 326 -139 q 235 -227 273 -211 q 138 -243 197 -243 l 71 -243 m 292 753 l 111 935 l 241 935 l 379 753 l 292 753 z "},"ƴ":{"ha":780,"x_min":0,"x_max":780,"o":"m 74 -243 l 74 -149 l 130 -149 q 194 -129 170 -149 q 238 -60 219 -108 l 264 0 l 0 661 l 120 661 l 324 124 l 537 731 q 586 827 559 792 q 651 877 612 863 q 743 892 689 892 l 780 892 l 780 798 l 755 798 q 689 777 716 798 q 642 704 662 755 l 351 -83 q 302 -176 328 -141 q 239 -227 277 -211 q 142 -243 201 -243 l 74 -243 z "},"ỷ":{"ha":628,"x_min":0,"x_max":628,"o":"m 71 -243 l 71 -149 l 127 -149 q 192 -129 165 -149 q 238 -60 219 -108 l 264 0 l 0 661 l 120 661 l 324 120 l 513 661 l 628 661 l 380 0 l 349 -80 q 299 -175 326 -139 q 235 -227 273 -211 q 138 -243 197 -243 l 71 -243 m 282 768 l 254 810 q 297 833 277 817 q 316 873 316 849 q 299 906 316 898 q 248 915 281 915 l 239 915 l 239 984 l 262 984 q 382 960 342 984 q 422 885 422 936 q 404 828 422 853 q 355 789 387 804 q 282 768 324 774 m 254 810 l 330 802 l 330 738 l 254 738 l 254 810 z "},"ȳ":{"ha":628,"x_min":0,"x_max":628,"o":"m 71 -243 l 71 -149 l 127 -149 q 192 -129 165 -149 q 238 -60 219 -108 l 264 0 l 0 661 l 120 661 l 324 120 l 513 661 l 628 661 l 380 0 l 349 -80 q 299 -175 326 -139 q 235 -227 273 -211 q 138 -243 197 -243 l 71 -243 m 132 799 l 132 882 l 501 882 l 501 799 l 132 799 z "},"ỹ":{"ha":628,"x_min":0,"x_max":628,"o":"m 71 -243 l 71 -149 l 127 -149 q 192 -129 165 -149 q 238 -60 219 -108 l 264 0 l 0 661 l 120 661 l 324 120 l 513 661 l 628 661 l 380 0 l 349 -80 q 299 -175 326 -139 q 235 -227 273 -211 q 138 -243 197 -243 l 71 -243 m 119 772 q 151 871 125 834 q 227 907 176 907 q 282 898 255 907 q 334 877 309 888 q 374 861 356 867 q 407 855 392 855 q 434 869 423 855 q 448 911 445 882 l 514 911 q 483 815 507 850 q 409 779 459 779 q 353 788 379 779 q 302 808 326 798 q 262 824 279 818 q 229 831 244 831 q 199 817 210 831 q 185 772 189 802 l 119 772 z "},"z":{"ha":608,"x_min":46,"x_max":562,"o":"m 46 0 l 46 87 l 408 569 l 75 569 l 75 661 l 543 661 l 543 580 l 178 92 l 562 92 l 562 0 l 46 0 z "},"ź":{"ha":608,"x_min":46,"x_max":562,"o":"m 46 0 l 46 87 l 408 569 l 75 569 l 75 661 l 543 661 l 543 580 l 178 92 l 562 92 l 562 0 l 46 0 m 245 753 l 382 935 l 514 935 l 332 753 l 245 753 z "},"ž":{"ha":608,"x_min":46,"x_max":562,"o":"m 46 0 l 46 87 l 408 569 l 75 569 l 75 661 l 543 661 l 543 580 l 178 92 l 562 92 l 562 0 l 46 0 m 252 753 l 106 935 l 200 935 l 309 819 l 416 935 l 510 935 l 365 753 l 252 753 z "}}}
